<?xml version="1.0" standalone="no"?>
<!DOCTYPE svg PUBLIC "-//W3C//DTD SVG 20010904//EN"
 "http://www.w3.org/TR/2001/REC-SVG-20010904/DTD/svg10.dtd">
<svg version="1.0" xmlns="http://www.w3.org/2000/svg"
 width="1063.000000pt" height="750.146773pt" viewBox="0 0 1063.000000 750.146773"
 preserveAspectRatio="xMidYMid meet">
<metadata>
Created by potrace 1.12, written by Peter Selinger 2001-2015
</metadata>
<g transform="translate(-428.500000,1334.964118) scale(0.100000,-0.100000)"
fill="#000000" stroke="none">
<path d="M8026 13334 c-21 -8 -58 -29 -81 -48 -73 -60 -95 -120 -174 -461 -40
-170 -74 -318 -77 -328 -5 -16 -40 -17 -602 -15 l-597 3 -3 81 c-4 106 -22
126 -117 132 l-65 4 0 40 c0 81 9 78 -254 78 -263 0 -258 1 -260 -74 l0 -44
-68 -4 c-97 -5 -112 -22 -117 -133 l-3 -85 -292 0 c-256 0 -301 -3 -374 -20
-313 -75 -553 -315 -635 -637 l-22 -88 0 -2570 0 -2570 22 -87 c85 -332 345
-581 670 -644 112 -21 9134 -21 9246 0 325 63 585 312 670 644 l22 87 0 2570
0 2570 -22 88 c-43 169 -124 308 -244 423 -116 110 -240 178 -391 214 -81 19
-119 20 -1415 20 -1260 0 -1332 1 -1337 18 -3 9 -37 157 -77 327 -79 341 -101
401 -174 461 -84 69 34 64 -1659 63 -1300 0 -1537 -3 -1570 -15z m3058 -826
l100 -428 1436 0 c810 0 1462 -4 1498 -10 190 -27 351 -186 382 -375 6 -38 10
-975 10 -2535 0 -2719 4 -2549 -61 -2671 -41 -75 -124 -153 -209 -193 l-65
-31 -4575 0 -4575 0 -65 31 c-85 40 -168 118 -209 193 -65 122 -61 -48 -61
2671 0 1560 4 2497 10 2535 31 189 192 348 382 375 36 6 688 10 1498 10 l1436
0 98 423 c55 232 101 425 103 430 2 4 626 6 1385 5 l1382 -3 100 -427z"/>
<path d="M7303 11710 c-63 -13 -116 -44 -161 -95 -129 -146 -81 -369 97 -457
68 -34 177 -32 247 5 108 55 172 169 161 286 -15 171 -178 294 -344 261z"/>
<path d="M12143 11680 c-24 -11 -51 -33 -63 -52 -19 -31 -20 -46 -18 -290 l3
-256 25 -27 c53 -57 23 -55 747 -55 758 0 717 -4 761 81 22 43 23 51 20 281
-3 260 -4 261 -72 312 -27 21 -38 21 -694 23 -641 3 -669 2 -709 -17z"/>
<path d="M9470 11524 c-594 -39 -1141 -285 -1555 -699 -314 -314 -544 -730
-640 -1155 -54 -235 -73 -574 -45 -795 67 -542 288 -1006 660 -1389 460 -474
1053 -726 1708 -726 190 0 310 12 479 46 712 145 1323 614 1654 1269 171 339
251 679 250 1070 0 397 -81 732 -262 1085 -352 690 -1030 1169 -1804 1275
-106 14 -352 25 -445 19z m367 -509 c628 -82 1162 -461 1446 -1025 268 -531
275 -1123 22 -1658 -407 -857 -1398 -1281 -2295 -983 -712 238 -1214 864
-1289 1610 -71 691 262 1381 849 1763 377 246 828 350 1267 293z"/>
<path d="M9483 10679 c-678 -50 -1246 -547 -1394 -1222 -30 -135 -37 -398 -15
-539 55 -346 207 -641 452 -879 181 -174 370 -289 597 -363 166 -55 277 -71
477 -71 199 0 311 16 476 70 491 160 874 562 1013 1063 41 147 54 274 48 457
-8 243 -45 397 -147 610 -40 84 -159 282 -160 265 0 -3 7 -37 15 -75 19 -88
19 -230 0 -317 -30 -145 -95 -265 -200 -373 -84 -85 -163 -138 -263 -178 -151
-58 -284 -70 -437 -38 -234 49 -420 192 -530 409 -102 199 -103 466 -5 663
123 244 329 393 596 430 46 7 83 13 81 15 -1 2 -46 14 -99 28 -161 42 -336 57
-505 45z m-484 -2224 c61 -21 104 -58 136 -117 35 -65 40 -161 11 -218 -69
-134 -220 -184 -345 -115 -93 51 -139 138 -128 243 16 157 177 260 326 207z"/>
</g>
</svg>
