<?xml version="1.0" encoding="UTF-8"?><svg id="Layer_2" xmlns="http://www.w3.org/2000/svg" viewBox="0 0 248 380"><defs><style>.cls-1,.cls-2,.cls-3,.cls-4{stroke-width:0px;}.cls-2{fill:#338a12;}.cls-3{fill:#fff;}.cls-4{fill:#f4e808;}</style></defs><g id="_0"><g id="Base_Yellow"><rect style="stroke-width:0px;;fill:#fff;" x="0" y="0" width="248" height="380" rx="24.66" ry="24.66" transform="translate(248 380) rotate(-180)"/><path style="stroke-width:0px;;fill:#f4e808;" d="M16.75,311.85c1.59,1.9,2.37,2.66,2.96,3.56,14.15,21.4,34.52,28.02,58.81,23.99,29.27-4.86,52.77-20.9,74.1-40.41,35.64-32.59,60.53-72.35,77.03-117.57.44-1.21.92-2.41,2.27-3.61.08,1.66.22,3.33.22,4.99.01,51.52,0,103.03,0,154.55,0,17.49-8.4,25.81-26.05,25.81-43.99,0-87.99,0-131.98,0-11.12,0-22.25.07-33.37-.02-15.16-.12-23.98-9.12-24.01-24.34-.02-8.55,0-17.11,0-26.96Z"/><path style="stroke-width:0px;;fill:#f4e808;" d="M17.84,262.97c-.22-22.83,5.07-44.14,12.18-65.14,14.66-43.34,38.94-80.51,71.97-111.92,17.36-16.51,36.77-30,60.24-36.6,33.37-9.38,60.58,7.27,67.85,41.25,5.55,25.92,2.32,51.33-5.28,76.12-17,55.51-46.61,102.96-92.5,139.29-16.58,13.13-34.86,23.14-56.39,25.61-22.61,2.59-42.13-8.78-51.22-29.69-5.47-12.58-7.13-25.82-6.85-38.93Z"/><path style="stroke-width:0px;;fill:#f4e808;" d="M232.16,67.18c-1.54-1.9-2.18-2.58-2.68-3.34-14.21-21.58-34.65-28.39-59.18-24.22-30.32,5.16-54.41,22.08-76.25,42.53-34.47,32.28-58.74,71.29-74.76,115.58-.49,1.36-1.04,2.71-2.31,4.03-.08-1.53-.23-3.06-.23-4.58-.01-52.01-.01-104.03,0-156.04,0-16.61,8.58-25.29,25.05-25.3,55.11-.01,110.23-.01,165.34,0,16.45,0,25.01,8.7,25.02,25.32,0,8.21,0,16.41,0,26.01Z"/></g><g id="Base_Green"><rect style="stroke-width:0px;;fill:#fff;" x="0" y="0" width="248" height="380" rx="24.66" ry="24.66" transform="translate(248 380) rotate(-180)"/><path style="stroke-width:0px;;fill:#338a12;" d="M16.75,311.85c1.59,1.9,2.37,2.66,2.96,3.56,14.15,21.4,34.52,28.02,58.81,23.99,29.27-4.86,52.77-20.9,74.1-40.41,35.64-32.59,60.53-72.35,77.03-117.57.44-1.21.92-2.41,2.27-3.61.08,1.66.22,3.33.22,4.99.01,51.52,0,103.03,0,154.55,0,17.49-8.4,25.81-26.05,25.81-43.99,0-87.99,0-131.98,0-11.12,0-22.25.07-33.37-.02-15.16-.12-23.98-9.12-24.01-24.34-.02-8.55,0-17.11,0-26.96Z"/><path style="stroke-width:0px;;fill:#338a12;" d="M17.84,262.97c-.22-22.83,5.07-44.14,12.18-65.14,14.66-43.34,38.94-80.51,71.97-111.92,17.36-16.51,36.77-30,60.24-36.6,33.37-9.38,60.58,7.27,67.85,41.25,5.55,25.92,2.32,51.33-5.28,76.12-17,55.51-46.61,102.96-92.5,139.29-16.58,13.13-34.86,23.14-56.39,25.61-22.61,2.59-42.13-8.78-51.22-29.69-5.47-12.58-7.13-25.82-6.85-38.93Z"/><path style="stroke-width:0px;;fill:#338a12;" d="M232.16,67.18c-1.54-1.9-2.18-2.58-2.68-3.34-14.21-21.58-34.65-28.39-59.18-24.22-30.32,5.16-54.41,22.08-76.25,42.53-34.47,32.28-58.74,71.29-74.76,115.58-.49,1.36-1.04,2.71-2.31,4.03-.08-1.53-.23-3.06-.23-4.58-.01-52.01-.01-104.03,0-156.04,0-16.61,8.58-25.29,25.05-25.3,55.11-.01,110.23-.01,165.34,0,16.45,0,25.01,8.7,25.02,25.32,0,8.21,0,16.41,0,26.01Z"/></g><path style="stroke-width:0px;" d="M134.44,146.73c1.17,1.26,2.04,2.56,2.72,3.75,5.13,9.01,7.73,22.57,7.73,40.32s-2.61,31.25-7.75,40.19c-.7,1.21-1.58,2.53-2.79,3.82,1.95-2.61,3.49-5.73,4.56-9.29v-.03s.02-.03.02-.03c2.47-8.36,3.67-19.7,3.67-34.67s-1.23-27.25-3.77-35.34c-1.05-3.33-2.53-6.26-4.4-8.73M94.22,147.34c-1.65,2.31-2.99,4.98-3.97,8-2.64,8.12-3.93,19.71-3.93,35.45s1.27,26.42,3.88,34.84c1.05,3.39,2.52,6.37,4.37,8.89-1.08-1.2-1.89-2.42-2.53-3.54-5.14-8.94-7.75-22.46-7.75-40.19s2.61-31.3,7.76-40.3c.57-1,1.27-2.08,2.18-3.15M114.59,128.93c-15.25,0-25.95,5.37-32.09,16.11-6.14,10.74-9.21,25.99-9.21,45.76s3.07,34.99,9.21,45.68c6.14,10.68,16.84,16.02,32.09,16.02s25.95-5.34,32.09-16.02c6.14-10.68,9.21-25.91,9.21-45.68s-3.06-35.02-9.17-45.76c-6.17-10.74-16.88-16.11-32.13-16.11h0ZM114.59,233.33c-6.99,0-11.62-3.65-13.88-10.94-2.26-7.3-3.39-17.83-3.39-31.59s1.13-25.11,3.39-32.05c2.26-6.94,6.88-10.41,13.88-10.41s11.58,3.47,13.75,10.41c2.17,6.94,3.26,17.62,3.26,32.05s-1.07,24.28-3.22,31.55c-2.2,7.32-6.8,10.99-13.79,10.99h0Z"/><path style="stroke-width:0px;;fill:#fff;" d="M125.28,247.15c-15.65,0-26.83-5.65-33.24-16.8-6.1-10.61-9.19-25.79-9.19-45.1s3.09-34.52,9.19-45.18c6.41-11.21,17.59-16.89,33.24-16.89s26.84,5.68,33.28,16.88c6.07,10.67,9.15,25.87,9.15,45.18s-3.09,34.49-9.19,45.1c-6.41,11.15-17.59,16.8-33.24,16.8ZM125.28,147.71c-5.35,0-8.65,2.5-10.4,7.86-2.05,6.29-3.09,16.27-3.09,29.67s1.04,22.63,3.1,29.28c1.76,5.69,5.06,8.34,10.38,8.34s8.58-2.65,10.3-8.35c1.96-6.62,2.95-16.47,2.95-29.26s-1-23.4-2.98-29.7c-1.68-5.34-4.94-7.83-10.27-7.83Z"/><path style="stroke-width:0px;" d="M125.28,126.18c14.56,0,24.79,5.13,30.68,15.38,5.84,10.25,8.75,24.81,8.75,43.69s-2.93,33.41-8.79,43.61c-5.86,10.2-16.08,15.3-30.64,15.3s-24.78-5.1-30.64-15.3c-5.86-10.2-8.79-24.73-8.79-43.61s2.93-33.44,8.79-43.69c5.86-10.25,16.07-15.38,30.64-15.38M125.28,225.86c6.68,0,11.07-3.5,13.17-10.49,2.05-6.94,3.08-16.98,3.08-30.12s-1.04-23.97-3.11-30.6c-2.08-6.62-6.45-9.94-13.13-9.94s-11.09,3.31-13.25,9.94c-2.16,6.62-3.23,16.82-3.23,30.6s1.08,23.2,3.23,30.16c2.16,6.97,6.57,10.45,13.25,10.45M125.28,120.18c-16.8,0-28.86,6.19-35.85,18.4-6.45,11.28-9.58,26.54-9.58,46.67s3.14,35.37,9.59,46.6c6.98,12.15,19.04,18.31,35.84,18.31s28.86-6.16,35.84-18.31c6.45-11.23,9.59-26.47,9.59-46.6s-3.12-35.38-9.54-46.66c-7.02-12.22-19.09-18.41-35.89-18.41h0ZM125.28,219.86c-3.36,0-5.92-1.06-7.52-6.22-1.97-6.36-2.97-15.91-2.97-28.39s.99-22.75,2.94-28.74c1.36-4.17,3.47-5.79,7.54-5.79s6.11,1.61,7.41,5.73c1.88,6.01,2.84,15.7,2.84,28.8s-.95,22.07-2.83,28.42c-1.54,5.13-4.08,6.19-7.42,6.19h0Z"/><path style="stroke-width:0px;" d="M47.28,32.17c-6.79,0-11.55,2.39-14.28,7.17-2.73,4.78-4.1,11.57-4.1,20.36s1.37,15.57,4.1,20.33c2.73,4.75,7.49,7.13,14.28,7.13s11.55-2.38,14.28-7.13c2.73-4.75,4.1-11.53,4.1-20.33s-1.36-15.59-4.08-20.36c-2.74-4.78-7.51-7.17-14.3-7.17h0ZM47.28,78.64c-3.11,0-5.17-1.62-6.18-4.87-1.01-3.25-1.51-7.93-1.51-14.06s.5-11.17,1.51-14.26c1-3.09,3.06-4.63,6.18-4.63s5.15,1.54,6.12,4.63c.97,3.09,1.45,7.84,1.45,14.26s-.48,10.81-1.43,14.04c-.98,3.26-3.03,4.89-6.14,4.89h0Z"/><path style="stroke-width:0px;;fill:#fff;" d="M52.04,85.45c-7.22,0-12.39-2.63-15.37-7.81-2.77-4.82-4.18-11.69-4.18-20.4s1.41-15.59,4.18-20.44c2.98-5.21,8.15-7.85,15.37-7.85s12.4,2.64,15.39,7.85c2.76,4.85,4.16,11.73,4.16,20.44s-1.41,15.58-4.18,20.4c-2.98,5.18-8.15,7.81-15.37,7.81ZM52.04,41.2c-2.11,0-3.3.91-3.99,3.04-.89,2.73-1.34,7.11-1.34,13s.45,9.94,1.35,12.83c.7,2.27,1.9,3.24,3.99,3.24s3.26-.97,3.95-3.24c.85-2.88,1.28-7.2,1.28-12.83s-.44-10.28-1.29-13.02c-.66-2.12-1.84-3.02-3.94-3.02Z"/><path style="stroke-width:0px;" d="M52.04,30.95c6.48,0,11.03,2.28,13.65,6.84,2.6,4.56,3.9,11.04,3.9,19.44s-1.3,14.87-3.91,19.41c-2.61,4.54-7.15,6.81-13.63,6.81s-11.03-2.27-13.63-6.81c-2.61-4.54-3.91-11.01-3.91-19.41s1.3-14.88,3.91-19.44c2.61-4.56,7.15-6.84,13.63-6.84M52.04,75.31c2.97,0,4.93-1.56,5.86-4.67.91-3.09,1.37-7.56,1.37-13.41s-.46-10.67-1.39-13.62c-.92-2.95-2.87-4.42-5.84-4.42s-4.94,1.47-5.9,4.42c-.96,2.95-1.44,7.49-1.44,13.62s.48,10.32,1.44,13.42c.96,3.1,2.92,4.65,5.9,4.65M52.04,26.95c-5.49,0-12.92,1.54-17.11,8.86-2.99,5.22-4.44,12.23-4.44,21.43s1.45,16.2,4.45,21.4c4.19,7.29,11.61,8.82,17.1,8.82s12.91-1.53,17.1-8.82c2.99-5.2,4.45-12.2,4.45-21.4s-1.45-16.2-4.42-21.42c-2.33-4.05-7.18-8.86-17.13-8.86h0ZM52.04,71.31c-.94,0-1.55-.12-2.07-1.83-.84-2.7-1.26-6.82-1.26-12.24,0-7.08.68-10.64,1.24-12.38.47-1.43,1-1.66,2.09-1.66,1.03,0,1.57.16,2.03,1.62.55,1.75,1.2,5.33,1.2,12.42,0,5.44-.41,9.57-1.2,12.27-.54,1.8-1.23,1.8-2.02,1.8h0Z"/><path style="stroke-width:0px;" d="M200.72,292.83c-6.79,0-11.55,2.38-14.28,7.13-2.73,4.75-4.1,11.53-4.1,20.33s1.36,15.59,4.08,20.36c2.74,4.78,7.51,7.17,14.3,7.17s11.55-2.39,14.28-7.17c2.73-4.78,4.1-11.57,4.1-20.36s-1.37-15.57-4.1-20.33c-2.73-4.75-7.49-7.13-14.28-7.13h0ZM200.72,339.19c-3.11,0-5.15-1.54-6.12-4.63-.97-3.09-1.45-7.84-1.45-14.26s.48-10.81,1.43-14.04c.98-3.26,3.03-4.89,6.14-4.89s5.17,1.62,6.18,4.87c1.01,3.25,1.51,7.93,1.51,14.06s-.5,11.17-1.51,14.26c-1,3.09-3.06,4.63-6.18,4.63h0Z"/><path style="stroke-width:0px;;fill:#fff;" d="M195.96,351.05c-7.22,0-12.4-2.64-15.39-7.85-2.76-4.85-4.16-11.73-4.16-20.44s1.41-15.58,4.18-20.4c2.98-5.18,8.15-7.81,15.37-7.81s12.39,2.63,15.37,7.81c2.77,4.82,4.18,11.69,4.18,20.4s-1.41,15.59-4.18,20.44c-2.98,5.21-8.15,7.85-15.37,7.85ZM195.96,306.69c-2.08,0-3.26.97-3.95,3.24-.85,2.88-1.28,7.2-1.28,12.83s.44,10.28,1.29,13.02c.66,2.12,1.84,3.02,3.93,3.02s3.3-.91,3.99-3.04c.89-2.73,1.34-7.1,1.34-13s-.45-9.94-1.35-12.83c-.7-2.27-1.9-3.24-3.99-3.24Z"/><path style="stroke-width:0px;" d="M195.96,296.55c6.48,0,11.03,2.27,13.63,6.81,2.61,4.54,3.91,11.01,3.91,19.41s-1.3,14.88-3.91,19.44c-2.61,4.56-7.15,6.84-13.63,6.84s-11.03-2.28-13.65-6.84c-2.6-4.56-3.9-11.04-3.9-19.44s1.3-14.87,3.91-19.41c2.61-4.54,7.15-6.81,13.63-6.81M195.96,340.8c2.97,0,4.94-1.47,5.9-4.42.96-2.95,1.44-7.49,1.44-13.62s-.48-10.32-1.44-13.42c-.96-3.1-2.92-4.65-5.9-4.65s-4.93,1.56-5.86,4.67c-.91,3.09-1.37,7.56-1.37,13.41s.46,10.67,1.39,13.62c.92,2.95,2.87,4.42,5.84,4.42M195.96,292.55c-5.49,0-12.91,1.53-17.1,8.82-2.99,5.2-4.45,12.2-4.45,21.4s1.45,16.2,4.42,21.42c2.33,4.05,7.18,8.86,17.13,8.86,5.49,0,12.92-1.54,17.11-8.86,2.99-5.22,4.44-12.23,4.44-21.43s-1.45-16.2-4.45-21.4c-4.19-7.29-11.61-8.82-17.1-8.82h0ZM195.96,336.8c-1.03,0-1.57-.16-2.03-1.62-.55-1.75-1.2-5.33-1.2-12.42,0-5.44.41-9.57,1.2-12.27.54-1.8,1.23-1.8,2.02-1.8.94,0,1.55.12,2.07,1.83.84,2.7,1.26,6.82,1.26,12.24,0,7.08-.68,10.64-1.24,12.38-.47,1.43-1,1.66-2.09,1.66h0Z"/></g></svg>