<?xml version="1.0" encoding="UTF-8"?><svg id="Layer_2" xmlns="http://www.w3.org/2000/svg" viewBox="0 0 248 380"><defs><style>.cls-1,.cls-2,.cls-3{stroke-width:0px;}.cls-2{fill:#fff;}.cls-3{fill:#f4e808;}</style></defs><g id="_1"><g id="Base_Yellow"><rect style="stroke-width:0px;;fill:#fff;" x="0" y="0" width="248" height="380" rx="24.66" ry="24.66" transform="translate(248 380) rotate(-180)"/><path style="stroke-width:0px;;fill:#f4e808;" d="M16.75,311.85c1.59,1.9,2.37,2.66,2.96,3.56,14.15,21.4,34.52,28.02,58.81,23.99,29.27-4.86,52.77-20.9,74.1-40.41,35.64-32.59,60.53-72.35,77.03-117.57.44-1.21.92-2.41,2.27-3.61.08,1.66.22,3.33.22,4.99.01,51.52,0,103.03,0,154.55,0,17.49-8.4,25.81-26.05,25.81-43.99,0-87.99,0-131.98,0-11.12,0-22.25.07-33.37-.02-15.16-.12-23.98-9.12-24.01-24.34-.02-8.55,0-17.11,0-26.96Z"/><path style="stroke-width:0px;;fill:#f4e808;" d="M17.84,262.97c-.22-22.83,5.07-44.14,12.18-65.14,14.66-43.34,38.94-80.51,71.97-111.92,17.36-16.51,36.77-30,60.24-36.6,33.37-9.38,60.58,7.27,67.85,41.25,5.55,25.92,2.32,51.33-5.28,76.12-17,55.51-46.61,102.96-92.5,139.29-16.58,13.13-34.86,23.14-56.39,25.61-22.61,2.59-42.13-8.78-51.22-29.69-5.47-12.58-7.13-25.82-6.85-38.93Z"/><path style="stroke-width:0px;;fill:#f4e808;" d="M232.16,67.18c-1.54-1.9-2.18-2.58-2.68-3.34-14.21-21.58-34.65-28.39-59.18-24.22-30.32,5.16-54.41,22.08-76.25,42.53-34.47,32.28-58.74,71.29-74.76,115.58-.49,1.36-1.04,2.71-2.31,4.03-.08-1.53-.23-3.06-.23-4.58-.01-52.01-.01-104.03,0-156.04,0-16.61,8.58-25.29,25.05-25.3,55.11-.01,110.23-.01,165.34,0,16.45,0,25.01,8.7,25.02,25.32,0,8.21,0,16.41,0,26.01Z"/></g><path style="stroke-width:0px;;fill:#fff;" d="M109.77,161.71c-.34.24-.69.47-1.03.71-.44.26-.89.53-1.33.79-.28.13-.57.27-.85.4-.29.15-.58.3-.86.45-.82.41-1.63.81-2.45,1.22-.06-.04-.13-.08-.19-.12-.05.1-.09.21-.14.31-.53.22-1.06.45-1.59.67-.07-.04-.14-.07-.21-.1-.04.11-.08.22-.11.32-.63.22-1.26.43-1.89.65-.11-.02-.21-.03-.32-.04v.24c-.81.32-1.62.64-2.42.96-.11.07-.23.15-.34.22-.73.23-1.45.45-2.18.68-.56.07-1.12.15-1.94.26-.08-.89-.23-1.76-.24-2.63-.06-6.26-.09-12.52-.13-18.78.22-.17.44-.34.65-.5.45-.23.9-.46,1.35-.68.54-.15,1.08-.29,1.62-.44.13-.05.26-.1.39-.15.14-.13.29-.25.43-.38.11-.06.21-.13.32-.19.45-.13.9-.25,1.34-.38.21-.16.43-.32.64-.48.61-.34,1.22-.68,1.83-1.02.55-.16,1.16-.21,1.64-.49,8.03-4.68,15.57-10.04,21.21-17.8,1.4-1.92,2.34-4.21,3.5-6.33.5-.95,1.01-1.9,1.51-2.86.19-.18.38-.35.57-.53,6.27,0,12.54-.01,18.81-.02.23.59.64,1.18.66,1.78.08,1.91,0,3.84,0,5.75.01,38.14.03,76.28.02,114.41,0,1.84-.27,3.68-.41,5.51h-24.11c-.09-.74-.21-1.33-.21-1.92,0-28.28.03-56.56.03-84.84,0-1.09-.13-2.19-.2-3.28-.08-.29-.17-.58-.25-.86-.13.1-.25.2-.38.3-.27.2-.54.41-.8.61-.1,0-.2.02-.29.03.02.07.04.14.06.21-.38.3-.76.61-1.13.91-.19.19-.38.37-.57.56-.18.11-.35.22-.53.32-.2.18-.4.35-.6.53-.82.58-1.64,1.15-2.46,1.73-.19.19-.38.37-.58.56-.81.53-1.62,1.05-2.42,1.58-.29.23-.59.47-.88.7-.26.12-.53.24-.79.35-.11,0-.21-.01-.32-.02,0,.08,0,.16,0,.24-.35.24-.7.49-1.04.73-.12.04-.25.09-.37.13Z"/><path style="stroke-width:0px;" d="M114.55,247.3c-.14-.36-.17-.86-.43-1.06-1.77-1.4-1.95-3.31-1.95-5.36.02-23.49,0-46.99,0-70.48,0-.67-.13-1.35-.22-2.25-2.17,1.36-4,2.74-6.01,3.72-4.28,2.08-8.64,3.99-13.01,5.88-1.44.62-2.99,1.02-4.53,1.35-3.69.79-6.33-1.03-6.72-4.93-.28-2.78-.05-5.61-.1-8.42-.05-3-.28-6.01-.2-9.01.07-2.39.16-4.92,1.93-6.82,1.58-1.7,3.31-3.28,5.04-4.83.85-.76,1.86-1.33,2.33-1.66,2.75-1.09,5.09-1.83,7.26-2.93,5.13-2.59,10.13-5.45,14.07-9.72,1.58-1.71,3.05-3.76,3.84-5.92,1.34-3.67,3.87-6.32,6.68-8.65,2.33-1.93,5.04-3.26,8.42-3.07,4.94.28,9.91.08,14.86.07,5.15-.01,7.15,2.05,7.16,7.23.1,37.83.07,75.66.01,113.49,0,3-.93,5.55-3.89,7.4-2.3,1.44-3.93,3.94-5.86,5.97h-28.68ZM128.74,118.42c-.18.16-.36.33-.55.49-.49.88-.97,1.76-1.46,2.64-.67.96-1.35,1.91-2.01,2.88-4.32,6.44-9.98,11.46-16.54,15.53-2.29,1.42-4.56,2.87-6.84,4.31l-1.76.94c-.21.15-.41.3-.62.45l-1.29.35-.31.18-.41.35-.37.14c-.52.14-1.04.27-1.56.41-.43.21-.87.42-1.3.63-.21.15-.42.31-.63.46-.12.43-.35.86-.35,1.29-.02,4.77-.01,9.53-.01,14.3,0,1.4,0,2.81,0,4.84,1.09-.39,1.84-.65,2.58-.92l2.1-.63c.11-.07.22-.13.33-.2.78-.3,1.55-.59,2.33-.89l.31-.18c.61-.2,1.21-.4,1.82-.6.1-.07.21-.13.31-.2.51-.21,1.02-.41,1.53-.62.11-.06.21-.12.32-.18.79-.37,1.57-.75,2.36-1.12.28-.14.55-.28.83-.42.27-.12.55-.25.82-.37.43-.24.86-.49,1.28-.73.33-.22.66-.44,1-.66.12-.04.24-.08.35-.12l1.01-.67c.1-.07.2-.13.3-.2.25-.11.51-.22.76-.33.28-.22.57-.43.85-.65.78-.49,1.56-.97,2.33-1.46.18-.17.37-.34.55-.52.79-.53,1.58-1.06,2.37-1.59.19-.16.38-.32.57-.49.17-.1.34-.2.51-.3.18-.17.37-.34.55-.52.36-.28.73-.56,1.09-.84.07-.08.15-.15.22-.23.26-.19.52-.38.77-.56.2.17.41.34.61.52.07,1.01.2,2.02.2,3.02,0,26.09-.02,52.18-.03,78.27,0,.54.12,1.09.21,1.77h23.23c.29-.66.84-1.33.84-1.99.05-25.6.05-51.2.05-76.81,0-12.29.02-24.58-.05-36.88,0-.64-.73-1.28-1.12-1.91-6.04,0-12.08.01-18.12.02Z"/><path style="stroke-width:0px;;fill:#fff;" d="M43.98,48.08c-.16.11-.32.22-.49.33-.21.12-.42.25-.63.37-.13.06-.27.13-.4.19-.14.07-.27.14-.41.21-.38.19-.77.38-1.15.57-.03-.02-.06-.04-.09-.05-.02.05-.04.1-.07.15-.25.11-.5.21-.75.32-.03-.02-.07-.03-.1-.05-.02.05-.04.1-.05.15-.3.1-.59.2-.89.31-.05,0-.1-.01-.15-.02v.11c-.38.15-.76.3-1.14.45-.05.03-.11.07-.16.1-.34.11-.68.21-1.03.32-.26.04-.53.07-.91.12-.04-.42-.11-.83-.11-1.24-.03-2.95-.04-5.9-.06-8.85.1-.08.21-.16.31-.24.21-.11.42-.21.64-.32.25-.07.51-.14.76-.21.06-.02.12-.05.18-.07.07-.06.13-.12.2-.18.05-.03.1-.06.15-.09.21-.06.42-.12.63-.18.1-.08.2-.15.3-.23.29-.16.57-.32.86-.48.26-.07.55-.1.77-.23,3.78-2.2,7.33-4.73,9.99-8.38.66-.91,1.1-1.98,1.65-2.98.24-.45.48-.9.71-1.34.09-.08.18-.17.27-.25,2.95,0,5.91,0,8.86,0,.11.28.3.56.31.84.04.9,0,1.81,0,2.71,0,17.96.02,35.92.01,53.89,0,.87-.13,1.73-.19,2.6h-11.35c-.04-.35-.1-.62-.1-.9,0-13.32.01-26.64.01-39.96,0-.51-.06-1.03-.1-1.54-.04-.14-.08-.27-.12-.41-.06.05-.12.09-.18.14-.13.1-.25.19-.38.29-.05,0-.09,0-.14.02,0,.03.02.07.03.1-.18.14-.36.29-.53.43-.09.09-.18.18-.27.26-.08.05-.17.1-.25.15-.09.08-.19.17-.28.25-.39.27-.77.54-1.16.81-.09.09-.18.18-.27.26-.38.25-.76.5-1.14.74-.14.11-.28.22-.42.33-.12.06-.25.11-.37.17-.05,0-.1,0-.15,0,0,.04,0,.08,0,.11-.16.11-.33.23-.49.34-.06.02-.12.04-.17.06Z"/><path style="stroke-width:0px;" d="M46.23,88.39c-.06-.17-.08-.4-.2-.5-.83-.66-.92-1.56-.92-2.53,0-11.06,0-22.13,0-33.19,0-.32-.06-.64-.1-1.06-1.02.64-1.88,1.29-2.83,1.75-2.02.98-4.07,1.88-6.13,2.77-.68.29-1.41.48-2.13.64-1.74.37-2.98-.49-3.16-2.32-.13-1.31-.03-2.64-.05-3.97-.02-1.41-.13-2.83-.09-4.24.03-1.13.08-2.32.91-3.21.74-.8,1.56-1.54,2.37-2.27.4-.36.87-.63,1.1-.78,1.29-.51,2.4-.86,3.42-1.38,2.41-1.22,4.77-2.57,6.63-4.58.74-.81,1.44-1.77,1.81-2.79.63-1.73,1.82-2.98,3.15-4.08,1.1-.91,2.38-1.54,3.97-1.44,2.33.13,4.67.04,7,.03,2.42,0,3.37.96,3.37,3.41.05,17.82.03,35.63,0,53.45,0,1.41-.44,2.61-1.83,3.49-1.08.68-1.85,1.86-2.76,2.81h-13.51ZM52.91,27.69c-.09.08-.17.15-.26.23-.23.41-.46.83-.69,1.24-.32.45-.64.9-.94,1.36-2.04,3.03-4.7,5.4-7.79,7.31-1.08.67-2.15,1.35-3.22,2.03l-.83.44c-.1.07-.19.14-.29.21l-.61.17-.15.08-.19.17-.18.06c-.24.06-.49.13-.73.19-.2.1-.41.2-.61.3-.1.07-.2.15-.3.22-.06.2-.16.4-.16.61-.01,2.25,0,4.49,0,6.74,0,.66,0,1.32,0,2.28.51-.18.87-.31,1.22-.43l.99-.29c.05-.03.1-.06.15-.09.37-.14.73-.28,1.1-.42l.15-.08c.29-.09.57-.19.86-.28.05-.03.1-.06.15-.09.24-.1.48-.2.72-.29.05-.03.1-.06.15-.08.37-.18.74-.35,1.11-.53.13-.07.26-.13.39-.2.13-.06.26-.12.39-.17.2-.11.4-.23.6-.34.16-.1.31-.21.47-.31.06-.02.11-.04.17-.06l.47-.32s.1-.06.14-.1c.12-.05.24-.1.36-.15.13-.1.27-.2.4-.31.37-.23.73-.46,1.1-.69.09-.08.17-.16.26-.24.37-.25.74-.5,1.12-.75.09-.08.18-.15.27-.23.08-.05.16-.09.24-.14.09-.08.17-.16.26-.24.17-.13.34-.26.51-.4.04-.04.07-.07.11-.11.12-.09.24-.18.36-.27.1.08.19.16.29.24.03.47.09.95.09,1.42,0,12.29-.01,24.57-.01,36.86,0,.26.06.51.1.83h10.94c.14-.31.4-.63.4-.94.02-12.06.02-24.12.02-36.17,0-5.79,0-11.58-.02-17.37,0-.3-.34-.6-.53-.9-2.84,0-5.69,0-8.53,0Z"/><path style="stroke-width:0px;;fill:#fff;" d="M204.02,331.92c.16-.11.32-.22.49-.33.21-.12.42-.25.63-.37.13-.06.27-.13.4-.19.14-.07.27-.14.41-.21.38-.19.77-.38,1.15-.57.03.02.06.04.09.05.02-.05.04-.1.07-.15.25-.11.5-.21.75-.32.03.02.07.03.1.05.02-.05.04-.1.05-.15.3-.1.59-.2.89-.31.05,0,.1.01.15.02v-.11c.38-.15.76-.3,1.14-.45.05-.03.11-.07.16-.1.34-.11.68-.21,1.03-.32.26-.04.53-.07.91-.12.04.42.11.83.11,1.24.03,2.95.04,5.9.06,8.85-.1.08-.21.16-.31.24-.21.11-.42.21-.64.32-.25.07-.51.14-.76.21-.06.02-.12.05-.18.07-.07.06-.13.12-.2.18-.05.03-.1.06-.15.09-.21.06-.42.12-.63.18-.1.08-.2.15-.3.23-.29.16-.57.32-.86.48-.26.07-.55.1-.77.23-3.78,2.2-7.33,4.73-9.99,8.38-.66.91-1.1,1.98-1.65,2.98-.24.45-.48.9-.71,1.34-.09.08-.18.17-.27.25-2.95,0-5.91,0-8.86,0-.11-.28-.3-.56-.31-.84-.04-.9,0-1.81,0-2.71,0-17.96-.02-35.92-.01-53.89,0-.87.13-1.73.19-2.6,3.76,0,7.51,0,11.35,0,.04.35.1.62.1.9,0,13.32-.01,26.64-.01,39.96,0,.51.06,1.03.1,1.54.04.14.08.27.12.41.06-.05.12-.09.18-.14.13-.1.25-.19.38-.29.05,0,.09,0,.14-.02,0-.03-.02-.07-.03-.1.18-.14.36-.29.53-.43.09-.09.18-.18.27-.26.08-.05.17-.1.25-.15.09-.08.19-.17.28-.25.39-.27.77-.54,1.16-.81.09-.09.18-.18.27-.26.38-.25.76-.5,1.14-.74.14-.11.28-.22.42-.33.12-.06.25-.11.37-.17.05,0,.1,0,.15,0,0-.04,0-.08,0-.11.16-.11.33-.23.49-.34.06-.02.12-.04.17-.06Z"/><path style="stroke-width:0px;" d="M201.77,291.61c.06.17.08.4.2.5.83.66.92,1.56.92,2.53,0,11.06,0,22.13,0,33.19,0,.32.06.64.1,1.06,1.02-.64,1.88-1.29,2.83-1.75,2.02-.98,4.07-1.88,6.13-2.77.68-.29,1.41-.48,2.13-.64,1.74-.37,2.98.49,3.16,2.32.13,1.31.03,2.64.05,3.97.02,1.41.13,2.83.09,4.24-.03,1.13-.08,2.32-.91,3.21-.74.8-1.56,1.54-2.37,2.27-.4.36-.87.63-1.1.78-1.29.51-2.4.86-3.42,1.38-2.41,1.22-4.77,2.57-6.63,4.58-.74.81-1.44,1.77-1.81,2.79-.63,1.73-1.82,2.98-3.15,4.08-1.1.91-2.38,1.54-3.97,1.44-2.33-.13-4.67-.04-7-.03-2.42,0-3.37-.96-3.37-3.41-.05-17.82-.03-35.63,0-53.45,0-1.41.44-2.61,1.83-3.49,1.08-.68,1.85-1.86,2.76-2.81h13.51ZM195.09,352.31c.09-.08.17-.15.26-.23.23-.41.46-.83.69-1.24.32-.45.64-.9.94-1.36,2.04-3.03,4.7-5.4,7.79-7.31,1.08-.67,2.15-1.35,3.22-2.03l.83-.44c.1-.07.19-.14.29-.21l.61-.17.15-.08.19-.17.18-.06c.24-.06.49-.13.73-.19.2-.1.41-.2.61-.3.1-.07.2-.15.3-.22.06-.2.16-.4.16-.61.01-2.25,0-4.49,0-6.74,0-.66,0-1.32,0-2.28-.51.18-.87.31-1.22.43l-.99.29c-.05.03-.1.06-.15.09-.37.14-.73.28-1.1.42l-.15.08c-.29.09-.57.19-.86.28-.05.03-.1.06-.15.09-.24.1-.48.2-.72.29-.05.03-.1.06-.15.08-.37.18-.74.35-1.11.53-.13.07-.26.13-.39.2-.13.06-.26.12-.39.17-.2.11-.4.23-.6.34-.16.1-.31.21-.47.31-.06.02-.11.04-.17.06l-.47.32s-.1.06-.14.1c-.12.05-.24.1-.36.15-.13.1-.27.2-.4.31-.37.23-.73.46-1.1.69-.09.08-.17.16-.26.24-.37.25-.74.5-1.12.75-.09.08-.18.15-.27.23-.08.05-.16.09-.24.14-.09.08-.17.16-.26.24-.17.13-.34.26-.51.4-.04.04-.07.07-.11.11-.12.09-.24.18-.36.27-.1-.08-.19-.16-.29-.24-.03-.47-.09-.95-.09-1.42,0-12.29.01-24.57.01-36.86,0-.26-.06-.51-.1-.83-3.7,0-7.32,0-10.94,0-.14.31-.4.63-.4.94-.02,12.06-.02,24.12-.02,36.17,0,5.79,0,11.58.02,17.37,0,.3.34.6.53.9,2.84,0,5.69,0,8.53,0Z"/></g></svg>