<?xml version="1.0" encoding="UTF-8"?><svg id="Layer_2" xmlns="http://www.w3.org/2000/svg" viewBox="0 0 248 380"><defs><style>.cls-1,.cls-2,.cls-3{stroke-width:0px;}.cls-2{fill:#fff;}.cls-3{fill:#f4e808;}</style></defs><g id="_2"><g id="Base_Yellow"><rect style="stroke-width:0px;;fill:#fff;" x="0" y="0" width="248" height="380" rx="24.66" ry="24.66" transform="translate(248 380) rotate(-180)"/><path style="stroke-width:0px;;fill:#f4e808;" d="M16.75,311.85c1.59,1.9,2.37,2.66,2.96,3.56,14.15,21.4,34.52,28.02,58.81,23.99,29.27-4.86,52.77-20.9,74.1-40.41,35.64-32.59,60.53-72.35,77.03-117.57.44-1.21.92-2.41,2.27-3.61.08,1.66.22,3.33.22,4.99.01,51.52,0,103.03,0,154.55,0,17.49-8.4,25.81-26.05,25.81-43.99,0-87.99,0-131.98,0-11.12,0-22.25.07-33.37-.02-15.16-.12-23.98-9.12-24.01-24.34-.02-8.55,0-17.11,0-26.96Z"/><path style="stroke-width:0px;;fill:#f4e808;" d="M17.84,262.97c-.22-22.83,5.07-44.14,12.18-65.14,14.66-43.34,38.94-80.51,71.97-111.92,17.36-16.51,36.77-30,60.24-36.6,33.37-9.38,60.58,7.27,67.85,41.25,5.55,25.92,2.32,51.33-5.28,76.12-17,55.51-46.61,102.96-92.5,139.29-16.58,13.13-34.86,23.14-56.39,25.61-22.61,2.59-42.13-8.78-51.22-29.69-5.47-12.58-7.13-25.82-6.85-38.93Z"/><path style="stroke-width:0px;;fill:#f4e808;" d="M232.16,67.18c-1.54-1.9-2.18-2.58-2.68-3.34-14.21-21.58-34.65-28.39-59.18-24.22-30.32,5.16-54.41,22.08-76.25,42.53-34.47,32.28-58.74,71.29-74.76,115.58-.49,1.36-1.04,2.71-2.31,4.03-.08-1.53-.23-3.06-.23-4.58-.01-52.01-.01-104.03,0-156.04,0-16.61,8.58-25.29,25.05-25.3,55.11-.01,110.23-.01,165.34,0,16.45,0,25.01,8.7,25.02,25.32,0,8.21,0,16.41,0,26.01Z"/></g><path style="stroke-width:0px;" d="M144.37,203.83c-2.25,2-10.89,7.98-12.45,10.57l45.13.21v27.81l-11.58,10.25-94.52-.47c.23-9,6.07-31.08,13.31-38.7,6.25-6.58,12.28-14.46,24.19-25.08,10.88-9.7,15.94-11.55,19.29-15.07,5.14-5.48,4.78-7.73,5.2-9.49,1.25-5.18,1.96-5.52-.42-8.29-3-3.47-3.15-4.09-8.06-3.34-7.17,1.1-6.75,3.72-8.52,5.01-2.35,3.8-1.1,1.03-3.48,8.51l-39.37,1.03c.4-10.68,11.62-29.46,17.75-35.75,12.52-10.91,23.04-13.7,39.83-13.7,13.27,0,25.33,8.51,33.18,15.87s8.8,20.72,8.39,33.04c-.3,9.11-6.23,17.45-13.75,23.71-5.36,4.87-12.5,13.41-20.81,19.3"/><path style="stroke-width:0px;;fill:#fff;" d="M139.58,148.19c-2.94-3.52-8.59-3.91-14.07-3.91-7.5,0-9.02,2.87-10.79,4.16-1.56,3.23-3.81,4.16-4.1,11.2h-23.98c.4-10.68,6.78-18.15,10.24-24.73,12.52-10.91,16.83-12.72,33.63-12.72,13.27,0,18.29,4.42,26.14,11.78s9.27,11.73,8.86,24.06c-.3,9.11.4,14.18-5.14,21.39-3.64,4.79-7.33,10.69-15.64,16.58l-9.87,7.01c-6.17,4.39-10.4,7.56-12.68,9.52-2.28,1.96-4.2,4.24-5.76,6.84h54.79v21.73h-85.95c.23-9-.72-10.46,2.49-18.71s15.14-23.19,28.24-32.54c11.37-8.14,16.35-11.68,19.69-15.2,5.14-5.48,6.9-7.55,6.9-14.07,0-5.31-.06-8.87-3.01-12.39Z"/><path style="stroke-width:0px;" d="M60.89,65.7c-1.04.92-5.04,3.69-5.76,4.89l20.87.1v12.86l-5.35,4.74-43.7-.22c.11-4.16,2.81-14.37,6.15-17.89,2.89-3.04,5.68-6.69,11.18-11.6,5.03-4.48,7.37-5.34,8.92-6.97,2.37-2.53,2.21-3.57,2.41-4.39.58-2.39.91-2.55-.19-3.83-1.38-1.61-1.45-1.89-3.73-1.54-3.31.51-3.12,1.72-3.94,2.32-1.09,1.76-.51.48-1.61,3.93l-18.2.47c.19-4.94,5.37-13.62,8.21-16.53,5.79-5.04,10.65-6.34,18.42-6.34,6.14,0,11.71,3.94,15.34,7.34s4.07,9.58,3.88,15.28c-.14,4.21-2.88,8.07-6.36,10.96-2.48,2.25-5.78,6.2-9.62,8.92"/><path style="stroke-width:0px;;fill:#fff;" d="M58.67,39.97c-1.36-1.63-3.97-1.81-6.51-1.81-3.47,0-4.17,1.32-4.99,1.92-.72,1.49-1.76,1.92-1.89,5.18h-11.09c.19-4.94,3.14-8.39,4.74-11.43,5.79-5.04,7.78-5.88,15.55-5.88,6.14,0,8.46,2.04,12.09,5.45s4.28,5.43,4.1,11.13c-.14,4.21.18,6.55-2.38,9.89-1.68,2.22-3.39,4.94-7.23,7.67l-4.56,3.24c-2.85,2.03-4.81,3.5-5.86,4.4-1.05.91-1.94,1.96-2.66,3.16h25.33v10.05h-39.74c.11-4.16-.33-4.84,1.15-8.65s7-10.72,13.06-15.04c5.26-3.76,7.56-5.4,9.11-7.03,2.37-2.53,3.19-3.49,3.19-6.5,0-2.45-.03-4.1-1.39-5.73Z"/><path style="stroke-width:0px;" d="M187.11,314.3c1.04-.92,5.04-3.69,5.76-4.89l-20.87-.1v-12.86s5.35-4.74,5.35-4.74l43.7.22c-.11,4.16-2.81,14.37-6.15,17.89-2.89,3.04-5.68,6.69-11.18,11.6-5.03,4.48-7.37,5.34-8.92,6.97-2.37,2.53-2.21,3.57-2.41,4.39-.58,2.39-.91,2.55.19,3.83,1.38,1.61,1.45,1.89,3.73,1.54,3.31-.51,3.12-1.72,3.94-2.32,1.09-1.76.51-.48,1.61-3.93l18.2-.47c-.19,4.94-5.37,13.62-8.21,16.53-5.79,5.04-10.65,6.34-18.42,6.34-6.14,0-11.71-3.94-15.34-7.34s-4.07-9.58-3.88-15.28c.14-4.21,2.88-8.07,6.36-10.96,2.48-2.25,5.78-6.2,9.62-8.92"/><path style="stroke-width:0px;;fill:#fff;" d="M189.33,340.03c1.36,1.63,3.97,1.81,6.51,1.81,3.47,0,4.17-1.32,4.99-1.92.72-1.49,1.76-1.92,1.89-5.18h11.09c-.19,4.94-3.14,8.39-4.74,11.43-5.79,5.04-7.78,5.88-15.55,5.88-6.14,0-8.46-2.04-12.09-5.45s-4.28-5.43-4.1-11.13c.14-4.21-.18-6.55,2.38-9.89,1.68-2.22,3.39-4.94,7.23-7.67l4.56-3.24c2.85-2.03,4.81-3.5,5.86-4.4,1.05-.91,1.94-1.96,2.66-3.16h-25.33v-10.05h39.74c-.11,4.16.33,4.84-1.15,8.65-1.52,3.91-7,10.72-13.06,15.04-5.26,3.76-7.56,5.4-9.11,7.03-2.37,2.53-3.19,3.49-3.19,6.5,0,2.45.03,4.1,1.39,5.73Z"/></g></svg>