<?xml version="1.0" encoding="UTF-8"?><svg id="Layer_2" xmlns="http://www.w3.org/2000/svg" viewBox="0 0 248 380"><defs><style>.cls-1,.cls-2,.cls-3,.cls-4{stroke-width:0px;}.cls-2{fill:#084aa3;}.cls-3{fill:#fff;}.cls-4{fill:#f4e808;}</style></defs><g id="_3"><g id="Base_Yellow"><rect style="stroke-width:0px;;fill:#fff;" x="0" y="0" width="248" height="380" rx="24.66" ry="24.66" transform="translate(248 380) rotate(-180)"/><path style="stroke-width:0px;;fill:#f4e808;" d="M16.75,311.85c1.59,1.9,2.37,2.66,2.96,3.56,14.15,21.4,34.52,28.02,58.81,23.99,29.27-4.86,52.77-20.9,74.1-40.41,35.64-32.59,60.53-72.35,77.03-117.57.44-1.21.92-2.41,2.27-3.61.08,1.66.22,3.33.22,4.99.01,51.52,0,103.03,0,154.55,0,17.49-8.4,25.81-26.05,25.81-43.99,0-87.99,0-131.98,0-11.12,0-22.25.07-33.37-.02-15.16-.12-23.98-9.12-24.01-24.34-.02-8.55,0-17.11,0-26.96Z"/><path style="stroke-width:0px;;fill:#f4e808;" d="M17.84,262.97c-.22-22.83,5.07-44.14,12.18-65.14,14.66-43.34,38.94-80.51,71.97-111.92,17.36-16.51,36.77-30,60.24-36.6,33.37-9.38,60.58,7.27,67.85,41.25,5.55,25.92,2.32,51.33-5.28,76.12-17,55.51-46.61,102.96-92.5,139.29-16.58,13.13-34.86,23.14-56.39,25.61-22.61,2.59-42.13-8.78-51.22-29.69-5.47-12.58-7.13-25.82-6.85-38.93Z"/><path style="stroke-width:0px;;fill:#f4e808;" d="M232.16,67.18c-1.54-1.9-2.18-2.58-2.68-3.34-14.21-21.58-34.65-28.39-59.18-24.22-30.32,5.16-54.41,22.08-76.25,42.53-34.47,32.28-58.74,71.29-74.76,115.58-.49,1.36-1.04,2.71-2.31,4.03-.08-1.53-.23-3.06-.23-4.58-.01-52.01-.01-104.03,0-156.04,0-16.61,8.58-25.29,25.05-25.3,55.11-.01,110.23-.01,165.34,0,16.45,0,25.01,8.7,25.02,25.32,0,8.21,0,16.41,0,26.01Z"/></g><g id="Base_Blue"><rect style="stroke-width:0px;;fill:#fff;" x="0" y="0" width="248" height="380" rx="24.66" ry="24.66" transform="translate(248 380) rotate(-180)"/><path style="stroke-width:0px;;fill:#084aa3;" d="M16.75,311.85c1.59,1.9,2.37,2.66,2.96,3.56,14.15,21.4,34.52,28.02,58.81,23.99,29.27-4.86,52.77-20.9,74.1-40.41,35.64-32.59,60.53-72.35,77.03-117.57.44-1.21.92-2.41,2.27-3.61.08,1.66.22,3.33.22,4.99.01,51.52,0,103.03,0,154.55,0,17.49-8.4,25.81-26.05,25.81-43.99,0-87.99,0-131.98,0-11.12,0-22.25.07-33.37-.02-15.16-.12-23.98-9.12-24.01-24.34-.02-8.55,0-17.11,0-26.96Z"/><path style="stroke-width:0px;;fill:#084aa3;" d="M17.84,262.97c-.22-22.83,5.07-44.14,12.18-65.14,14.66-43.34,38.94-80.51,71.97-111.92,17.36-16.51,36.77-30,60.24-36.6,33.37-9.38,60.58,7.27,67.85,41.25,5.55,25.92,2.32,51.33-5.28,76.12-17,55.51-46.61,102.96-92.5,139.29-16.58,13.13-34.86,23.14-56.39,25.61-22.61,2.59-42.13-8.78-51.22-29.69-5.47-12.58-7.13-25.82-6.85-38.93Z"/><path style="stroke-width:0px;;fill:#084aa3;" d="M232.16,67.18c-1.54-1.9-2.18-2.58-2.68-3.34-14.21-21.58-34.65-28.39-59.18-24.22-30.32,5.16-54.41,22.08-76.25,42.53-34.47,32.28-58.74,71.29-74.76,115.58-.49,1.36-1.04,2.71-2.31,4.03-.08-1.53-.23-3.06-.23-4.58-.01-52.01-.01-104.03,0-156.04,0-16.61,8.58-25.29,25.05-25.3,55.11-.01,110.23-.01,165.34,0,16.45,0,25.01,8.7,25.02,25.32,0,8.21,0,16.41,0,26.01Z"/></g><path style="stroke-width:0px;" d="M118.83,126.05c-6.92,0-13,.21-18.5,2-5.66,1.84-8.36,4.24-9.62,5.3-1.65,1.39-3.61,2.53-8.53,9.49-3.74,5.3-3.22,11.48-2.45,18.1h21.15c-.12-6.79,1.79-8.64,4.75-12.7,2.91-4.06,7.48-6.09,13.72-6.09,5.44,0,9.66,1.65,12.66,4.95,3,3.3,4.01,4.01,4.01,9.28,0,8.12-2.94,13.51-8.81,16.18-3.4,1.59-9.4,2.44-17.99,2.57v19.41c8.78,0,15.21.86,19.29,2.57,7.17,3.05,11.5,9.13,10.76,18.18-.46,5.59-1.03,8.53-4.89,12.18-3.86,3.65-8.39,5.47-13.59,5.47-8.47,0-14.31-3.33-17.53-9.99-1.73-3.62-3.5-4.61-3.5-10.13h-22.15c.43,10.98,2.86,17.14,6.76,23.92,10.33,11.14,13.93,14.78,34.46,15.2.23,0,.46,0,.69,0,15.17,0,28.8-10.18,32.83-13.94,2.39-2.24,12.09-11.03,12.7-24.06.49-10.48.28-14.09-5.48-22.78-4.51-4.25-7.62-6.02-13.25-9.28,2.88-2.91,4.06-5.53,7.38-10.55,3.81-6.52,5.26-9.52,4.84-17.63-.62-11.97-2.48-12.62-9.98-18.42-8.24-6.38-16.87-9.22-29.73-9.22h0Z"/><path style="stroke-width:0px;;fill:#fff;" d="M126.87,245.11c-20.66-.42-24.38-4.44-34.33-15.15l-.15-.17-.11-.2c-3.83-6.68-6.29-12.98-6.71-23.76l-.08-2.08h25.23v2c0,3.33.71,4.52,1.78,6.32.42.7.9,1.5,1.37,2.5,2.73,5.65,7.61,8.4,14.93,8.4,4.47,0,8.26-1.53,11.6-4.68,3.17-2.99,3.63-5.21,4.05-10.34.6-7.27-2.54-12.58-9.06-15.35-3.62-1.52-9.56-2.29-17.64-2.29h-2v-22.51l1.97-.03c7.88-.12,13.39-.88,16.36-2.27,4.89-2.22,7.26-6.68,7.26-13.64,0-3.9-.42-4.36-2.74-6.88l-.57-.63c-2.49-2.74-5.96-4.07-10.61-4.07-5.33,0-9.08,1.63-11.48,4.98-.28.38-.54.73-.79,1.07-2.31,3.11-3.47,4.67-3.38,9.86l.04,2.04h-24.02l-.21-1.77c-.66-5.68-1.48-12.75,2.7-18.67,4.26-6.04,6.37-7.73,7.91-8.97.2-.16.39-.31.58-.47l.15-.13c1.35-1.14,4.15-3.5,9.7-5.31,5.7-1.85,11.9-2,18.29-2,12.4,0,21.26,2.76,29.61,9.23l1.3,1c6.66,5.11,8.43,6.91,9.01,18.07.44,8.41-1.28,11.75-4.89,17.94l-.06.09c-.93,1.41-1.69,2.62-2.36,3.7-1.15,1.84-2.07,3.33-3.23,4.77,4.14,2.42,7.04,4.27,10.9,7.9l.17.16.13.19c5.9,8.9,6.04,12.84,5.57,22.95-.4,8.63-4.64,16.78-12.61,24.21l-.15.13c-.6.57-15.02,13.85-32.71,13.85-.23,0-.47,0-.7,0Z"/><path style="stroke-width:0px;" d="M126.91,122.91c12.28,0,20.52,2.72,28.39,8.81,7.16,5.55,8.94,6.16,9.53,17.59.4,7.75-.99,10.6-4.62,16.83-3.17,4.8-4.3,7.29-7.04,10.08,5.37,3.11,8.34,4.8,12.65,8.86,5.5,8.3,5.7,11.75,5.24,21.75-.58,12.45-9.84,20.84-12.13,22.98-3.84,3.59-16.86,13.31-31.35,13.31-.22,0-.44,0-.66,0-19.6-.4-23.04-3.88-32.9-14.51-3.72-6.48-6.04-12.36-6.45-22.85h21.15c0,5.27,1.69,6.22,3.34,9.68,3.07,6.36,8.65,9.54,16.74,9.54,4.96,0,9.28-1.74,12.97-5.23,3.69-3.48,4.23-6.29,4.67-11.63.71-8.63-3.42-14.45-10.27-17.36-3.9-1.64-10.04-2.45-18.42-2.45v-18.54c8.2-.12,13.93-.94,17.18-2.45,5.61-2.54,8.41-7.69,8.41-15.45,0-5.03-.96-5.71-3.83-8.86-2.86-3.15-6.89-4.73-12.09-4.73-5.96,0-10.33,1.94-13.11,5.82-2.83,3.88-4.66,5.65-4.54,12.13h-20.2c-.73-6.32-1.23-12.23,2.34-17.29,4.69-6.65,6.57-7.74,8.14-9.06,1.2-1.01,3.78-3.31,9.18-5.06,5.25-1.71,11.06-1.91,17.67-1.91M126.91,118.91c-6.55,0-12.93.16-18.9,2.1-5.92,1.93-8.93,4.46-10.37,5.68l-.15.12c-.18.15-.36.29-.54.44-1.63,1.31-3.87,3.1-8.29,9.37-4.62,6.54-3.75,14.04-3.05,20.05l.41,3.54h27.84l-.07-4.07c-.08-4.51.75-5.63,2.98-8.63.25-.34.52-.69.79-1.06,2.02-2.82,5.24-4.18,9.88-4.18,4.05,0,7.04,1.12,9.13,3.42l.58.63c2.13,2.32,2.21,2.41,2.21,5.53,0,8.12-3.46,10.62-6.06,11.81-1.91.89-6.12,1.96-15.59,2.1l-3.94.06v26.48h4c9.73,0,14.54,1.16,16.87,2.14,5.72,2.43,8.36,6.92,7.83,13.34-.41,5.03-.86,6.62-3.43,9.05-2.94,2.78-6.29,4.13-10.23,4.13-6.56,0-10.74-2.31-13.13-7.28-.51-1.06-1.01-1.9-1.45-2.64-1.03-1.73-1.5-2.51-1.5-5.29v-4h-29.31l.16,4.16c.44,11.19,3,17.74,6.98,24.68l.23.4.31.33c10.82,11.66,15.22,15.37,35.75,15.79.25,0,.5,0,.74,0,18.47,0,33.45-13.8,34.08-14.39l.14-.13c8.36-7.8,12.82-16.41,13.25-25.58.5-10.77.15-15.02-5.9-24.15l-.26-.39-.34-.32c-3.39-3.19-6.04-5.05-9.35-7.04.67-.98,1.31-2,2.01-3.12.66-1.06,1.41-2.27,2.33-3.65l.06-.09.06-.1c3.71-6.36,5.63-10.1,5.16-19.06-.62-11.97-2.85-14.23-9.79-19.56-.41-.31-.84-.64-1.29-.99-8.73-6.76-17.95-9.65-30.84-9.65h0Z"/><polygon style="stroke-width:0px;" points="77.62 212.81 83 201.47 86.45 219.85 77.62 212.81"/><polygon style="stroke-width:0px;" points="109.23 175.12 113.58 165.6 116.39 177.55 109.23 175.12"/><polygon style="stroke-width:0px;" points="100.89 160.94 113.98 160.3 105.63 158.13 99.45 158.53 100.89 160.94"/><path style="stroke-width:0px;" d="M49.53,31.27c-2.99,0-5.61.09-7.98.86-2.44.79-3.6,1.83-4.15,2.29-.71.6-1.56,1.09-3.68,4.09-1.61,2.28-1.39,4.95-1.06,7.81h9.13c-.05-2.93.77-3.73,2.05-5.48,1.25-1.75,3.23-2.63,5.92-2.63,2.35,0,4.17.71,5.46,2.13,1.29,1.42,1.73,1.73,1.73,4,0,3.5-1.27,5.83-3.8,6.98-1.47.68-4.05,1.05-7.76,1.11v8.37c3.79,0,6.56.37,8.32,1.11,3.09,1.31,4.96,3.94,4.64,7.84-.2,2.41-.44,3.68-2.11,5.25-1.67,1.57-3.62,2.36-5.86,2.36-3.65,0-6.17-1.44-7.56-4.31-.75-1.56-1.51-1.99-1.51-4.37h-9.56c.19,4.74,1.23,7.39,2.91,10.32,4.46,4.8,6.01,6.37,14.86,6.56.1,0,.2,0,.3,0,6.55,0,12.43-4.39,14.16-6.01,1.03-.96,5.22-4.76,5.48-10.38.21-4.52.12-6.08-2.36-9.83-1.95-1.83-3.29-2.6-5.71-4,1.24-1.26,1.75-2.39,3.18-4.55,1.64-2.81,2.27-4.1,2.09-7.6-.27-5.16-1.07-5.44-4.31-7.95-3.55-2.75-7.28-3.98-12.82-3.98h0Z"/><path style="stroke-width:0px;;fill:#fff;" d="M53,82.76c-8.56-.18-10.4-1.72-14.91-6.58l-.08-.08-.06-.1c-1.66-2.9-2.73-5.63-2.91-10.31l-.04-1.04h11.17v1c0,1.4.28,1.87.75,2.65.19.32.39.66.6,1.09,1.15,2.39,3.22,3.55,6.32,3.55,1.89,0,3.5-.65,4.91-1.98,1.33-1.26,1.53-2.2,1.7-4.37.25-3.07-1.07-5.31-3.83-6.48-1.55-.65-4.09-.98-7.55-.98h-1v-9.98h.98c3.38-.06,5.74-.39,7-.98,2.06-.93,3.05-2.82,3.05-5.76,0-1.63-.15-1.8-1.14-2.88l-.25-.27c-1.05-1.15-2.51-1.71-4.47-1.71-2.25,0-3.83.68-4.84,2.09l-.34.46c-.98,1.32-1.47,1.98-1.43,4.17l.02,1.02h-10.62l-.1-.88c-.29-2.47-.65-5.55,1.19-8.15,1.85-2.62,2.77-3.36,3.44-3.9l.25-.2c.65-.55,1.87-1.58,4.3-2.37,2.48-.8,5.16-.87,7.93-.87,5.38,0,9.23,1.2,12.86,4.01l.56.43c2.92,2.24,3.69,3.02,3.94,7.9.19,3.67-.56,5.12-2.13,7.82-.43.65-.76,1.18-1.04,1.64-.46.75-.85,1.36-1.31,1.95,1.75,1.02,2.97,1.83,4.59,3.35l.08.08.06.1c2.57,3.87,2.63,5.59,2.42,9.98-.17,3.76-2.02,7.31-5.48,10.54-.32.3-6.58,6.07-14.27,6.07h-.31Z"/><path style="stroke-width:0px;" d="M53.02,29.91c5.3,0,8.85,1.17,12.25,3.8,3.09,2.39,3.86,2.66,4.11,7.59.17,3.34-.43,4.57-1.99,7.26-1.37,2.07-1.85,3.15-3.04,4.35,2.32,1.34,3.6,2.07,5.46,3.82,2.37,3.58,2.46,5.07,2.26,9.38-.25,5.37-4.25,8.99-5.23,9.91-1.66,1.55-7.27,5.74-13.52,5.74-.1,0-.19,0-.29,0-8.45-.17-9.94-1.67-14.19-6.26-1.6-2.8-2.61-5.33-2.78-9.86h9.13c0,2.27.73,2.68,1.44,4.17,1.32,2.74,3.73,4.12,7.22,4.12,2.14,0,4-.75,5.6-2.25,1.59-1.5,1.83-2.72,2.01-5.02.31-3.72-1.48-6.23-4.43-7.49-1.68-.71-4.33-1.06-7.95-1.06v-8c3.54-.05,6.01-.41,7.41-1.06,2.42-1.1,3.63-3.32,3.63-6.66,0-2.17-.42-2.46-1.65-3.82-1.24-1.36-2.97-2.04-5.21-2.04-2.57,0-4.46.84-5.65,2.51-1.22,1.67-2.01,2.44-1.96,5.23h-8.71c-.32-2.73-.53-5.28,1.01-7.46,2.02-2.87,2.83-3.34,3.51-3.91.52-.44,1.63-1.43,3.96-2.18,2.27-.74,4.77-.82,7.62-.82M53.02,27.91c-2.85,0-5.62.07-8.24.92-2.61.85-3.93,1.96-4.57,2.5l-.06.05c-.07.06-.15.12-.23.19-.72.58-1.7,1.36-3.63,4.1-2.05,2.91-1.67,6.2-1.36,8.84l.21,1.77h12.53l-.04-2.04c-.03-1.85.29-2.28,1.23-3.55.11-.15.22-.3.34-.46.53-.73,1.5-1.69,4.04-1.69,1.67,0,2.89.45,3.73,1.38l.25.27q.88.96.88,2.2c0,3.34-1.4,4.36-2.46,4.84-.8.37-2.58.82-6.61.88l-1.97.03v11.97h2c4.15,0,6.19.49,7.17.9,2.35,1,3.43,2.84,3.21,5.48-.17,2.08-.33,2.72-1.39,3.73-1.22,1.15-2.6,1.71-4.22,1.71-2.71,0-4.44-.95-5.42-2.98-.22-.47-.45-.85-.64-1.16-.43-.72-.61-1.02-.61-2.14v-2h-13.21l.08,2.08c.19,4.88,1.31,7.74,3.05,10.77l.11.2.16.17c4.62,4.98,6.68,6.72,15.62,6.9.11,0,.22,0,.33,0,8.08,0,14.62-6.02,14.89-6.28l.06-.06c3.66-3.42,5.61-7.19,5.8-11.22.21-4.62.05-6.6-2.59-10.58l-.13-.19-.17-.16c-1.4-1.31-2.5-2.11-3.83-2.92.23-.35.46-.72.71-1.12.28-.46.6-.97,1-1.57l.03-.05.03-.05c1.63-2.79,2.47-4.43,2.26-8.37-.27-5.27-1.33-6.34-4.33-8.64l-.55-.43c-3.82-2.96-7.85-4.22-13.47-4.22h0Z"/><polygon style="stroke-width:0px;" points="45.39 52.43 47.1 48.05 48.18 52.3 45.39 52.43"/><polygon style="stroke-width:0px;" points="31.76 68.69 33.86 63.69 35.24 69.62 31.76 68.69"/><path style="stroke-width:0px;" d="M198.17,294.43c-6.55,0-12.43,4.39-14.16,6.01-1.03.96-5.22,4.76-5.48,10.38-.21,4.52-.12,6.08,2.36,9.83,1.95,1.83,3.29,2.6,5.71,4-1.24,1.26-1.75,2.39-3.18,4.55-1.64,2.81-2.27,4.1-2.09,7.6.27,5.16,1.07,5.44,4.31,7.95,3.55,2.75,7.28,3.98,12.82,3.98,2.99,0,5.61-.09,7.98-.86,2.44-.79,3.6-1.83,4.15-2.29.71-.6,1.56-1.09,3.68-4.09,1.61-2.28,1.39-4.95,1.06-7.81h-9.13c.05,2.93-.77,3.73-2.05,5.48-1.25,1.75-3.23,2.63-5.92,2.63-2.35,0-4.17-.71-5.46-2.13-1.29-1.42-1.73-1.73-1.73-4,0-3.5,1.27-5.83,3.8-6.98,1.47-.68,4.05-1.05,7.76-1.11v-8.37c-3.79,0-6.56-.37-8.32-1.11-3.09-1.31-4.96-3.94-4.64-7.84.2-2.41.44-3.68,2.11-5.25,1.67-1.57,3.62-2.36,5.86-2.36,3.65,0,6.17,1.44,7.56,4.31.75,1.56,1.51,1.99,1.51,4.37h9.56c-.19-4.74-1.23-7.39-2.91-10.32-4.46-4.8-6.01-6.37-14.86-6.56-.1,0-.2,0-.3,0h0Z"/><path style="stroke-width:0px;;fill:#fff;" d="M194.98,351.09c-5.38,0-9.23-1.2-12.86-4.01l-.56-.43c-2.92-2.24-3.69-3.02-3.94-7.9-.19-3.67.56-5.12,2.13-7.82.43-.65.75-1.17,1.04-1.64.47-.75.85-1.36,1.31-1.95-1.75-1.02-2.97-1.83-4.59-3.35l-.08-.08-.06-.1c-2.57-3.87-2.63-5.59-2.42-9.98.17-3.76,2.02-7.31,5.49-10.54.33-.3,6.58-6.07,14.27-6.07h.31c8.56.18,10.4,1.72,14.91,6.58l.08.08.06.1c1.66,2.9,2.73,5.64,2.92,10.31l.04,1.04h-11.17v-1c0-1.4-.28-1.87-.75-2.66-.19-.32-.39-.66-.6-1.09-1.15-2.39-3.22-3.55-6.32-3.55-1.89,0-3.5.65-4.91,1.98-1.33,1.26-1.53,2.2-1.7,4.37-.25,3.07,1.07,5.31,3.83,6.49,1.55.65,4.09.98,7.55.98h1v9.98h-.99c-3.38.06-5.74.39-7,.98-2.06.93-3.05,2.82-3.05,5.76,0,1.63.15,1.8,1.14,2.88l.25.27c1.05,1.15,2.51,1.71,4.47,1.71,2.25,0,3.83-.68,4.84-2.09l.34-.46c.98-1.32,1.47-1.98,1.43-4.17l-.02-1.02h10.62l.1.88c.29,2.47.65,5.55-1.19,8.15-1.85,2.62-2.77,3.36-3.44,3.9l-.25.2c-.65.55-1.87,1.58-4.29,2.37-2.48.8-5.17.87-7.93.87Z"/><path style="stroke-width:0px;" d="M194.7,298.24c.1,0,.19,0,.29,0,8.45.17,9.94,1.67,14.19,6.26,1.6,2.8,2.61,5.33,2.78,9.86h-9.13c0-2.27-.73-2.68-1.44-4.17-1.32-2.74-3.73-4.12-7.22-4.12-2.14,0-4,.75-5.6,2.25-1.59,1.5-1.83,2.71-2.01,5.02-.31,3.72,1.48,6.23,4.43,7.49,1.68.71,4.33,1.06,7.95,1.06v8c-3.54.05-6.01.41-7.41,1.06-2.42,1.1-3.63,3.32-3.63,6.66,0,2.17.42,2.46,1.65,3.82,1.24,1.36,2.97,2.04,5.21,2.04,2.57,0,4.46-.84,5.65-2.51,1.22-1.67,2.01-2.44,1.96-5.23h8.71c.32,2.73.53,5.28-1.01,7.46-2.02,2.87-2.83,3.34-3.51,3.91-.52.44-1.63,1.43-3.96,2.18-2.27.74-4.77.82-7.62.82-5.3,0-8.85-1.17-12.25-3.8-3.09-2.39-3.86-2.66-4.11-7.59-.17-3.34.43-4.57,1.99-7.26,1.37-2.07,1.85-3.15,3.04-4.35-2.32-1.34-3.6-2.07-5.46-3.82-2.37-3.58-2.46-5.07-2.26-9.38.25-5.37,4.25-8.99,5.23-9.91,1.66-1.55,7.27-5.74,13.52-5.74M194.7,296.24c-8.08,0-14.62,6.02-14.89,6.28l-.06.06c-3.66,3.42-5.61,7.19-5.8,11.22-.21,4.62-.05,6.6,2.59,10.58l.13.19.17.16c1.4,1.31,2.5,2.11,3.83,2.92-.23.35-.46.72-.71,1.12-.28.46-.6.97-1,1.57l-.03.05-.03.05c-1.63,2.79-2.47,4.43-2.26,8.37.27,5.27,1.33,6.34,4.33,8.64l.55.43c3.82,2.96,7.85,4.22,13.47,4.22,2.85,0,5.62-.07,8.24-.92,2.61-.85,3.93-1.96,4.57-2.5l.06-.05c.07-.06.15-.12.23-.19.72-.57,1.7-1.36,3.63-4.1,2.05-2.91,1.67-6.2,1.36-8.84l-.21-1.77h-12.53l.04,2.04c.03,1.85-.29,2.28-1.23,3.55-.11.15-.22.3-.34.46-.53.73-1.5,1.69-4.04,1.69-1.67,0-2.89-.45-3.73-1.38l-.25-.27q-.88-.96-.88-2.2c0-3.34,1.4-4.36,2.46-4.84.8-.37,2.58-.82,6.61-.88l1.97-.03v-11.97h-2c-4.15,0-6.19-.49-7.17-.9-2.35-1-3.43-2.84-3.21-5.48.17-2.08.33-2.72,1.39-3.73,1.22-1.15,2.6-1.71,4.22-1.71,2.71,0,4.44.95,5.42,2.98.22.47.45.85.64,1.16.43.72.61,1.02.61,2.14v2h13.21l-.08-2.08c-.19-4.88-1.31-7.74-3.05-10.77l-.11-.2-.16-.17c-4.62-4.98-6.68-6.72-15.62-6.9-.11,0-.22,0-.33,0h0Z"/><polygon style="stroke-width:0px;" points="202.61 327.57 200.9 331.95 199.82 327.7 202.61 327.57"/><polygon style="stroke-width:0px;" points="216.24 311.31 214.14 316.31 212.76 310.38 216.24 311.31"/></g></svg>