<?xml version="1.0" encoding="UTF-8"?><svg id="Layer_2" xmlns="http://www.w3.org/2000/svg" viewBox="0 0 248 380"><defs><style>.cls-1{fill:#0e0606;}.cls-1,.cls-2,.cls-3,.cls-4{stroke-width:0px;}.cls-2{fill:#140c0d;}.cls-3{fill:#fff;}.cls-4{fill:#e5cf05;}</style></defs><g id="Draw_2"><g id="Base_Yellow"><rect style="stroke-width:0px;;fill:#fff;" x="0" y="0" width="248" height="380" rx="24.66" ry="24.66" transform="translate(248 380) rotate(-180)"/><path style="stroke-width:0px;;fill:#e5cf05;" d="M16.75,311.85c1.59,1.9,2.37,2.66,2.96,3.56,14.15,21.4,34.52,28.02,58.81,23.99,29.27-4.86,52.77-20.9,74.1-40.41,35.64-32.59,60.53-72.35,77.03-117.57.44-1.21.92-2.41,2.27-3.61.08,1.66.22,3.33.22,4.99.01,51.52,0,103.03,0,154.55,0,17.49-8.4,25.81-26.05,25.81-43.99,0-87.99,0-131.98,0-11.12,0-22.25.07-33.37-.02-15.16-.12-23.98-9.12-24.01-24.34-.02-8.55,0-17.11,0-26.96Z"/><path style="stroke-width:0px;;fill:#e5cf05;" d="M17.84,262.97c-.22-22.83,5.07-44.14,12.18-65.14,14.66-43.34,38.94-80.51,71.97-111.92,17.36-16.51,36.77-30,60.24-36.6,33.37-9.38,60.58,7.27,67.85,41.25,5.55,25.92,2.32,51.33-5.28,76.12-17,55.51-46.61,102.96-92.5,139.29-16.58,13.13-34.86,23.14-56.39,25.61-22.61,2.59-42.13-8.78-51.22-29.69-5.47-12.58-7.13-25.82-6.85-38.93Z"/><path style="stroke-width:0px;;fill:#e5cf05;" d="M232.16,67.18c-1.54-1.9-2.18-2.58-2.68-3.34-14.21-21.58-34.65-28.39-59.18-24.22-30.32,5.16-54.41,22.08-76.25,42.53-34.47,32.28-58.74,71.29-74.76,115.58-.49,1.36-1.04,2.71-2.31,4.03-.08-1.53-.23-3.06-.23-4.58-.01-52.01-.01-104.03,0-156.04,0-16.61,8.58-25.29,25.05-25.3,55.11-.01,110.23-.01,165.34,0,16.45,0,25.01,8.7,25.02,25.32,0,8.21,0,16.41,0,26.01Z"/></g><path style="stroke-width:0px;;fill:#140c0d;" d="M67.31,42.26c-1.5,2.25-2.87,4.3-4.21,6.31-3.73,1.33-7.41,0-10.77.5-2.37-.92-3.57-2.46-3.14-4.73,1.4-7.51,4.38-14.07,12.1-16.99,7.38-2.79,14.7-2.74,21.26,2.26,5.89,4.48,7.66,13.08,4.39,20.39-2.27,5.06-5.4,9.55-9.55,13.28-.48.43-.97.91-.83,2.1,3.48.98,7.4-.34,11.04.97,1.84,5.94,2.02,11.47-2.91,16.68h-34.05c-2.68-1.86-2.8-3.8-2.15-6.12,1.89-6.75,5.49-12.46,10.39-17.38,3.05-3.06,6.25-5.97,9.38-8.94,1.33-1.27,2.66-2.53,2.77-4.55.13-2.32-.55-3.92-3.72-3.78ZM67.13,68.78c3.27-5.25,7.6-7.94,10.95-11.54,2.52-2.7,4.87-5.44,6.22-8.94,2.66-6.9.82-13.64-4.76-17.22-10.35-6.65-23.39-.79-25.32,11.64,2.93.22,5.83.44,8.6.64,1.72-4.6,2.19-5.37,3.69-6.18,2.44-1.31,6.2-.95,7.99.76,1.89,1.8,2.35,5.34.99,8.4-1.31,2.96-3.6,5.18-5.92,7.33-3.91,3.62-7.87,7.18-11.25,11.33-2.76,3.4-4.56,7.17-5.07,11.68h31.94v-7.91h-18.07Z"/><path style="stroke-width:0px;;fill:#140c0d;" d="M20.88,63.32c-2.33-9.3.14-13.41,8.91-14.66,1.13-3.06,1.56-6.78,5.13-8.5,9.58-.95,9.92-.7,11.6,8.62,2.68,1.9,6.37-.4,8.97,2.01,2.1,9.31-.21,13.1-9,14.47-.86,3.1-1.96,6.21-4.9,8.42-3,.54-6.13.4-9.02.06-2.93-2.33-1.92-5.68-2.6-8.4-2.97-1.28-6.3.43-9.09-2.03ZM52.86,58.33c.3-2.07.8-3.96-.31-5.73-3.23-.52-6.42.34-9.77-.75v-8.69c-2.55-.34-4.74-.54-7.02.08-.53,3.02.27,5.89-.7,8.83-3.22.83-6.6-.21-9.78.69-.23,1.93-.55,3.72.22,5.6,3.19.84,6.58-.26,9.79.74.67,2.89-.23,5.77.66,8.57,2.18.52,4.28.45,6.55.05.86-2.91-.23-5.98.72-8.82,3.28-.61,6.47.28,9.63-.56Z"/><path style="stroke-width:0px;;fill:#fff;" d="M67.13,68.78h18.07v7.91h-31.94c.51-4.51,2.31-8.28,5.07-11.68,3.37-4.16,7.33-7.72,11.25-11.33,2.33-2.15,4.61-4.37,5.92-7.33,1.36-3.06.9-6.6-.99-8.4-1.79-1.71-5.55-2.07-7.99-.76-1.51.81-1.98,1.58-3.69,6.18-2.77-.21-5.67-.42-8.6-.64,1.93-12.43,14.96-18.3,25.32-11.64,5.58,3.58,7.42,10.32,4.76,17.22-1.35,3.5-3.7,6.24-6.22,8.94-3.36,3.6-7.68,6.29-10.95,11.54Z"/><path style="stroke-width:0px;;fill:#fff;" d="M52.86,58.33c-3.16.84-6.35-.05-9.63.56-.95,2.85.14,5.91-.72,8.82-2.26.4-4.36.47-6.55-.05-.89-2.79,0-5.68-.66-8.57-3.2-1-6.59.09-9.79-.74-.77-1.89-.46-3.67-.22-5.6,3.18-.9,6.57.15,9.78-.69.97-2.94.16-5.81.7-8.83,2.28-.62,4.47-.42,7.02-.08v8.69c3.35,1.09,6.54.23,9.77.75,1.11,1.77.6,3.66.31,5.73Z"/><path style="stroke-width:0px;;fill:#140c0d;" d="M180.69,337.74c1.5-2.25,2.87-4.3,4.21-6.31,3.73-1.33,7.41,0,10.77-.5,2.37.92,3.57,2.46,3.14,4.73-1.4,7.51-4.38,14.07-12.1,16.99-7.38,2.79-14.7,2.74-21.26-2.26-5.89-4.48-7.66-13.08-4.39-20.39,2.27-5.06,5.4-9.55,9.55-13.28.48-.43.97-.91.83-2.1-3.48-.98-7.4.34-11.04-.97-1.84-5.94-2.02-11.47,2.91-16.68,5.52,0,11.33,0,17.14,0h16.9c2.68,1.86,2.8,3.8,2.15,6.12-1.89,6.75-5.49,12.46-10.39,17.38-3.05,3.06-6.25,5.97-9.38,8.94-1.33,1.27-2.66,2.53-2.77,4.55-.13,2.32.55,3.92,3.72,3.78ZM180.87,311.22c-3.27,5.25-7.6,7.94-10.95,11.54-2.52,2.7-4.87,5.44-6.22,8.94-2.66,6.9-.82,13.64,4.76,17.22,10.35,6.65,23.39.79,25.32-11.64-2.93-.22-5.83-.44-8.6-.64-1.72,4.6-2.19,5.37-3.69,6.18-2.44,1.31-6.2.95-7.99-.76-1.89-1.8-2.35-5.34-.99-8.4,1.31-2.96,3.6-5.18,5.92-7.33,3.91-3.62,7.87-7.18,11.25-11.33,2.76-3.4,4.56-7.17,5.07-11.68-10.83,0-21.41,0-31.94,0v7.91c5.89,0,11.49,0,18.07,0Z"/><path style="stroke-width:0px;;fill:#140c0d;" d="M227.12,316.68c2.33,9.3-.14,13.41-8.91,14.66-1.13,3.06-1.56,6.78-5.13,8.5-9.58.95-9.92.7-11.6-8.62-2.68-1.9-6.37.4-8.97-2.01-2.1-9.31.21-13.1,9-14.47.86-3.1,1.96-6.21,4.9-8.42,3-.54,6.13-.4,9.02-.06,2.93,2.33,1.92,5.68,2.6,8.4,2.97,1.28,6.3-.43,9.09,2.03ZM195.14,321.67c-.3,2.07-.8,3.96.31,5.73,3.23.52,6.42-.34,9.77.75v8.69c2.55.34,4.74.54,7.02-.08.53-3.02-.27-5.89.7-8.83,3.22-.83,6.6.21,9.78-.69.23-1.93.55-3.72-.22-5.6-3.19-.84-6.58.26-9.79-.74-.67-2.89.23-5.77-.66-8.57-2.18-.52-4.28-.45-6.55-.05-.86,2.91.23,5.98-.72,8.82-3.28.61-6.47-.28-9.63.56Z"/><path style="stroke-width:0px;;fill:#fff;" d="M180.87,311.22c-6.58,0-12.18,0-18.07,0v-7.91c10.53,0,21.11,0,31.94,0-.51,4.51-2.31,8.28-5.07,11.68-3.37,4.16-7.33,7.72-11.25,11.33-2.33,2.15-4.61,4.37-5.92,7.33-1.36,3.06-.9,6.6.99,8.4,1.79,1.71,5.55,2.07,7.99.76,1.51-.81,1.98-1.58,3.69-6.18,2.77.21,5.67.42,8.6.64-1.93,12.43-14.96,18.3-25.32,11.64-5.58-3.58-7.42-10.32-4.76-17.22,1.35-3.5,3.7-6.24,6.22-8.94,3.36-3.6,7.68-6.29,10.95-11.54Z"/><path style="stroke-width:0px;;fill:#fff;" d="M195.14,321.67c3.16-.84,6.35.05,9.63-.56.95-2.85-.14-5.91.72-8.82,2.26-.4,4.36-.47,6.55.05.89,2.79,0,5.68.66,8.57,3.2,1,6.59-.09,9.79.74.77,1.89.46,3.67.22,5.6-3.18.9-6.57-.15-9.78.69-.97,2.94-.16,5.81-.7,8.83-2.28.62-4.47.42-7.02.08v-8.69c-3.35-1.09-6.54-.23-9.77-.75-1.11-1.77-.6-3.66-.31-5.73Z"/><path style="fill:#0e0606;;stroke-width:0px;" d="M111.99,125.87c3.22-2.34,6.75-3.11,10.77-3.04,11.97.2,23.94.1,35.91.05,3.46-.01,6.59.64,9.08,3.24.35,2.11,1.01,4.22,1.01,6.33.08,23.48.1,46.96.03,70.45-.03,9.45-9.05,18.37-18.46,18.51-1.67.02-3.33-.02-5,.01-4.45.08-4.51.09-4.54,4.38-.05,6.16,0,12.32-.01,18.49,0,10.53-7.92,18.6-18.25,18.66-12.32.07-24.64.15-36.95.29-6.46.07-9.47-2.75-9.48-9.39-.04-23.32,0-46.63-.03-69.95,0-3.85,1.29-6.84,3.96-9.78,9.09-10.02,6.41-7.93,19.17-8.21,4.8-.11,4.82-.05,4.86-5,.04-6,.17-11.99,0-17.98-.11-4.04.84-7.44,3.65-10.49,1.75-1.9,2.88-4.37,4.28-6.58ZM86.22,210.65c0,11.65-.03,23.29.01,34.94.02,5.42.95,6.39,6.42,6.42,12.81.06,25.62.06,38.44,0,5.7-.03,6.54-.94,6.55-6.81.02-23.13.03-46.26,0-69.38,0-5.63-1.13-6.74-6.68-6.76-12.64-.02-25.29-.02-37.93,0-5.66,0-6.78,1.08-6.79,6.64-.03,11.65-.01,23.29-.01,34.94ZM165.65,167.56h.01c0-11.66.03-23.31-.01-34.97-.02-5.36-1.12-6.49-6.43-6.5-12.82-.04-25.64-.04-38.46,0-5.38.02-6.5,1.1-6.53,6.39-.06,9.82-.03,19.65,0,29.47.01,4.02.06,4.04,4.17,4.07,4,.03,7.99.01,11.99.02,8.06.02,10.27,2.25,10.29,10.48.02,8.33,0,16.65,0,24.98,0,1.5.12,3.01-.03,4.49-.24,2.41.71,3.17,3.11,3.09,4.99-.16,9.99-.02,14.98-.05,5.98-.04,6.88-.93,6.89-7.01.02-11.49,0-22.98,0-34.47Z"/><path style="stroke-width:0px;;fill:#fff;" d="M86.22,210.65c0-11.65-.02-23.29.01-34.94.02-5.56,1.13-6.63,6.79-6.64,12.64-.02,25.29-.03,37.93,0,5.55.01,6.68,1.13,6.68,6.76.02,23.13.02,46.26,0,69.38,0,5.86-.84,6.78-6.55,6.81-12.81.06-25.62.06-38.44,0-5.48-.03-6.4-1-6.42-6.42-.04-11.65-.01-23.29-.01-34.94Z"/><path style="stroke-width:0px;;fill:#fff;" d="M165.65,167.56c0,11.49.02,22.98,0,34.47-.01,6.08-.91,6.97-6.89,7.01-5,.03-9.99-.11-14.98.05-2.4.08-3.35-.68-3.11-3.09.15-1.48.03-2.99.03-4.49,0-8.33.02-16.65,0-24.98-.02-8.23-2.23-10.46-10.29-10.48-4,0-7.99.01-11.99-.02-4.11-.04-4.16-.06-4.17-4.07-.03-9.82-.05-19.65,0-29.47.03-5.28,1.15-6.37,6.53-6.39,12.82-.04,25.64-.05,38.46,0,5.31.02,6.41,1.15,6.43,6.5.04,11.66.01,23.31.01,34.97h-.01Z"/></g></svg>