<?xml version="1.0" encoding="UTF-8"?><svg id="Layer_2" xmlns="http://www.w3.org/2000/svg" viewBox="0 0 248 380"><defs><style>.cls-1{fill:#338a12;}.cls-1,.cls-2,.cls-3,.cls-4{stroke-width:0px;}.cls-2{fill:#0b0607;}.cls-3{fill:#fff;}.cls-4{fill:#e5cf05;}</style></defs><g id="Reverse"><g id="Base_Yellow"><rect style="stroke-width:0px;;fill:#fff;" x="0" y="0" width="248" height="380" rx="24.66" ry="24.66" transform="translate(248 380) rotate(-180)"/><path style="stroke-width:0px;;fill:#e5cf05;" d="M16.75,311.85c1.59,1.9,2.37,2.66,2.96,3.56,14.15,21.4,34.52,28.02,58.81,23.99,29.27-4.86,52.77-20.9,74.1-40.41,35.64-32.59,60.53-72.35,77.03-117.57.44-1.21.92-2.41,2.27-3.61.08,1.66.22,3.33.22,4.99.01,51.52,0,103.03,0,154.55,0,17.49-8.4,25.81-26.05,25.81-43.99,0-87.99,0-131.98,0-11.12,0-22.25.07-33.37-.02-15.16-.12-23.98-9.12-24.01-24.34-.02-8.55,0-17.11,0-26.96Z"/><path style="stroke-width:0px;;fill:#e5cf05;" d="M17.84,262.97c-.22-22.83,5.07-44.14,12.18-65.14,14.66-43.34,38.94-80.51,71.97-111.92,17.36-16.51,36.77-30,60.24-36.6,33.37-9.38,60.58,7.27,67.85,41.25,5.55,25.92,2.32,51.33-5.28,76.12-17,55.51-46.61,102.96-92.5,139.29-16.58,13.13-34.86,23.14-56.39,25.61-22.61,2.59-42.13-8.78-51.22-29.69-5.47-12.58-7.13-25.82-6.85-38.93Z"/><path style="stroke-width:0px;;fill:#e5cf05;" d="M232.16,67.18c-1.54-1.9-2.18-2.58-2.68-3.34-14.21-21.58-34.65-28.39-59.18-24.22-30.32,5.16-54.41,22.08-76.25,42.53-34.47,32.28-58.74,71.29-74.76,115.58-.49,1.36-1.04,2.71-2.31,4.03-.08-1.53-.23-3.06-.23-4.58-.01-52.01-.01-104.03,0-156.04,0-16.61,8.58-25.29,25.05-25.3,55.11-.01,110.23-.01,165.34,0,16.45,0,25.01,8.7,25.02,25.32,0,8.21,0,16.41,0,26.01Z"/></g><g id="Base_Green"><rect style="stroke-width:0px;;fill:#fff;" x="0" y="0" width="248" height="380" rx="24.66" ry="24.66" transform="translate(248 380) rotate(-180)"/><path style="fill:#338a12;;stroke-width:0px;" d="M16.75,311.85c1.59,1.9,2.37,2.66,2.96,3.56,14.15,21.4,34.52,28.02,58.81,23.99,29.27-4.86,52.77-20.9,74.1-40.41,35.64-32.59,60.53-72.35,77.03-117.57.44-1.21.92-2.41,2.27-3.61.08,1.66.22,3.33.22,4.99.01,51.52,0,103.03,0,154.55,0,17.49-8.4,25.81-26.05,25.81-43.99,0-87.99,0-131.98,0-11.12,0-22.25.07-33.37-.02-15.16-.12-23.98-9.12-24.01-24.34-.02-8.55,0-17.11,0-26.96Z"/><path style="fill:#338a12;;stroke-width:0px;" d="M17.84,262.97c-.22-22.83,5.07-44.14,12.18-65.14,14.66-43.34,38.94-80.51,71.97-111.92,17.36-16.51,36.77-30,60.24-36.6,33.37-9.38,60.58,7.27,67.85,41.25,5.55,25.92,2.32,51.33-5.28,76.12-17,55.51-46.61,102.96-92.5,139.29-16.58,13.13-34.86,23.14-56.39,25.61-22.61,2.59-42.13-8.78-51.22-29.69-5.47-12.58-7.13-25.82-6.85-38.93Z"/><path style="fill:#338a12;;stroke-width:0px;" d="M232.16,67.18c-1.54-1.9-2.18-2.58-2.68-3.34-14.21-21.58-34.65-28.39-59.18-24.22-30.32,5.16-54.41,22.08-76.25,42.53-34.47,32.28-58.74,71.29-74.76,115.58-.49,1.36-1.04,2.71-2.31,4.03-.08-1.53-.23-3.06-.23-4.58-.01-52.01-.01-104.03,0-156.04,0-16.61,8.58-25.29,25.05-25.3,55.11-.01,110.23-.01,165.34,0,16.45,0,25.01,8.7,25.02,25.32,0,8.21,0,16.41,0,26.01Z"/></g><g id="Reverse-2"><path style="stroke-width:0px;;fill:#0b0607;" d="M100.62,206.23c-2.07-3.23-4.66-6.23-6.13-9.72-5-11.9-.62-21.94,7.57-30.48,5.83-6.08,12.53-11.33,19.04-17.12-1.85-2.46-4.26-4.75-5.43-7.54-.76-1.83-.51-4.96.64-6.54,3.55-4.9,8.2-7.43,14.89-7.09,11.3.58,22.65,0,33.98-.02,2.29,0,4.58.32,7.68.55.11,2.55.58,4.82.25,6.96-1.92,12.5-4.2,24.94-6.01,37.46-.97,6.72-6.52,9.25-10.93,12.7-.76.59-4.04-1.25-5.57-2.62-2.46-2.2-4.43-4.95-6.6-7.46-.43.33-.87.66-1.3.99.31.6.51,1.29.94,1.77,12.06,13.38,8.86,28.06-2.84,39.36-5.72,5.52-12.09,10.37-18.24,15.59,1.16,4.95,7.92,7.2,6.88,11.71-5.98,9.36-13.61,10.74-22.47,10.27-9.96-.53-19.99.05-29.98.02-2.04,0-4.08-.63-6.85-1.09.51-4.43.82-8.17,1.39-11.88,1.67-10.85,3.46-21.69,5.16-32.54.93-5.89,5.31-9.15,9.76-11.97,1.17-.74,4.39.5,5.88,1.76,2.68,2.27,4.76,5.25,7.09,7.93.4-.34.79-.67,1.19-1.01ZM125.8,244.81c-3.67-4.72-6.68-8.58-9.87-12.68,2.26-1.78,4.27-3.24,6.15-4.85,6.67-5.73,14.07-10.84,19.77-17.42,8.39-9.69,7.05-21.07-2.23-29.92-13.2,11.13-26.42,22.28-39.93,33.68-3.82-4.29-7.55-8.47-11.46-12.86-2.41,15.3-4.66,29.61-6.93,44.06h44.51ZM111.03,197.02c13.43-11.33,26.62-22.45,40.03-33.77,3.73,4.23,7.21,8.18,11.3,12.81,2.47-15.11,4.8-29.43,7.16-43.9h-44.61c3.58,4.53,6.62,8.37,9.89,12.51-3.47,2.76-6.91,5.34-10.17,8.15-5.4,4.65-11.38,8.87-15.87,14.31-8.07,9.77-6.97,20.29,2.27,29.88Z"/><path style="stroke-width:0px;;fill:#fff;" d="M125.8,244.81h-44.51c2.27-14.45,4.53-28.76,6.93-44.06,3.92,4.39,7.64,8.58,11.46,12.86,13.51-11.4,26.73-22.55,39.93-33.68,9.28,8.85,10.62,20.23,2.23,29.92-5.7,6.58-13.09,11.69-19.77,17.42-1.88,1.61-3.88,3.07-6.15,4.85,3.19,4.1,6.2,7.96,9.87,12.68Z"/><path style="stroke-width:0px;;fill:#fff;" d="M111.03,197.02c-9.24-9.6-10.35-20.11-2.27-29.88,4.49-5.43,10.46-9.66,15.87-14.31,3.26-2.8,6.7-5.38,10.17-8.15-3.27-4.14-6.31-7.98-9.89-12.51h44.61c-2.36,14.47-4.69,28.78-7.16,43.9-4.08-4.63-7.57-8.59-11.3-12.81-13.41,11.31-26.6,22.44-40.03,33.77Z"/></g><g id="Reverse-3"><path style="stroke-width:0px;;fill:#0b0607;" d="M43.37,67.59c-1.02-1.59-2.3-3.08-3.02-4.79-2.47-5.87-.31-10.83,3.73-15.04,2.88-3,6.18-5.59,9.39-8.45-.91-1.22-2.1-2.34-2.68-3.72-.38-.9-.25-2.45.31-3.23,1.75-2.42,4.05-3.67,7.35-3.5,5.57.29,11.18,0,16.77,0,1.13,0,2.26.16,3.79.27.06,1.26.29,2.38.12,3.44-.95,6.17-2.07,12.31-2.96,18.48-.48,3.32-3.22,4.56-5.39,6.27-.37.29-1.99-.62-2.75-1.29-1.21-1.09-2.18-2.44-3.26-3.68-.21.16-.43.33-.64.49.15.29.25.64.47.87,5.95,6.6,4.37,13.85-1.4,19.42-2.82,2.72-5.96,5.12-9,7.69.57,2.44,3.91,3.55,3.4,5.78-2.95,4.62-6.71,5.3-11.09,5.07-4.92-.26-9.86.03-14.79,0-1.01,0-2.01-.31-3.38-.54.25-2.18.41-4.03.69-5.86.82-5.36,1.71-10.7,2.55-16.06.46-2.91,2.62-4.51,4.82-5.9.58-.37,2.17.25,2.9.87,1.32,1.12,2.35,2.59,3.5,3.91.2-.17.39-.33.59-.5ZM55.79,86.63c-1.81-2.33-3.29-4.23-4.87-6.26,1.12-.88,2.11-1.6,3.03-2.39,3.29-2.83,6.94-5.35,9.75-8.6,4.14-4.78,3.48-10.4-1.1-14.76-6.51,5.49-13.03,11-19.7,16.62-1.89-2.12-3.72-4.18-5.66-6.35-1.19,7.55-2.3,14.61-3.42,21.74,7.33,0,14.37,0,21.96,0ZM48.51,63.04c6.62-5.59,13.13-11.08,19.75-16.66,1.84,2.09,3.56,4.04,5.57,6.32,1.22-7.46,2.37-14.52,3.53-21.66-7.32,0-14.41,0-22.01,0,1.77,2.23,3.27,4.13,4.88,6.17-1.71,1.36-3.41,2.64-5.02,4.02-2.67,2.3-5.62,4.38-7.83,7.06-3.98,4.82-3.44,10.01,1.12,14.75Z"/><path style="stroke-width:0px;;fill:#fff;" d="M192.21,293.37c7.6,0,14.64,0,21.96,0-1.12,7.13-2.23,14.19-3.42,21.74-1.93-2.17-3.77-4.23-5.66-6.35-6.67,5.63-13.19,11.13-19.7,16.62-4.58-4.37-5.24-9.98-1.1-14.76,2.81-3.25,6.46-5.77,9.75-8.6.93-.8,1.92-1.52,3.03-2.39-1.57-2.02-3.06-3.93-4.87-6.26Z"/><path style="stroke-width:0px;;fill:#fff;" d="M199.49,316.96c4.56,4.74,5.11,9.92,1.12,14.75-2.21,2.68-5.16,4.76-7.83,7.06-1.61,1.38-3.31,2.66-5.02,4.02,1.62,2.04,3.11,3.94,4.88,6.17-7.6,0-14.7,0-22.01,0,1.16-7.14,2.32-14.2,3.53-21.66,2.01,2.28,3.74,4.24,5.57,6.32,6.62-5.58,13.13-11.07,19.75-16.66Z"/></g><g id="Reverse-4"><path style="stroke-width:0px;;fill:#0b0607;" d="M204.63,312.41c1.02,1.59,2.3,3.08,3.02,4.79,2.47,5.87.31,10.83-3.73,15.04-2.88,3-6.18,5.59-9.39,8.45.91,1.22,2.1,2.34,2.68,3.72.38.9.25,2.45-.31,3.23-1.75,2.42-4.05,3.67-7.35,3.5-5.57-.29-11.18,0-16.77,0-1.13,0-2.26-.16-3.79-.27-.06-1.26-.29-2.38-.12-3.44.95-6.17,2.07-12.31,2.96-18.48.48-3.32,3.22-4.56,5.39-6.27.37-.29,1.99.62,2.75,1.29,1.21,1.09,2.18,2.44,3.26,3.68.21-.16.43-.33.64-.49-.15-.29-.25-.64-.47-.87-5.95-6.6-4.37-13.85,1.4-19.42,2.82-2.72,5.96-5.12,9-7.69-.57-2.44-3.91-3.55-3.4-5.78,2.95-4.62,6.71-5.3,11.09-5.07,4.92.26,9.86-.03,14.79,0,1.01,0,2.01.31,3.38.54-.25,2.18-.41,4.03-.69,5.86-.82,5.36-1.71,10.7-2.55,16.06-.46,2.91-2.62,4.51-4.82,5.9-.58.37-2.17-.25-2.9-.87-1.32-1.12-2.35-2.59-3.5-3.91-.2.17-.39.33-.59.5ZM192.21,293.37c1.81,2.33,3.29,4.23,4.87,6.26-1.12.88-2.11,1.6-3.03,2.39-3.29,2.83-6.94,5.35-9.75,8.6-4.14,4.78-3.48,10.4,1.1,14.76,6.51-5.49,13.03-11,19.7-16.62,1.89,2.12,3.72,4.18,5.66,6.35,1.19-7.55,2.3-14.61,3.42-21.74-7.33,0-14.37,0-21.96,0ZM199.49,316.96c-6.62,5.59-13.13,11.08-19.75,16.66-1.84-2.09-3.56-4.04-5.57-6.32-1.22,7.46-2.37,14.52-3.53,21.66,7.32,0,14.41,0,22.01,0-1.77-2.23-3.27-4.13-4.88-6.17,1.71-1.36,3.41-2.64,5.02-4.02,2.67-2.3,5.62-4.38,7.83-7.06,3.98-4.82,3.44-10.01-1.12-14.75Z"/><path style="stroke-width:0px;;fill:#fff;" d="M55.79,86.63c-7.6,0-14.64,0-21.96,0,1.12-7.13,2.23-14.19,3.42-21.74,1.93,2.17,3.77,4.23,5.66,6.35,6.67-5.63,13.19-11.13,19.7-16.62,4.58,4.37,5.24,9.98,1.1,14.76-2.81,3.25-6.46,5.77-9.75,8.6-.93.8-1.92,1.52-3.03,2.39,1.57,2.02,3.06,3.93,4.87,6.26Z"/><path style="stroke-width:0px;;fill:#fff;" d="M48.51,63.04c-4.56-4.74-5.11-9.92-1.12-14.75,2.21-2.68,5.16-4.76,7.83-7.06,1.61-1.38,3.31-2.66,5.02-4.02-1.62-2.04-3.11-3.94-4.88-6.17,7.6,0,14.7,0,22.01,0-1.16,7.14-2.32,14.2-3.53,21.66-2.01-2.28-3.74-4.24-5.57-6.32-6.62,5.58-13.13,11.07-19.75,16.66Z"/></g></g></svg>