<?xml version="1.0" encoding="UTF-8"?><svg id="Layer_2" xmlns="http://www.w3.org/2000/svg" viewBox="0 0 248 380"><defs><style>.cls-1,.cls-2,.cls-3,.cls-4,.cls-5,.cls-6,.cls-7{stroke-width:0px;}.cls-2{fill:#338a11;}.cls-3{fill:#084aa2;}.cls-4{fill:#e0e0df;}.cls-5{fill:#c30d02;}.cls-6{fill:#fff;}.cls-7{fill:#e5cf05;}</style></defs><g id="Wild"><g id="Base"><rect style="stroke-width:0px;;fill:#fff;" width="248" height="380" rx="24.66" ry="24.66"/><path style="stroke-width:0px;" d="M16.75,311.85c1.59,1.9,2.37,2.66,2.96,3.56,14.15,21.4,34.52,28.02,58.81,23.99,29.27-4.86,52.77-20.9,74.1-40.41,35.64-32.59,60.53-72.35,77.03-117.57.44-1.21.92-2.41,2.27-3.61.08,1.66.22,3.33.22,4.99.01,51.52,0,103.03,0,154.55,0,17.49-8.4,25.81-26.05,25.81-43.99,0-87.99,0-131.98,0-11.12,0-22.25.07-33.37-.02-15.16-.12-23.98-9.12-24.01-24.34-.02-8.55,0-17.11,0-26.96Z"/><path style="stroke-width:0px;" d="M232.16,67.18c-1.54-1.9-2.18-2.58-2.68-3.34-14.21-21.58-34.65-28.39-59.18-24.22-30.32,5.16-54.41,22.08-76.25,42.53-34.47,32.28-58.74,71.29-74.76,115.58-.49,1.36-1.04,2.71-2.31,4.03-.08-1.53-.23-3.06-.23-4.58-.01-52.01-.01-104.03,0-156.04,0-16.61,8.58-25.29,25.05-25.3,55.11-.01,110.23-.01,165.34,0,16.45,0,25.01,8.7,25.02,25.32,0,8.21,0,16.41,0,26.01Z"/></g><path style="stroke-width:0px;;fill:#c30d02;" d="M33.14,189.38c6.28-17.38,14.96-33.56,24.71-49.17,12.54-20.06,27.19-38.45,44.58-54.51,14.94-13.8,31.2-25.7,50.38-33.05,10.12-3.88,20.47-6.55,31.46-5.52-2.99,7.16-5.99,14.31-8.95,21.47-5.19,12.52-10.37,25.04-15.53,37.57-8.11,19.74-16.26,39.46-24.26,59.24-3.22,7.97-6.85,15.78-9.5,23.97-.36.08-.72.17-1.08.25-7.28-.04-14.56-.1-21.83-.12-23.33-.05-46.65-.09-69.98-.13Z"/><path style="stroke-width:0px;;fill:#338a11;" d="M124.95,189.63c.36-.08.72-.17,1.08-.25,26.58.04,53.16.08,79.74.14,3.63,0,7.26.11,10.89.16-3.92,11.49-9.47,22.24-15.18,32.9-9.34,17.44-20.46,33.67-33.2,48.78-16.58,19.67-35.4,36.74-58.18,49.02-11.76,6.34-24.2,10.62-37.64,11.52-1.64.11-3.3-.02-4.95-.04.51-3.14,2.07-5.91,3.24-8.8,7.3-18.05,14.67-36.08,22.08-54.1,8.85-21.52,17.88-42.97,26.54-64.57,1.95-4.87,4.66-9.5,5.59-14.77Z"/><path style="stroke-width:0px;;fill:#e5cf05;" d="M124.95,189.63c-.93,5.27-3.64,9.9-5.59,14.77-8.66,21.6-17.69,43.04-26.54,64.57-7.41,18.01-14.77,36.04-22.08,54.1-1.17,2.89-2.74,5.66-3.24,8.8-10.46.09-19.84-3.28-27.96-9.66-11.06-8.69-16.4-20.85-19.63-34.18-1.84-7.6-2.19-15.37-2.67-23.09-.34-5.58.12-11.28.85-16.84,1.11-8.49,2.39-16.95,4.4-25.32,2.74-11.41,6.19-22.55,10.64-33.38,23.33.04,46.65.08,69.98.13,7.28.02,14.56.08,21.83.12Z"/><path style="stroke-width:0px;;fill:#084aa2;" d="M216.65,189.68c-3.63-.06-7.26-.16-10.89-.16-26.58-.06-53.16-.09-79.74-.14,2.66-8.19,6.28-16,9.5-23.97,8.01-19.78,16.15-39.51,24.26-59.24,5.15-12.53,10.34-25.05,15.53-37.57,2.97-7.16,5.97-14.32,8.95-21.47,14.63.78,26.25,7.18,34.99,18.88,6.5,8.7,9.71,18.76,11.7,29.26,2.31,12.16,2.13,24.46.86,36.67-1.66,15.98-5.44,31.57-10.75,46.75-1.31,3.73-2.16,7.65-4.42,11Z"/><path style="stroke-width:0px;;fill:#e0e0df;" d="M41.4,97.89c-8.89.05-15.83-6.91-16.56-17.01-.96-13.18,2.69-25.2,10.25-35.9,5.09-7.2,11.08-13.6,19.18-17.62,4.43-2.2,9.04-3.42,13.89-2.03,5.6,1.6,9.51,5.34,11.43,10.86,1.42,4.07,2.12,8.27,1.66,12.67-1.74,16.65-9.92,29.93-21.61,41.27-5.55,5.39-11.92,7.73-18.24,7.77ZM65.88,30.21c-3.42-.74-6.53.26-9.48,1.85-8.38,4.49-14.47,11.33-19.35,19.3-1.78,2.91-3.78,5.82-4.16,9.4-2.79,6.53-3.71,13.36-3.07,20.4.6,6.56,4.5,10.64,10.81,11.53,3.08.36,5.87-.56,8.53-1.99,12.14-6.53,19.24-17.13,23.9-29.7,3.13-6.89,4.17-14.11,2.38-21.45-1.18-4.85-4.05-8.61-9.56-9.33Z"/><path style="stroke-width:0px;;fill:#e0e0df;" d="M184.51,354.17c-8.54.31-16.33-6.03-17.21-16.67-1.11-13.37,2.66-25.53,10.34-36.36,5.6-7.89,12.23-14.81,21.53-18.52,9.99-3.99,19.63.36,23.06,10.58,1.26,3.76,1.83,7.65,1.44,11.7-1.63,16.86-9.79,30.38-21.82,41.62-4.91,4.59-10.88,8.13-17.34,7.64ZM215.69,317.28c2.84-6.68,3.82-13.66,2.33-20.75-1.08-5.14-3.92-9.09-9.65-9.96-3.43-.8-6.5.29-9.5,1.78-7.01,3.46-12.11,9.09-16.67,15.19-3.05,4.07-5.9,8.36-6.87,13.55-3.03,6.66-3.67,13.71-2.99,20.87.54,5.69,5.3,11.5,10.65,11,4.59.55,8.43-1.44,12.01-3.86,10.13-6.83,16.27-16.7,20.7-27.82Z"/><path style="stroke-width:0px;;fill:#338a11;" d="M73.06,60.99c-4.65,12.57-11.76,23.17-23.9,29.7-2.66,1.43-5.45,2.35-8.53,1.99.43-2.98,1.73-5.64,2.86-8.39,3.19-7.75,6.24-15.56,9.34-23.35.27-.15.56-.24.86-.29,6.45.11,12.91.22,19.36.34Z"/><path style="stroke-width:0px;;fill:#c30d02;" d="M53.7,60.66c-.3.05-.59.14-.86.29-6.65-.06-13.29-.13-19.94-.19.38-3.58,2.37-6.49,4.16-9.4,4.88-7.97,10.97-14.81,19.35-19.3,2.96-1.58,6.06-2.58,9.48-1.85-2.33,5.57-4.73,11.12-6.98,16.72-1.82,4.54-3.48,9.15-5.2,13.72Z"/><path style="stroke-width:0px;;fill:#e5cf05;" d="M32.89,60.76c6.65.06,13.29.13,19.94.19-3.1,7.79-6.16,15.6-9.34,23.35-1.13,2.75-2.43,5.41-2.86,8.39-6.31-.89-10.21-4.97-10.81-11.53-.64-7.03.28-13.86,3.07-20.4Z"/><path style="stroke-width:0px;;fill:#084aa2;" d="M53.7,60.66c1.73-4.58,3.38-9.18,5.2-13.72,2.25-5.6,4.65-11.15,6.98-16.72,5.51.72,8.38,4.49,9.56,9.33,1.79,7.34.75,14.56-2.38,21.45-6.45-.11-12.91-.22-19.36-.34Z"/><path style="stroke-width:0px;;fill:#c30d02;" d="M175.32,317.08c.97-5.19,3.82-9.48,6.87-13.55,4.57-6.1,9.66-11.72,16.67-15.19,3.01-1.49,6.08-2.58,9.5-1.78-4.1,10.15-8.2,20.29-12.3,30.44-.3.02-.58.1-.84.24-6.64-.05-13.27-.11-19.91-.16Z"/><path style="stroke-width:0px;;fill:#338a11;" d="M195.23,317.25c.27-.13.55-.21.84-.24,6.54.09,13.08.18,19.62.27-4.43,11.12-10.57,20.99-20.7,27.82-3.58,2.42-7.42,4.41-12.01,3.86.36-2.47,1.43-4.71,2.33-7,3.24-8.26,7.29-16.2,9.92-24.7Z"/><path style="stroke-width:0px;;fill:#e5cf05;" d="M195.23,317.25c-2.63,8.51-6.68,16.44-9.92,24.7-.9,2.29-1.97,4.53-2.33,7-5.35.5-10.11-5.31-10.65-11-.68-7.16-.04-14.2,2.99-20.87,6.64.05,13.27.11,19.91.16Z"/><path style="stroke-width:0px;;fill:#084aa2;" d="M215.69,317.28c-6.54-.09-13.08-.18-19.62-.27,4.1-10.15,8.2-20.29,12.3-30.44,5.73.88,8.57,4.83,9.65,9.96,1.49,7.09.51,14.06-2.33,20.75Z"/></g></svg>