<?xml version="1.0" encoding="UTF-8"?><svg id="Layer_2" xmlns="http://www.w3.org/2000/svg" viewBox="0 0 248 380"><defs><style>.cls-1,.cls-2,.cls-3{stroke-width:0px;}.cls-2{fill:#fff;}.cls-3{fill:#f4e808;}</style></defs><g id="_4"><g id="Base_Yellow"><rect style="stroke-width:0px;;fill:#fff;" x="0" y="0" width="248" height="380" rx="24.66" ry="24.66" transform="translate(248 380) rotate(-180)"/><path style="stroke-width:0px;;fill:#f4e808;" d="M16.75,311.85c1.59,1.9,2.37,2.66,2.96,3.56,14.15,21.4,34.52,28.02,58.81,23.99,29.27-4.86,52.77-20.9,74.1-40.41,35.64-32.59,60.53-72.35,77.03-117.57.44-1.21.92-2.41,2.27-3.61.08,1.66.22,3.33.22,4.99.01,51.52,0,103.03,0,154.55,0,17.49-8.4,25.81-26.05,25.81-43.99,0-87.99,0-131.98,0-11.12,0-22.25.07-33.37-.02-15.16-.12-23.98-9.12-24.01-24.34-.02-8.55,0-17.11,0-26.96Z"/><path style="stroke-width:0px;;fill:#f4e808;" d="M17.84,262.97c-.22-22.83,5.07-44.14,12.18-65.14,14.66-43.34,38.94-80.51,71.97-111.92,17.36-16.51,36.77-30,60.24-36.6,33.37-9.38,60.58,7.27,67.85,41.25,5.55,25.92,2.32,51.33-5.28,76.12-17,55.51-46.61,102.96-92.5,139.29-16.58,13.13-34.86,23.14-56.39,25.61-22.61,2.59-42.13-8.78-51.22-29.69-5.47-12.58-7.13-25.82-6.85-38.93Z"/><path style="stroke-width:0px;;fill:#f4e808;" d="M232.16,67.18c-1.54-1.9-2.18-2.58-2.68-3.34-14.21-21.58-34.65-28.39-59.18-24.22-30.32,5.16-54.41,22.08-76.25,42.53-34.47,32.28-58.74,71.29-74.76,115.58-.49,1.36-1.04,2.71-2.31,4.03-.08-1.53-.23-3.06-.23-4.58-.01-52.01-.01-104.03,0-156.04,0-16.61,8.58-25.29,25.05-25.3,55.11-.01,110.23-.01,165.34,0,16.45,0,25.01,8.7,25.02,25.32,0,8.21,0,16.41,0,26.01Z"/></g><path style="stroke-width:0px;" d="M177.35,184.57v32.77l-13.76-.28v27.87l-45.35.49v-21.2l-53.42.37v-29.06l62.67-79.74h34.2l.82,68.79h14.85Z"/><path style="stroke-width:0px;;fill:#fff;" d="M167.57,191.42v21.89h-10.92v23.9h-28.23v-23.14l-47.5.11v-22.76l52.33-70.45h23.34l-.19,70.45h11.17ZM106.2,191.42h24.07v-33.32l-24.07,33.32Z"/><path style="stroke-width:0px;" d="M76.37,56.24v15.19l-6.38-.13v12.92l-21.03.23v-9.83l-24.77.17v-13.48l29.06-36.98h15.86l.38,31.9h6.89Z"/><path style="stroke-width:0px;;fill:#fff;" d="M71.84,59.42v10.15h-5.06v11.08h-13.09v-10.73l-22.03.05v-10.55l24.27-32.67h10.82l-.09,32.67h5.18ZM43.38,59.42h11.16v-15.45l-11.16,15.45Z"/><path style="stroke-width:0px;" d="M171.63,323.76v-15.19s6.38.13,6.38.13v-12.92s21.03-.23,21.03-.23v9.83s24.77-.17,24.77-.17v13.48s-29.06,36.98-29.06,36.98h-15.86s-.38-31.9-.38-31.9h-6.89Z"/><path style="stroke-width:0px;;fill:#fff;" d="M176.16,320.58v-10.15h5.06s0-11.08,0-11.08h13.09v10.73s22.03-.05,22.03-.05v10.55s-24.27,32.67-24.27,32.67h-10.82s.09-32.67.09-32.67h-5.18ZM204.62,320.58h-11.16s0,15.45,0,15.45l11.16-15.45Z"/></g></svg>