<?xml version="1.0" encoding="UTF-8"?><svg id="Layer_2" xmlns="http://www.w3.org/2000/svg" viewBox="0 0 248 380"><defs><style>.cls-1,.cls-2,.cls-3,.cls-4{stroke-width:0px;}.cls-2{fill:#084aa3;}.cls-3{fill:#fff;}.cls-4{fill:#f4e808;}</style></defs><g id="_5"><g id="Base_Yellow"><rect style="stroke-width:0px;;fill:#fff;" x="0" y="0" width="248" height="380" rx="24.66" ry="24.66" transform="translate(248 380) rotate(-180)"/><path style="stroke-width:0px;;fill:#f4e808;" d="M16.75,311.85c1.59,1.9,2.37,2.66,2.96,3.56,14.15,21.4,34.52,28.02,58.81,23.99,29.27-4.86,52.77-20.9,74.1-40.41,35.64-32.59,60.53-72.35,77.03-117.57.44-1.21.92-2.41,2.27-3.61.08,1.66.22,3.33.22,4.99.01,51.52,0,103.03,0,154.55,0,17.49-8.4,25.81-26.05,25.81-43.99,0-87.99,0-131.98,0-11.12,0-22.25.07-33.37-.02-15.16-.12-23.98-9.12-24.01-24.34-.02-8.55,0-17.11,0-26.96Z"/><path style="stroke-width:0px;;fill:#f4e808;" d="M17.84,262.97c-.22-22.83,5.07-44.14,12.18-65.14,14.66-43.34,38.94-80.51,71.97-111.92,17.36-16.51,36.77-30,60.24-36.6,33.37-9.38,60.58,7.27,67.85,41.25,5.55,25.92,2.32,51.33-5.28,76.12-17,55.51-46.61,102.96-92.5,139.29-16.58,13.13-34.86,23.14-56.39,25.61-22.61,2.59-42.13-8.78-51.22-29.69-5.47-12.58-7.13-25.82-6.85-38.93Z"/><path style="stroke-width:0px;;fill:#f4e808;" d="M232.16,67.18c-1.54-1.9-2.18-2.58-2.68-3.34-14.21-21.58-34.65-28.39-59.18-24.22-30.32,5.16-54.41,22.08-76.25,42.53-34.47,32.28-58.74,71.29-74.76,115.58-.49,1.36-1.04,2.71-2.31,4.03-.08-1.53-.23-3.06-.23-4.58-.01-52.01-.01-104.03,0-156.04,0-16.61,8.58-25.29,25.05-25.3,55.11-.01,110.23-.01,165.34,0,16.45,0,25.01,8.7,25.02,25.32,0,8.21,0,16.41,0,26.01Z"/></g><g id="Base_Blue"><rect style="stroke-width:0px;;fill:#fff;" x="0" y="0" width="248" height="380" rx="24.66" ry="24.66" transform="translate(248 380) rotate(-180)"/><path style="stroke-width:0px;;fill:#084aa3;" d="M16.75,311.85c1.59,1.9,2.37,2.66,2.96,3.56,14.15,21.4,34.52,28.02,58.81,23.99,29.27-4.86,52.77-20.9,74.1-40.41,35.64-32.59,60.53-72.35,77.03-117.57.44-1.21.92-2.41,2.27-3.61.08,1.66.22,3.33.22,4.99.01,51.52,0,103.03,0,154.55,0,17.49-8.4,25.81-26.05,25.81-43.99,0-87.99,0-131.98,0-11.12,0-22.25.07-33.37-.02-15.16-.12-23.98-9.12-24.01-24.34-.02-8.55,0-17.11,0-26.96Z"/><path style="stroke-width:0px;;fill:#084aa3;" d="M17.84,262.97c-.22-22.83,5.07-44.14,12.18-65.14,14.66-43.34,38.94-80.51,71.97-111.92,17.36-16.51,36.77-30,60.24-36.6,33.37-9.38,60.58,7.27,67.85,41.25,5.55,25.92,2.32,51.33-5.28,76.12-17,55.51-46.61,102.96-92.5,139.29-16.58,13.13-34.86,23.14-56.39,25.61-22.61,2.59-42.13-8.78-51.22-29.69-5.47-12.58-7.13-25.82-6.85-38.93Z"/><path style="stroke-width:0px;;fill:#084aa3;" d="M232.16,67.18c-1.54-1.9-2.18-2.58-2.68-3.34-14.21-21.58-34.65-28.39-59.18-24.22-30.32,5.16-54.41,22.08-76.25,42.53-34.47,32.28-58.74,71.29-74.76,115.58-.49,1.36-1.04,2.71-2.31,4.03-.08-1.53-.23-3.06-.23-4.58-.01-52.01-.01-104.03,0-156.04,0-16.61,8.58-25.29,25.05-25.3,55.11-.01,110.23-.01,165.34,0,16.45,0,25.01,8.7,25.02,25.32,0,8.21,0,16.41,0,26.01Z"/></g><polygon style="stroke-width:0px;" points="71.05 195.03 76.22 196.01 77.63 193.44 71.05 195.03"/><polygon style="stroke-width:0px;" points="71.05 216.04 76.86 206.22 79.88 219.07 71.05 216.04"/><polygon style="stroke-width:0px;" points="83.74 130.54 90.67 122.78 90.67 133.51 83.74 130.54"/><path style="stroke-width:0px;" d="M144.73,138.54v3.84h-50.97l-.23,7.77-.6,20.56-.18,6.24,6,1.7c1.46.41,3.1.61,5.15.61.86,0,1.78-.03,2.81-.1,1.81-.12,3.54-.39,5.21-.64,2.33-.36,4.53-.69,7.05-.69,8.47,0,15.63,2.61,21.91,7.99,5.91,5.06,8.78,12.52,8.78,22.78,0,9.09-3.01,17.01-9.21,24.21-5.88,6.84-14.8,10.17-27.27,10.17-10.15,0-18.13-2.41-24.39-7.37-3.8-3.01-6.48-6.83-8.09-11.55h8.84c1.44,3.73,3.44,6.89,5.98,9.42,4.3,4.3,10.27,6.48,17.74,6.48,10.78,0,16.96-4.99,20.24-9.17,2.4-3.06,7.98-11.26,7.98-21.33,0-7.74-2.01-14.48-5.99-20.03-6.15-8.6-18.06-8.6-21.98-8.6s-10.07.74-14.63,1.73c-2.51.54-5.23,2.2-7.17,3.58l-10.87.47,9.46-48.06h54.41M152.73,130.54h-68.99l-12.69,64.49,23.54-1.02c2.17-1.82,4.78-3.38,6-3.64,4.31-.93,9.95-1.55,12.94-1.55,6.33,0,12.48,1.07,15.47,5.25,2.99,4.18,4.49,9.3,4.49,15.37s-3.08,12.32-6.27,16.39c-3.19,4.07-7.84,6.11-13.95,6.11-5.3,0-9.33-1.38-12.09-4.14-2.76-2.76-4.63-6.68-5.61-11.76h-24.52c.86,11.15,5.12,19.76,12.78,25.82,7.66,6.07,17.44,9.1,29.36,9.1,14.79,0,25.91-4.32,33.33-12.95,7.43-8.63,11.14-18.44,11.14-29.43,0-12.62-3.86-22.24-11.57-28.86-7.71-6.61-16.75-9.92-27.11-9.92-5.12,0-9.02,1.09-12.79,1.35-.83.06-1.59.09-2.27.09-1.24,0-2.24-.1-2.98-.3l.6-20.56h51.21v-19.84h0Z"/><path style="stroke-width:0px;;fill:#fff;" d="M123.53,247.79c-12.16,0-22.33-3.17-30.22-9.43-8.01-6.34-12.52-15.42-13.42-26.98l-.21-2.69h28.71l.39,2.03c.85,4.44,2.47,7.87,4.79,10.19,2.2,2.2,5.58,3.31,10.04,3.31,5.2,0,9.01-1.64,11.65-5.01,2.75-3.51,4.15-8.04,4.15-13.47s-1.32-9.92-3.92-13.55c-2.45-3.42-6.25-5.08-11.63-5.08-2.58,0-7.95.56-12.11,1.46-.56.13-2.69,1.28-4.78,3.03l-.65.54-27.01,1.17,13.4-68.11h71.93v24.37h-50.07l-.45,15.37c.11,0,.22,0,.34,0,.6,0,1.29-.03,2.05-.08,1.33-.09,2.74-.3,4.23-.53,2.44-.37,5.2-.79,8.44-.79,10.68,0,20.14,3.46,28.1,10.29,8.08,6.92,12.17,17.04,12.17,30.07,0,11.29-3.86,21.51-11.48,30.37-7.71,8.97-19.3,13.52-34.44,13.52Z"/><path style="stroke-width:0px;" d="M162.15,127.71v19.37h-50l-.59,20.07c.72.2,1.69.3,2.91.3.67,0,1.41-.03,2.22-.08,3.69-.25,7.49-1.32,12.49-1.32,10.12,0,18.94,3.23,26.48,9.69,7.53,6.46,11.3,15.85,11.3,28.18,0,10.73-3.63,20.31-10.88,28.74-7.25,8.43-18.1,12.65-32.55,12.65-11.63,0-21.19-2.96-28.67-8.89-7.48-5.92-11.64-14.33-12.48-25.21h23.95c.96,4.96,2.78,8.79,5.48,11.49,2.7,2.69,6.63,4.04,11.8,4.04,5.96,0,10.5-1.99,13.62-5.96,3.12-3.97,4.68-8.98,4.68-15.01s-1.46-10.93-4.38-15.01-7.48-6.12-13.66-6.12c-2.92,0-8.43.6-12.64,1.51-1.19.26-3.73,1.78-5.86,3.55l-22.99,1,12.39-62.98h67.37M167.15,122.71h-76.48l-.79,4.03-12.39,62.98-1.23,6.24,6.35-.28,22.99-1,1.69-.07,1.3-1.09c1.65-1.38,3.28-2.31,3.83-2.53,3.99-.85,9.03-1.37,11.46-1.37,6.01,0,8.35,2.3,9.59,4.03,2.32,3.24,3.45,7.2,3.45,12.1s-1.18,8.82-3.61,11.92c-2.17,2.76-5.25,4.05-9.68,4.05-3.77,0-6.56-.87-8.27-2.58-1.97-1.96-3.35-4.95-4.11-8.9l-.78-4.05h-33.48l.42,5.39c.95,12.28,5.78,21.95,14.36,28.75,8.35,6.61,19.04,9.97,31.77,9.97,15.9,0,28.13-4.84,36.34-14.39,8.02-9.32,12.09-20.09,12.09-32,0-13.8-4.39-24.55-13.04-31.97-8.43-7.23-18.43-10.89-29.73-10.89-3.43,0-6.29.44-8.81.82-1.3.2-2.53.39-3.67.48l.3-10.27h50.14v-29.37h0Z"/><polygon style="stroke-width:0px;" points="26.64 63.77 28.14 64.97 29.64 63.05 26.64 63.77"/><polygon style="stroke-width:0px;" points="26.64 73.33 28.65 68.11 30.66 74.7 26.64 73.33"/><polygon style="stroke-width:0px;" points="32.41 34.45 34.99 30.06 35.56 35.8 32.41 34.45"/><path style="stroke-width:0px;" d="M59.79,38.45v1.02h-23.17l-.11,3.88-.27,9.35-.09,3.12,3,.85c.7.2,1.47.29,2.44.29.4,0,.83-.02,1.3-.05.84-.06,1.63-.18,2.4-.29,1.05-.16,2.03-.31,3.15-.31,3.76,0,6.94,1.16,9.73,3.55,2.6,2.23,3.87,5.53,3.87,10.09,0,4.04-1.34,7.57-4.1,10.77-2.6,3.03-6.57,4.5-12.12,4.5-4.53,0-8.09-1.07-10.87-3.27-1.54-1.22-2.66-2.74-3.38-4.61h3.25c.67,1.64,1.57,3.04,2.71,4.18,2.03,2.03,4.83,3.05,8.32,3.05,5.05,0,7.95-2.34,9.49-4.31,1.11-1.42,3.71-5.23,3.71-9.92,0-3.6-.94-6.73-2.79-9.32-2.91-4.06-8.46-4.06-10.29-4.06s-4.6.33-6.73.79c-1.16.25-2.4.99-3.31,1.62l-4.38.19,4.16-21.11h24.09M63.79,34.45h-31.37l-5.77,29.33,10.71-.46c.99-.83,2.17-1.54,2.73-1.65,1.96-.42,4.53-.7,5.89-.7,2.88,0,5.67.49,7.04,2.39,1.36,1.9,2.04,4.23,2.04,6.99s-1.4,5.6-2.85,7.45c-1.45,1.85-3.57,2.78-6.34,2.78-2.41,0-4.24-.63-5.5-1.88-1.26-1.25-2.11-3.04-2.55-5.35h-11.15c.39,5.07,2.33,8.98,5.81,11.74,3.48,2.76,7.93,4.14,13.35,4.14,6.73,0,11.78-1.96,15.16-5.89,3.38-3.93,5.07-8.39,5.07-13.38,0-5.74-1.75-10.11-5.26-13.12-3.51-3.01-7.62-4.51-12.33-4.51-2.33,0-4.1.5-5.82.61-.38.03-.72.04-1.03.04-.57,0-1.02-.04-1.35-.14l.27-9.35h23.29v-9.02h0Z"/><path style="stroke-width:0px;;fill:#fff;" d="M50.51,88.13c-5.61,0-10.31-1.47-13.97-4.36-3.72-2.95-5.82-7.17-6.24-12.53l-.12-1.62h13.75l.23,1.22c.37,1.95,1.07,3.44,2.08,4.45.93.93,2.38,1.4,4.31,1.4,2.24,0,3.88-.7,5.01-2.14,1.22-1.55,1.81-3.48,1.81-5.9s-.56-4.34-1.71-5.95c-1.04-1.45-2.67-2.16-4.99-2.16-1.15,0-3.56.25-5.43.65-.24.07-1.14.56-2.02,1.3l-.39.33-12.87.56,6.24-31.72h33.37v11.81h-22.78l-.18,6.26c.21,0,.44-.02.69-.03.59-.04,1.22-.14,1.89-.24,1.12-.17,2.39-.36,3.89-.36,4.95,0,9.33,1.6,13.02,4.77,3.76,3.22,5.66,7.91,5.66,13.95,0,5.22-1.79,9.95-5.31,14.05-3.58,4.16-8.94,6.27-15.94,6.27Z"/><path style="stroke-width:0px;" d="M68.07,33.16v8.81h-22.74l-.27,9.13c.33.09.77.14,1.32.14.3,0,.64-.01,1.01-.04,1.68-.11,3.41-.6,5.68-.6,4.6,0,8.61,1.47,12.04,4.4,3.43,2.94,5.14,7.21,5.14,12.81,0,4.88-1.65,9.23-4.95,13.07-3.3,3.83-8.23,5.75-14.8,5.75-5.29,0-9.64-1.35-13.04-4.04-3.4-2.69-5.29-6.52-5.67-11.47h10.89c.43,2.26,1.27,4,2.49,5.22,1.23,1.23,3.02,1.84,5.37,1.84,2.71,0,4.77-.9,6.19-2.71,1.42-1.81,2.13-4.08,2.13-6.83s-.66-4.97-1.99-6.83c-1.33-1.86-3.4-2.78-6.21-2.78-1.33,0-3.83.27-5.75.69-.54.12-1.7.81-2.66,1.62l-10.45.45,5.64-28.64h30.64M71.07,30.16h-36.1l-.48,2.42-5.64,28.64-.74,3.74,3.81-.17,10.45-.45,1.01-.04.78-.65c.62-.52,1.25-.89,1.5-1.01,1.7-.36,3.93-.59,4.99-.59,2.4,0,3.3.87,3.77,1.53.96,1.35,1.43,3.01,1.43,5.08s-.49,3.7-1.49,4.97c-.53.67-1.5,1.56-3.83,1.56-1.52,0-2.61-.32-3.25-.96-.79-.79-1.35-2.02-1.67-3.67l-.47-2.43h-16.61l.25,3.23c.45,5.79,2.74,10.37,6.8,13.59,3.93,3.11,8.94,4.69,14.9,4.69,7.45,0,13.2-2.29,17.08-6.8,3.76-4.38,5.67-9.43,5.67-15.02,0-6.5-2.08-11.57-6.19-15.09-3.97-3.4-8.68-5.13-13.99-5.13-1.61,0-2.94.2-4.12.38-.28.04-.55.08-.81.12l.09-3.13h22.82v-14.81h0Z"/><polygon style="stroke-width:0px;" points="221.36 316.23 219.86 315.03 218.36 316.95 221.36 316.23"/><polygon style="stroke-width:0px;" points="221.36 306.67 219.35 311.89 217.34 305.3 221.36 306.67"/><polygon style="stroke-width:0px;" points="215.59 345.55 213.01 349.94 212.44 344.2 215.59 345.55"/><path style="stroke-width:0px;" d="M202.2,294.79c4.53,0,8.09,1.07,10.87,3.27,1.54,1.22,2.66,2.74,3.38,4.61h-3.25c-.67-1.64-1.57-3.04-2.71-4.18-2.03-2.03-4.83-3.05-8.32-3.05-5.05,0-7.95,2.34-9.49,4.31-1.11,1.42-3.71,5.23-3.71,9.92,0,3.6.94,6.73,2.79,9.32,2.91,4.06,8.46,4.06,10.29,4.06s4.6-.33,6.73-.79c1.16-.25,2.4-.99,3.31-1.62l4.38-.19-4.16,21.11h-24.09v-1.02h23.17l.11-3.88.27-9.35.09-3.12-3-.85c-.7-.2-1.47-.29-2.44-.29-.4,0-.83.02-1.3.05-.84.06-1.63.18-2.4.29-1.05.16-2.03.31-3.15.31-3.76,0-6.94-1.16-9.73-3.55-2.6-2.23-3.87-5.53-3.87-10.09,0-4.04,1.34-7.57,4.1-10.77,2.6-3.03,6.57-4.5,12.12-4.5M202.2,290.79c-6.73,0-11.78,1.96-15.16,5.89-3.38,3.93-5.07,8.39-5.07,13.38,0,5.74,1.75,10.11,5.26,13.12,3.51,3.01,7.62,4.51,12.33,4.51,2.33,0,4.1-.5,5.82-.61.38-.03.72-.04,1.03-.04.57,0,1.02.04,1.35.14l-.27,9.35h-23.29v9.02h31.37l5.77-29.33-10.71.46c-.99.83-2.17,1.54-2.73,1.65-1.96.42-4.53.7-5.89.7-2.88,0-5.67-.49-7.04-2.39-1.36-1.9-2.04-4.23-2.04-6.99s1.4-5.6,2.85-7.45c1.45-1.85,3.57-2.78,6.34-2.78,2.41,0,4.24.63,5.5,1.88,1.26,1.25,2.11,3.04,2.55,5.35h11.15c-.39-5.07-2.33-8.98-5.81-11.74-3.48-2.76-7.93-4.14-13.35-4.14h0Z"/><path style="stroke-width:0px;;fill:#fff;" d="M178.43,348.34v-11.81h22.78l.18-6.26c-.21,0-.44.01-.69.03-.59.04-1.22.14-1.89.24-1.12.17-2.39.36-3.89.36-4.95,0-9.33-1.6-13.02-4.77-3.76-3.22-5.66-7.92-5.66-13.95,0-5.22,1.79-9.95,5.31-14.05,3.58-4.16,8.94-6.27,15.94-6.27,5.61,0,10.31,1.47,13.97,4.37,3.72,2.95,5.82,7.17,6.24,12.53l.12,1.62h-13.75l-.23-1.22c-.38-1.95-1.07-3.44-2.08-4.45-.93-.93-2.38-1.4-4.31-1.4-2.24,0-3.88.7-5.01,2.14-1.22,1.55-1.81,3.48-1.81,5.9s.58,4.36,1.71,5.95c1.04,1.45,2.67,2.16,4.99,2.16,1.16,0,3.56-.25,5.43-.65.24-.07,1.14-.56,2.02-1.3l.39-.33,12.87-.56-6.24,31.72h-33.37Z"/><path style="stroke-width:0px;" d="M197.49,293.37c5.29,0,9.64,1.35,13.04,4.04,3.4,2.69,5.29,6.52,5.67,11.47h-10.89c-.43-2.26-1.27-4-2.49-5.22-1.23-1.23-3.02-1.84-5.37-1.84-2.71,0-4.77.9-6.19,2.71-1.42,1.81-2.13,4.08-2.13,6.83s.66,4.97,1.99,6.83,3.4,2.78,6.21,2.78c1.33,0,3.83-.27,5.75-.69.54-.12,1.7-.81,2.66-1.62l10.45-.45-5.64,28.64h-30.64v-8.81h22.74l.27-9.13c-.33-.09-.77-.14-1.32-.14-.3,0-.64.01-1.01.04-1.68.11-3.41.6-5.68.6-4.6,0-8.61-1.47-12.04-4.4-3.43-2.94-5.14-7.21-5.14-12.81,0-4.88,1.65-9.23,4.95-13.07,3.3-3.83,8.23-5.75,14.8-5.75M197.49,290.37c-7.45,0-13.2,2.29-17.08,6.8-3.76,4.38-5.67,9.43-5.67,15.02,0,6.5,2.08,11.57,6.19,15.09,3.97,3.4,8.68,5.13,13.99,5.13,1.61,0,2.94-.2,4.12-.38.28-.04.55-.08.81-.12l-.09,3.13h-22.82v14.81h36.1l.48-2.42,5.64-28.64.74-3.74-3.81.17-10.45.45-1.01.04-.78.65c-.62.52-1.25.89-1.5,1.01-1.7.36-3.93.59-4.99.59-2.4,0-3.3-.87-3.77-1.53-.96-1.35-1.43-3.01-1.43-5.08s.49-3.7,1.49-4.97c.53-.67,1.5-1.56,3.83-1.56,1.52,0,2.61.32,3.25.96.79.79,1.35,2.02,1.67,3.67l.47,2.43h16.61l-.25-3.23c-.45-5.79-2.74-10.37-6.8-13.59-3.93-3.11-8.94-4.69-14.9-4.69h0Z"/></g></svg>