<?xml version="1.0" encoding="UTF-8"?><svg id="Layer_2" xmlns="http://www.w3.org/2000/svg" viewBox="0 0 248 380"><defs><style>.cls-1{stroke-width:7px;}.cls-1,.cls-2{stroke:#000;stroke-linecap:round;stroke-linejoin:round;}.cls-1,.cls-2,.cls-3{fill:#fff;}.cls-4,.cls-3,.cls-5{stroke-width:0px;}.cls-2{stroke-width:3px;}.cls-5{fill:#f4e808;}</style></defs><g id="_6"><g id="Base_Yellow"><rect style="fill:#fff;;stroke-width:0px;" x="0" y="0" width="248" height="380" rx="24.66" ry="24.66" transform="translate(248 380) rotate(-180)"/><path style="stroke-width:0px;;fill:#f4e808;" d="M16.75,311.85c1.59,1.9,2.37,2.66,2.96,3.56,14.15,21.4,34.52,28.02,58.81,23.99,29.27-4.86,52.77-20.9,74.1-40.41,35.64-32.59,60.53-72.35,77.03-117.57.44-1.21.92-2.41,2.27-3.61.08,1.66.22,3.33.22,4.99.01,51.52,0,103.03,0,154.55,0,17.49-8.4,25.81-26.05,25.81-43.99,0-87.99,0-131.98,0-11.12,0-22.25.07-33.37-.02-15.16-.12-23.98-9.12-24.01-24.34-.02-8.55,0-17.11,0-26.96Z"/><path style="stroke-width:0px;;fill:#f4e808;" d="M17.84,262.97c-.22-22.83,5.07-44.14,12.18-65.14,14.66-43.34,38.94-80.51,71.97-111.92,17.36-16.51,36.77-30,60.24-36.6,33.37-9.38,60.58,7.27,67.85,41.25,5.55,25.92,2.32,51.33-5.28,76.12-17,55.51-46.61,102.96-92.5,139.29-16.58,13.13-34.86,23.14-56.39,25.61-22.61,2.59-42.13-8.78-51.22-29.69-5.47-12.58-7.13-25.82-6.85-38.93Z"/><path style="stroke-width:0px;;fill:#f4e808;" d="M232.16,67.18c-1.54-1.9-2.18-2.58-2.68-3.34-14.21-21.58-34.65-28.39-59.18-24.22-30.32,5.16-54.41,22.08-76.25,42.53-34.47,32.28-58.74,71.29-74.76,115.58-.49,1.36-1.04,2.71-2.31,4.03-.08-1.53-.23-3.06-.23-4.58-.01-52.01-.01-104.03,0-156.04,0-16.61,8.58-25.29,25.05-25.3,55.11-.01,110.23-.01,165.34,0,16.45,0,25.01,8.7,25.02,25.32,0,8.21,0,16.41,0,26.01Z"/></g><rect style="stroke-width:7px;;stroke:#000;stroke-linecap:round;stroke-linejoin:round;;fill:#fff;" x="79.94" y="230.88" width="89.02" height="22.84" rx="10.36" ry="10.36"/><path style="stroke-width:0px;" d="M122.56,119.74c10.38,0,18.66,2.51,24.83,7.52,6.17,5.02,7.9-1.28,8.68,7.05l-9.69.35c0-1.7-4.14-1.72-5.53-3.76-1.32-1.84-6.15-2.25-11-2.25-3.84,0-7.68.25-9.79.25-7.15,0-9.19,11.61-12.23,19.17-1.65,4.17-2.78,10.32-3.39,18.46,2.72-3.05,5.89-5.28,9.48-6.69,1.33-.52,2.21-.68,3.02-.68,1.38,0,2.57.48,5.49.48,9.92,0,15.61,2.72,21.95,9.07,6.35,6.35,15.8,13.01,15.8,22.9s-3.11,18.51-9.33,26.02c-3.54,4.28-8.3,5.2-14.17,5.2-4.43,0-9.49-.53-15.13-.53-2.23,0-4.36.03-6.39.03-10.8,0-18.83-.74-24.45-10.08-5.19-8.67-7.79-19.87-7.79-33.58,0-8.04.36-14.58,1.08-19.63,1.29-8.96,3.78-16.43,7.48-22.39,3.19-5.09,7.36-9.18,12.53-12.28,5.17-3.1,11.35-4.65,18.55-4.65M122.56,112.74c-8.45,0-15.9,1.9-22.15,5.65-6.1,3.66-11.1,8.56-14.86,14.57-4.21,6.78-7.06,15.22-8.48,25.11-.77,5.42-1.15,12.17-1.15,20.62,0,14.93,2.95,27.44,8.78,37.18,8.12,13.48,21.03,13.48,30.46,13.48,1.01,0,2.04,0,3.09-.01,1.08,0,2.18-.01,3.3-.01,2.81,0,5.5.14,8.11.28,2.45.13,4.76.25,7.02.25,6.12,0,13.88-.88,19.56-7.73,7.26-8.76,10.94-19.02,10.94-30.49s-8.02-18.64-14.46-24.63c-1.22-1.13-2.36-2.2-3.39-3.22-8-8-15.55-11.12-26.9-11.12-1.21,0-1.91-.11-2.73-.23-.79-.12-1.68-.25-2.76-.25s-2.13.13-3.25.41c.23-.77.45-1.41.66-1.94.69-1.71,1.32-3.59,1.93-5.41.89-2.65,2.71-8.05,4.1-9.33.97,0,2.13-.05,3.46-.1,1.85-.07,3.95-.15,6.02-.15,3.68,0,5.46.27,6.23.44,1.04,1.09,2.22,1.84,3.3,2.38v3.44l7.25-.26,9.69-.35,7.4-.27-.68-7.37c-.3-3.26-1.01-10.9-9.65-11.15-.64-.02-.75-.02-1.58-.69-7.42-6.03-17.26-9.09-29.25-9.09h0Z"/><path style="fill:#fff;;stroke-width:0px;" d="M125.88,227.96c-14.96,0-26.16-6.01-33.29-17.86-5.41-9.03-8.15-20.76-8.15-34.87,0-8.12.37-14.84,1.1-19.98,1.33-9.27,3.96-17.13,7.83-23.35,3.39-5.41,7.88-9.82,13.37-13.11,5.54-3.32,12.21-5.01,19.83-5.01,10.92,0,19.81,2.72,26.41,8.08,6.68,5.43,10.49,12.74,11.32,21.73.06.7-.17,1.4-.64,1.91-.47.52-1.14.82-1.85.82h-21.9c-1.38,0-2.5-1.12-2.5-2.5,0-1.18-.55-2.59-1.65-4.19-1.85-2.58-4.69-3.85-8.65-3.85-6.08,0-10.31,3.2-12.95,9.77-1.1,2.78-1.96,6.61-2.59,11.42,1.7-1.18,3.52-2.16,5.45-2.91,3.87-1.51,8.33-2.28,13.25-2.28,10.56,0,19.37,3.45,26.17,10.25,6.81,6.81,10.26,15.59,10.26,26.12s-3.33,19.68-9.91,27.62c-6.69,8.08-17.09,12.17-30.92,12.17ZM125.42,173.37c-3.23,0-6,.89-8.46,2.71-3.68,2.69-5.47,7.02-5.47,13.26,0,5.07,1.38,9.07,4.21,12.21,2.77,3.07,6.2,4.55,10.48,4.55s7.26-1.4,9.58-4.27c2.42-2.99,3.65-7,3.65-11.91,0-5.45-1.37-9.62-4.07-12.39-2.72-2.79-5.97-4.15-9.93-4.15Z"/><path style="stroke-width:0px;" d="M126.57,116.28c10.38,0,18.66,2.51,24.83,7.52,6.17,5.02,9.64,11.69,10.41,20.03h-21.9c0-1.7-.69-3.56-2.08-5.6-2.36-3.3-5.94-4.94-10.72-4.94-7.15,0-12.24,3.78-15.27,11.34-1.65,4.17-2.78,10.32-3.39,18.46,2.72-3.05,5.89-5.28,9.48-6.69,3.6-1.41,7.71-2.11,12.34-2.11,9.92,0,18.06,3.17,24.41,9.52,6.35,6.35,9.52,14.46,9.52,24.35s-3.11,18.51-9.33,26.02c-6.22,7.51-15.88,11.27-28.99,11.27-14.09,0-24.47-5.55-31.15-16.65-5.19-8.67-7.79-19.87-7.79-33.58,0-8.04.36-14.58,1.08-19.63,1.29-8.96,3.78-16.43,7.48-22.39,3.19-5.09,7.36-9.18,12.53-12.28,5.17-3.1,11.35-4.65,18.55-4.65M126.19,208.6c4.88,0,8.73-1.73,11.53-5.2,2.8-3.46,4.2-7.96,4.2-13.48,0-6.15-1.59-10.87-4.78-14.14-3.19-3.27-7.09-4.91-11.72-4.91-3.75,0-7.07,1.07-9.95,3.2-4.32,3.15-6.48,8.24-6.48,15.26,0,5.67,1.62,10.3,4.86,13.88,3.24,3.59,7.35,5.38,12.34,5.38M126.57,111.28c-8.08,0-15.19,1.8-21.12,5.36-5.82,3.5-10.6,8.18-14.2,13.92-4.06,6.54-6.81,14.72-8.19,24.33-.75,5.25-1.13,12.09-1.13,20.34,0,14.57,2.86,26.73,8.5,36.15,7.63,12.66,19.55,19.08,35.44,19.08,14.61,0,25.66-4.4,32.84-13.08,6.95-8.4,10.48-18.22,10.48-29.21s-3.7-20.59-10.99-27.89c-7.29-7.29-16.69-10.99-27.94-10.99-5.23,0-9.99.82-14.16,2.45-.42.16-.84.34-1.25.52.46-2.3,1-4.23,1.62-5.8,2.91-7.24,7.2-8.17,10.62-8.17,4.08,0,5.73,1.59,6.62,2.81,1.06,1.57,1.18,2.43,1.18,2.73,0,2.76,2.24,5,5,5h21.9c1.41,0,2.75-.59,3.69-1.63.95-1.04,1.41-2.43,1.28-3.83-.9-9.68-5.01-17.57-12.23-23.44-7.05-5.74-16.47-8.64-27.98-8.64h0ZM126.19,203.6c-3.59,0-6.33-1.19-8.63-3.73-2.4-2.66-3.57-6.1-3.57-10.53,0-5.38,1.45-9.05,4.42-11.23,2.04-1.51,4.32-2.24,7-2.24,3.3,0,5.88,1.08,8.14,3.4,2.23,2.29,3.36,5.87,3.36,10.65,0,4.39-1.01,7.77-3.09,10.34-1.84,2.28-4.27,3.34-7.64,3.34h0Z"/><rect style="stroke:#000;stroke-linecap:round;stroke-linejoin:round;;fill:#fff;;stroke-width:3px;" x="31.25" y="80.03" width="42.13" height="10.81" rx="5.4" ry="5.4"/><path style="stroke-width:0px;" d="M51.42,27.44c4.91,0,8.83,1.19,11.75,3.56,2.92,2.37,3.74-.61,4.11,3.34l-4.58.16c0-.8-1.96-.82-2.62-1.78-.62-.87-2.91-1.06-5.21-1.06-1.82,0-3.63.12-4.63.12-3.38,0-4.35,5.5-5.79,9.07-.78,1.97-1.31,4.88-1.61,8.74,1.29-1.44,2.79-2.5,4.49-3.16.63-.25,1.04-.32,1.43-.32.66,0,1.22.23,2.6.23,4.7,0,7.39,1.29,10.39,4.29,3,3,7.48,6.16,7.48,10.84s-1.47,8.76-4.42,12.31c-2.25,2.72-5.55,3.04-9.76,3.04-1.29,0-2.66-.03-4.11-.03-6.67,0-10.83-.28-13.99-5.53-2.46-4.1-4.29-9.42-4.29-15.91,0-3.81.17-6.9.51-9.29.61-4.24,1.79-7.77,3.54-10.59,1.51-2.41,3.49-4.35,5.93-5.81,2.45-1.47,5.37-2.2,8.78-2.2M51.42,24.44c-3.94,0-7.41.88-10.32,2.63-2.84,1.71-5.17,3.99-6.93,6.79-1.97,3.17-3.3,7.13-3.97,11.76-.36,2.52-.54,5.78-.54,9.71,0,6.35,1.59,12.22,4.72,17.46,4.21,6.99,10.49,6.99,16.56,6.99.74,0,1.45,0,2.15.02.67,0,1.33.01,1.96.01,4.38,0,8.91-.32,12.07-4.13,3.39-4.09,5.11-8.88,5.11-14.23s-3.74-8.63-6.74-11.43c-.58-.54-1.12-1.04-1.61-1.53-3.72-3.72-7.23-5.17-12.51-5.17-.6,0-.96-.05-1.34-.11-.36-.05-.77-.12-1.26-.12-.65,0-1.28.11-1.99.34.15-.56.3-1.06.47-1.49.32-.8.62-1.69.91-2.55.46-1.36,1.41-4.17,2.12-4.63.48,0,1.07-.02,1.74-.05.88-.03,1.88-.07,2.86-.07,1.91,0,2.77.15,3.11.24.53.58,1.16.95,1.71,1.21v1.5l3.11-.11,4.58-.16,3.17-.11-.29-3.16c-.15-1.59-.45-4.88-4.26-4.99-.35,0-.46-.01-.94-.4-3.45-2.81-8.04-4.23-13.64-4.23h0Z"/><path style="fill:#fff;;stroke-width:0px;" d="M52.99,78.47c-7.01,0-12.26-2.81-15.6-8.36-2.54-4.25-3.83-9.76-3.83-16.41,0-3.83.18-7.01.52-9.43.62-4.36,1.86-8.06,3.68-10.98,1.59-2.53,3.69-4.6,6.26-6.14,2.59-1.56,5.72-2.34,9.29-2.34,5.13,0,9.29,1.27,12.38,3.78,3.12,2.54,4.9,5.96,5.29,10.16.03.28-.07.56-.26.77-.19.21-.46.33-.74.33h-10.36c-.55,0-1-.45-1-1,0-.59-.27-1.3-.81-2.08-.91-1.27-2.31-1.9-4.25-1.9-2.96,0-5.02,1.55-6.3,4.74-.56,1.41-.99,3.38-1.29,5.87.89-.66,1.85-1.2,2.88-1.6,1.81-.71,3.9-1.07,6.2-1.07,4.95,0,9.07,1.61,12.26,4.8,3.19,3.19,4.8,7.3,4.8,12.23s-1.56,9.23-4.65,12.95c-3.13,3.78-8,5.69-14.49,5.69ZM52.77,52.64c-1.57,0-2.92.43-4.11,1.32-1.79,1.31-2.66,3.41-2.66,6.42,0,2.45.67,4.38,2.04,5.9,1.35,1.49,3.01,2.22,5.1,2.22s3.54-.68,4.68-2.09c1.17-1.45,1.77-3.38,1.77-5.75,0-2.63-.67-4.65-1.98-5.99-1.32-1.36-2.9-2.02-4.83-2.02Z"/><path style="stroke-width:0px;" d="M53.32,25.8c4.91,0,8.83,1.19,11.75,3.56,2.92,2.37,4.56,5.53,4.93,9.48h-10.36c0-.8-.33-1.69-.99-2.65-1.12-1.56-2.81-2.34-5.07-2.34-3.38,0-5.79,1.79-7.23,5.37-.78,1.97-1.31,4.88-1.61,8.74,1.29-1.44,2.79-2.5,4.49-3.16,1.7-.67,3.65-1,5.84-1,4.7,0,8.55,1.5,11.55,4.51,3,3,4.51,6.85,4.51,11.52s-1.47,8.76-4.42,12.31c-2.94,3.55-7.52,5.33-13.72,5.33-6.67,0-11.58-2.63-14.74-7.88-2.46-4.1-3.69-9.4-3.69-15.89,0-3.81.17-6.9.51-9.29.61-4.24,1.79-7.77,3.54-10.59,1.51-2.41,3.49-4.35,5.93-5.81,2.45-1.47,5.37-2.2,8.78-2.2M53.14,69.49c2.31,0,4.13-.82,5.46-2.46,1.33-1.64,1.99-3.77,1.99-6.38,0-2.91-.75-5.14-2.26-6.69-1.51-1.55-3.36-2.32-5.55-2.32-1.78,0-3.35.5-4.71,1.51-2.04,1.49-3.07,3.9-3.07,7.22,0,2.68.77,4.87,2.3,6.57,1.53,1.7,3.48,2.55,5.84,2.55M53.32,23.8c-3.76,0-7.06.84-9.81,2.49-2.71,1.62-4.93,3.8-6.6,6.47-1.89,3.05-3.18,6.87-3.82,11.37-.35,2.47-.53,5.69-.53,9.57,0,6.83,1.34,12.52,3.97,16.92,3.54,5.87,9.07,8.85,16.46,8.85,6.8,0,11.93-2.04,15.26-6.06,3.24-3.91,4.88-8.48,4.88-13.59s-1.71-9.56-5.09-12.94c-3.38-3.38-7.74-5.09-12.96-5.09-2.43,0-4.64.38-6.57,1.13-.42.16-.82.34-1.22.55.25-1.43.56-2.6.92-3.52,1.47-3.67,3.77-4.1,5.37-4.1,2.12,0,2.98.86,3.45,1.51.38.56.61,1.1.61,1.48,0,1.1.9,2,2,2h10.36c.56,0,1.1-.24,1.48-.65s.57-.97.51-1.53c-.41-4.48-2.32-8.13-5.66-10.84-3.27-2.66-7.65-4.01-13.01-4.01h0ZM53.14,67.49c-1.78,0-3.21-.62-4.35-1.89-1.2-1.33-1.78-3.04-1.78-5.23,0-2.67.73-4.51,2.24-5.61,1.03-.76,2.18-1.13,3.53-1.13,1.64,0,2.99.56,4.11,1.72,1.12,1.15,1.69,2.94,1.69,5.29,0,2.16-.5,3.84-1.54,5.12-.95,1.17-2.19,1.72-3.9,1.72h0Z"/><rect style="stroke:#000;stroke-linecap:round;stroke-linejoin:round;;fill:#fff;;stroke-width:3px;" x="174.62" y="289.16" width="42.13" height="10.81" rx="5.4" ry="5.4" transform="translate(391.38 589.12) rotate(-180)"/><path style="stroke-width:0px;" d="M192.94,303.19c1.29,0,2.66.03,4.11.03,6.67,0,10.83.28,13.99,5.53,2.46,4.1,4.29,9.42,4.29,15.91,0,3.81-.17,6.9-.51,9.29-.61,4.24-1.79,7.77-3.54,10.59-1.51,2.41-3.49,4.35-5.93,5.81-2.45,1.47-5.37,2.2-8.78,2.2-4.91,0-8.83-1.19-11.75-3.56-2.92-2.37-3.74.61-4.11-3.34l4.58-.16c0,.8,1.96.82,2.62,1.78.62.87,2.91,1.06,5.21,1.06,1.82,0,3.63-.12,4.63-.12,3.38,0,4.35-5.5,5.79-9.07.78-1.97,1.31-4.88,1.61-8.74-1.29,1.44-2.79,2.5-4.49,3.16-.63.25-1.04.32-1.43.32-.66,0-1.22-.23-2.6-.23-4.7,0-7.39-1.29-10.39-4.29-3-3-7.48-6.16-7.48-10.84s1.47-8.76,4.42-12.31c2.25-2.72,5.55-3.04,9.76-3.04M192.94,300.19c-4.38,0-8.91.32-12.07,4.13-3.39,4.09-5.11,8.88-5.11,14.23s3.74,8.63,6.74,11.43c.58.54,1.12,1.04,1.61,1.53,3.72,3.72,7.23,5.17,12.51,5.17.6,0,.96.05,1.34.11.36.05.77.12,1.26.12.65,0,1.28-.11,1.99-.34-.15.56-.3,1.06-.47,1.49-.32.8-.62,1.69-.91,2.55-.46,1.36-1.41,4.17-2.12,4.63-.48,0-1.07.02-1.74.05-.88.03-1.88.07-2.86.07-1.91,0-2.77-.15-3.11-.24-.53-.58-1.16-.95-1.71-1.21v-1.5l-3.11.11-4.58.16-3.17.11.29,3.16c.15,1.59.45,4.88,4.26,4.99.35,0,.46.01.94.4,3.45,2.81,8.04,4.23,13.64,4.23,3.94,0,7.41-.88,10.32-2.63,2.84-1.71,5.17-3.99,6.93-6.79,1.97-3.17,3.3-7.13,3.97-11.76.36-2.52.54-5.78.54-9.71,0-6.35-1.59-12.22-4.72-17.46-4.21-6.99-10.49-6.99-16.56-6.99-.74,0-1.45,0-2.15-.02-.67,0-1.33-.01-1.96-.01h0Z"/><path style="fill:#fff;;stroke-width:0px;" d="M194.68,355.2c-5.13,0-9.29-1.27-12.38-3.78-3.12-2.54-4.9-5.96-5.29-10.16-.03-.28.07-.56.26-.77s.46-.33.74-.33h10.36c.55,0,1,.45,1,1,0,.59.27,1.3.81,2.08.92,1.27,2.31,1.9,4.25,1.9,2.96,0,5.02-1.55,6.3-4.74.56-1.41.99-3.38,1.29-5.87-.89.66-1.85,1.2-2.88,1.6-1.81.71-3.9,1.07-6.2,1.07-4.95,0-9.07-1.62-12.26-4.8-3.18-3.18-4.8-7.3-4.8-12.23s1.56-9.23,4.64-12.95c3.13-3.78,8.01-5.69,14.49-5.69,7.01,0,12.26,2.81,15.6,8.36,2.54,4.25,3.83,9.77,3.83,16.41,0,3.84-.17,7.01-.52,9.43-.63,4.36-1.86,8.06-3.68,10.98-1.59,2.53-3.69,4.6-6.26,6.14-2.59,1.56-5.72,2.34-9.29,2.34ZM194.86,311.51c-2.01,0-3.54.68-4.68,2.09-1.17,1.45-1.77,3.38-1.77,5.75,0,2.63.67,4.64,1.98,5.99,1.32,1.36,2.9,2.02,4.83,2.02,1.57,0,2.92-.43,4.11-1.32,1.79-1.31,2.66-3.41,2.66-6.42,0-2.45-.67-4.38-2.04-5.9-1.35-1.49-3.01-2.21-5.1-2.21Z"/><path style="stroke-width:0px;" d="M195.01,302.53c6.67,0,11.58,2.63,14.74,7.88,2.46,4.1,3.69,9.4,3.69,15.89,0,3.81-.17,6.9-.51,9.29-.61,4.24-1.79,7.77-3.54,10.59-1.51,2.41-3.49,4.35-5.93,5.81-2.45,1.47-5.37,2.2-8.78,2.2-4.91,0-8.83-1.19-11.75-3.56-2.92-2.37-4.56-5.53-4.93-9.48h10.36c0,.8.33,1.69.99,2.65,1.12,1.56,2.81,2.34,5.07,2.34,3.38,0,5.79-1.79,7.23-5.37.78-1.97,1.31-4.88,1.61-8.74-1.29,1.44-2.79,2.5-4.49,3.16-1.7.67-3.65,1-5.84,1-4.7,0-8.55-1.5-11.55-4.51-3-3-4.51-6.85-4.51-11.52s1.47-8.76,4.42-12.31c2.94-3.55,7.52-5.33,13.72-5.33M195.23,328.36c1.78,0,3.35-.5,4.71-1.51,2.04-1.49,3.07-3.9,3.07-7.22,0-2.68-.77-4.87-2.3-6.57-1.53-1.7-3.48-2.55-5.84-2.55s-4.13.82-5.46,2.46c-1.33,1.64-1.99,3.77-1.99,6.38,0,2.91.75,5.14,2.26,6.69,1.51,1.55,3.36,2.32,5.55,2.32M195.01,300.53c-6.8,0-11.93,2.04-15.26,6.06-3.24,3.91-4.88,8.48-4.88,13.59s1.71,9.56,5.09,12.94c3.38,3.38,7.74,5.09,12.96,5.09,2.43,0,4.64-.38,6.57-1.13.42-.16.82-.34,1.22-.55-.25,1.43-.56,2.6-.92,3.52-1.47,3.67-3.77,4.1-5.37,4.1-2.12,0-2.98-.86-3.45-1.51-.38-.56-.61-1.1-.61-1.48,0-1.1-.9-2-2-2h-10.36c-.56,0-1.1.24-1.48.65-.38.42-.57.97-.51,1.53.41,4.48,2.32,8.13,5.66,10.84,3.27,2.66,7.65,4.01,13.01,4.01,3.76,0,7.06-.84,9.81-2.49,2.71-1.62,4.93-3.8,6.6-6.47,1.89-3.05,3.18-6.87,3.82-11.37.35-2.47.53-5.69.53-9.57,0-6.83-1.34-12.52-3.97-16.92-3.54-5.87-9.07-8.85-16.46-8.85h0ZM195.23,326.36c-1.64,0-2.99-.56-4.11-1.72-1.12-1.15-1.69-2.94-1.69-5.29,0-2.16.51-3.84,1.54-5.12.95-1.17,2.19-1.72,3.9-1.72s3.21.62,4.35,1.89c1.2,1.33,1.78,3.04,1.78,5.23,0,2.67-.73,4.51-2.24,5.61-1.03.76-2.18,1.13-3.53,1.13h0Z"/></g></svg>