<?xml version="1.0" encoding="UTF-8"?><svg id="Layer_2" xmlns="http://www.w3.org/2000/svg" viewBox="0 0 248 380"><defs><style>.cls-1,.cls-2,.cls-3,.cls-4,.cls-5{stroke-width:0px;}.cls-2{fill:#084aa3;}.cls-3{fill:#c40c00;}.cls-4{fill:#fff;}.cls-5{fill:#f4e808;}</style></defs><g id="_7"><g id="Base_Yellow"><rect style="stroke-width:0px;;fill:#fff;" x="0" y="0" width="248" height="380" rx="24.66" ry="24.66" transform="translate(248 380) rotate(-180)"/><path style="stroke-width:0px;;fill:#f4e808;" d="M16.75,311.85c1.59,1.9,2.37,2.66,2.96,3.56,14.15,21.4,34.52,28.02,58.81,23.99,29.27-4.86,52.77-20.9,74.1-40.41,35.64-32.59,60.53-72.35,77.03-117.57.44-1.21.92-2.41,2.27-3.61.08,1.66.22,3.33.22,4.99.01,51.52,0,103.03,0,154.55,0,17.49-8.4,25.81-26.05,25.81-43.99,0-87.99,0-131.98,0-11.12,0-22.25.07-33.37-.02-15.16-.12-23.98-9.12-24.01-24.34-.02-8.55,0-17.11,0-26.96Z"/><path style="stroke-width:0px;;fill:#f4e808;" d="M17.84,262.97c-.22-22.83,5.07-44.14,12.18-65.14,14.66-43.34,38.94-80.51,71.97-111.92,17.36-16.51,36.77-30,60.24-36.6,33.37-9.38,60.58,7.27,67.85,41.25,5.55,25.92,2.32,51.33-5.28,76.12-17,55.51-46.61,102.96-92.5,139.29-16.58,13.13-34.86,23.14-56.39,25.61-22.61,2.59-42.13-8.78-51.22-29.69-5.47-12.58-7.13-25.82-6.85-38.93Z"/><path style="stroke-width:0px;;fill:#f4e808;" d="M232.16,67.18c-1.54-1.9-2.18-2.58-2.68-3.34-14.21-21.58-34.65-28.39-59.18-24.22-30.32,5.16-54.41,22.08-76.25,42.53-34.47,32.28-58.74,71.29-74.76,115.58-.49,1.36-1.04,2.71-2.31,4.03-.08-1.53-.23-3.06-.23-4.58-.01-52.01-.01-104.03,0-156.04,0-16.61,8.58-25.29,25.05-25.3,55.11-.01,110.23-.01,165.34,0,16.45,0,25.01,8.7,25.02,25.32,0,8.21,0,16.41,0,26.01Z"/></g><g id="Base_Blue"><rect style="stroke-width:0px;;fill:#fff;" x="0" y="0" width="248" height="380" rx="24.66" ry="24.66" transform="translate(248 380) rotate(-180)"/><path style="stroke-width:0px;;fill:#084aa3;" d="M16.75,311.85c1.59,1.9,2.37,2.66,2.96,3.56,14.15,21.4,34.52,28.02,58.81,23.99,29.27-4.86,52.77-20.9,74.1-40.41,35.64-32.59,60.53-72.35,77.03-117.57.44-1.21.92-2.41,2.27-3.61.08,1.66.22,3.33.22,4.99.01,51.52,0,103.03,0,154.55,0,17.49-8.4,25.81-26.05,25.81-43.99,0-87.99,0-131.98,0-11.12,0-22.25.07-33.37-.02-15.16-.12-23.98-9.12-24.01-24.34-.02-8.55,0-17.11,0-26.96Z"/><path style="stroke-width:0px;;fill:#084aa3;" d="M17.84,262.97c-.22-22.83,5.07-44.14,12.18-65.14,14.66-43.34,38.94-80.51,71.97-111.92,17.36-16.51,36.77-30,60.24-36.6,33.37-9.38,60.58,7.27,67.85,41.25,5.55,25.92,2.32,51.33-5.28,76.12-17,55.51-46.61,102.96-92.5,139.29-16.58,13.13-34.86,23.14-56.39,25.61-22.61,2.59-42.13-8.78-51.22-29.69-5.47-12.58-7.13-25.82-6.85-38.93Z"/><path style="stroke-width:0px;;fill:#084aa3;" d="M232.16,67.18c-1.54-1.9-2.18-2.58-2.68-3.34-14.21-21.58-34.65-28.39-59.18-24.22-30.32,5.16-54.41,22.08-76.25,42.53-34.47,32.28-58.74,71.29-74.76,115.58-.49,1.36-1.04,2.71-2.31,4.03-.08-1.53-.23-3.06-.23-4.58-.01-52.01-.01-104.03,0-156.04,0-16.61,8.58-25.29,25.05-25.3,55.11-.01,110.23-.01,165.34,0,16.45,0,25.01,8.7,25.02,25.32,0,8.21,0,16.41,0,26.01Z"/></g><g id="Base_Red"><rect style="stroke-width:0px;;fill:#fff;" x="0" y="0" width="248" height="380" rx="24.66" ry="24.66" transform="translate(248 380) rotate(-180)"/><path style="stroke-width:0px;;fill:#c40c00;" d="M16.75,311.85c1.59,1.9,2.37,2.66,2.96,3.56,14.15,21.4,34.52,28.02,58.81,23.99,29.27-4.86,52.77-20.9,74.1-40.41,35.64-32.59,60.53-72.35,77.03-117.57.44-1.21.92-2.41,2.27-3.61.08,1.66.22,3.33.22,4.99.01,51.52,0,103.03,0,154.55,0,17.49-8.4,25.81-26.05,25.81-43.99,0-87.99,0-131.98,0-11.12,0-22.25.07-33.37-.02-15.16-.12-23.98-9.12-24.01-24.34-.02-8.55,0-17.11,0-26.96Z"/><path style="stroke-width:0px;;fill:#c40c00;" d="M17.84,262.97c-.22-22.83,5.07-44.14,12.18-65.14,14.66-43.34,38.94-80.51,71.97-111.92,17.36-16.51,36.77-30,60.24-36.6,33.37-9.38,60.58,7.27,67.85,41.25,5.55,25.92,2.32,51.33-5.28,76.12-17,55.51-46.61,102.96-92.5,139.29-16.58,13.13-34.86,23.14-56.39,25.61-22.61,2.59-42.13-8.78-51.22-29.69-5.47-12.58-7.13-25.82-6.85-38.93Z"/><path style="stroke-width:0px;;fill:#c40c00;" d="M232.16,67.18c-1.54-1.9-2.18-2.58-2.68-3.34-14.21-21.58-34.65-28.39-59.18-24.22-30.32,5.16-54.41,22.08-76.25,42.53-34.47,32.28-58.74,71.29-74.76,115.58-.49,1.36-1.04,2.71-2.31,4.03-.08-1.53-.23-3.06-.23-4.58-.01-52.01-.01-104.03,0-156.04,0-16.61,8.58-25.29,25.05-25.3,55.11-.01,110.23-.01,165.34,0,16.45,0,25.01,8.7,25.02,25.32,0,8.21,0,16.41,0,26.01Z"/></g><path style="stroke-width:0px;" d="M167.1,133.61v18.66c-3.57,3.51-8.53,9.76-14.89,18.74-6.36,9.04-11.69,18.35-15.98,27.94-3.4,7.53-6.47,16.73-9.2,27.61s-4.1,19.8-4.1,26.77h-24.76c.73-21.75,7.86-44.37,21.42-67.85,8.76-14.56,16.09-24.71,22-30.45h-60.49l.33-21.42h85.67M173.1,127.61h-97.58l-.09,5.91-.33,21.42-.1,6.09h53.55c-4.24,5.64-8.92,12.72-14.12,21.36l-.03.05-.03.05c-13.99,24.23-21.46,48.01-22.22,70.65l-.21,6.2h36.97v-6c0-6.45,1.32-14.96,3.92-25.31,2.63-10.48,5.61-19.43,8.85-26.6,4.13-9.22,9.31-18.28,15.42-26.96,6.11-8.64,10.89-14.67,14.19-17.92l1.79-1.76v-27.17h0Z"/><path style="stroke-width:0px;;fill:#fff;" d="M99.95,252.25l.09-2.58c.74-22.07,8.05-45.29,21.75-69.02,6.99-11.63,13.17-20.57,18.43-26.7h-57.29l.41-26.42h90.63v22.2l-.75.73c-3.45,3.39-8.36,9.58-14.61,18.4-6.23,8.86-11.53,18.12-15.74,27.52-3.33,7.37-6.38,16.52-9.06,27.2-2.67,10.63-4.02,19.43-4.02,26.16v2.5h-29.85Z"/><path style="stroke-width:0px;" d="M171.48,130.03v18.66c-3.57,3.51-8.53,9.76-14.89,18.74-6.36,9.04-11.69,18.35-15.98,27.94-3.4,7.53-6.47,16.73-9.2,27.61-2.73,10.88-4.1,19.8-4.1,26.77h-24.76c.73-21.75,7.86-44.37,21.42-67.85,8.76-14.56,16.09-24.71,22-30.45h-60.49l.33-21.42h85.67M176.48,125.03h-95.6l-.08,4.92-.33,21.42-.08,5.08h54.56c-4.53,5.84-9.59,13.42-15.28,22.88l-.02.04-.02.04c-13.91,24.09-21.34,47.7-22.09,70.19l-.17,5.17h34.93v-5c0-6.53,1.33-15.13,3.95-25.55,2.65-10.54,5.65-19.54,8.91-26.77,4.15-9.27,9.37-18.39,15.51-27.13,6.15-8.69,10.97-14.76,14.31-18.06l1.49-1.47v-25.75h0Z"/><polygon style="stroke-width:0px;" points="75.35 127.56 81.09 125.05 83.09 131.37 75.35 127.56"/><polygon style="stroke-width:0px;" points="128.88 259.21 132.27 254.79 127.93 253.34 128.88 259.21"/><path style="stroke-width:0px;" d="M69.67,34.9v7.29c-1.4,1.37-3.34,3.81-5.82,7.32-2.49,3.53-4.57,7.17-6.25,10.92-1.33,2.94-2.53,6.54-3.6,10.79s-1.6,7.74-1.6,10.46h-9.68c.28-8.5,3.07-17.34,8.37-26.52,3.42-5.69,6.29-9.66,8.6-11.9h-23.64l.13-8.37h33.48M72.67,31.9h-39.44l-.05,2.95-.13,8.37-.05,3.05h20.3c-1.46,2.03-3.05,4.48-4.78,7.36v.02s-.03.02-.03.02c-5.52,9.57-8.47,18.96-8.77,27.92l-.1,3.1h15.78v-3c0-2.47.51-5.74,1.51-9.73,1.02-4.06,2.17-7.52,3.42-10.29,1.6-3.57,3.6-7.07,5.96-10.43,2.37-3.34,4.21-5.67,5.47-6.91l.9-.88v-11.55h0Z"/><path style="stroke-width:0px;;fill:#fff;" d="M42.89,81.79l.05-1.55c.29-8.71,3.17-17.87,8.57-27.22,2.47-4.11,4.63-7.3,6.53-9.65h-21.8l.18-11.37h36.46v9.42l-.45.44c-1.33,1.31-3.23,3.7-5.65,7.12-2.42,3.43-4.47,7.02-6.1,10.67-1.29,2.85-2.47,6.4-3.51,10.54-1.03,4.11-1.56,7.51-1.56,10.1v1.5h-12.73Z"/><path style="stroke-width:0px;" d="M71.38,33.5v7.29c-1.4,1.37-3.34,3.81-5.82,7.32-2.49,3.53-4.57,7.17-6.25,10.92-1.33,2.94-2.53,6.54-3.6,10.79s-1.6,7.74-1.6,10.46h-9.68c.28-8.5,3.07-17.34,8.37-26.52,3.42-5.69,6.29-9.66,8.6-11.9h-23.64l.13-8.37h33.48M74.38,30.5h-39.44l-.05,2.95-.13,8.37-.05,3.05h20.3c-1.46,2.03-3.05,4.48-4.78,7.36v.02s-.03.02-.03.02c-5.52,9.57-8.47,18.96-8.77,27.92l-.1,3.1h15.78v-3c0-2.47.51-5.74,1.51-9.73,1.02-4.06,2.17-7.52,3.42-10.29,1.6-3.57,3.6-7.07,5.96-10.43,2.37-3.34,4.21-5.67,5.47-6.91l.9-.88v-11.55h0Z"/><polygon style="stroke-width:0px;" points="33.18 31.93 34.96 30.52 35.73 33.08 33.18 31.93"/><polygon style="stroke-width:0px;" points="55.33 84.65 57.11 83.27 54.68 82.05 55.33 84.65"/><path style="stroke-width:0px;" d="M205.27,298.31c-.28,8.5-3.07,17.34-8.37,26.52-3.42,5.69-6.29,9.66-8.6,11.9h23.64l-.13,8.37h-33.48v-7.29c1.4-1.37,3.34-3.81,5.82-7.32,2.49-3.53,4.57-7.17,6.25-10.92,1.33-2.94,2.53-6.54,3.6-10.79,1.07-4.25,1.6-7.74,1.6-10.46h9.68M208.37,295.31h-15.78v3c0,2.47-.51,5.74-1.51,9.73-1.02,4.06-2.17,7.52-3.42,10.29-1.6,3.57-3.6,7.07-5.96,10.43-2.37,3.34-4.21,5.67-5.47,6.91l-.9.88v11.55h39.44l.05-2.95.13-8.37.05-3.05h-20.3c1.46-2.03,3.05-4.48,4.78-7.36v-.02s.03-.02.03-.02c5.52-9.57,8.47-18.96,8.77-27.92l.1-3.1h0Z"/><path style="stroke-width:0px;;fill:#fff;" d="M175.12,348v-9.42l.45-.44c1.33-1.31,3.23-3.7,5.65-7.12,2.42-3.43,4.47-7.02,6.1-10.67,1.29-2.85,2.47-6.4,3.51-10.54,1.03-4.11,1.56-7.51,1.56-10.1v-1.5h12.73l-.05,1.55c-.29,8.71-3.17,17.87-8.57,27.22-2.47,4.11-4.63,7.3-6.53,9.65h21.8l-.18,11.37h-36.46Z"/><path style="stroke-width:0px;" d="M203.56,299.71c-.28,8.5-3.07,17.34-8.37,26.52-3.42,5.69-6.29,9.66-8.6,11.9h23.64l-.13,8.37h-33.48v-7.29c1.4-1.37,3.34-3.81,5.82-7.32,2.49-3.53,4.57-7.17,6.25-10.92,1.33-2.94,2.53-6.54,3.6-10.79,1.07-4.25,1.6-7.74,1.6-10.46h9.68M206.66,296.71h-15.78v3c0,2.47-.51,5.74-1.51,9.73-1.02,4.06-2.17,7.52-3.42,10.29-1.6,3.57-3.6,7.07-5.96,10.43-2.37,3.34-4.21,5.67-5.47,6.91l-.9.88v11.55h39.44l.05-2.95.13-8.37.05-3.05h-20.3c1.46-2.03,3.05-4.48,4.78-7.36v-.02s.03-.02.03-.02c5.52-9.57,8.47-18.96,8.77-27.92l.1-3.1h0Z"/><polygon style="stroke-width:0px;" points="214.82 348.07 213.04 349.48 212.27 346.92 214.82 348.07"/><polygon style="stroke-width:0px;" points="192.67 295.35 190.89 296.73 193.32 297.95 192.67 295.35"/></g></svg>