<?xml version="1.0" encoding="UTF-8"?><svg id="Layer_2" xmlns="http://www.w3.org/2000/svg" viewBox="0 0 248 380"><defs><style>.cls-1,.cls-2,.cls-3,.cls-4,.cls-5{stroke-width:0px;}.cls-2{fill:#084aa3;}.cls-3{fill:#c40c00;}.cls-4{fill:#fff;}.cls-5{fill:#f4e808;}</style></defs><g id="_8"><g id="Base_Yellow"><rect style="stroke-width:0px;;fill:#fff;" x="0" y="0" width="248" height="380" rx="24.66" ry="24.66" transform="translate(248 380) rotate(-180)"/><path style="stroke-width:0px;;fill:#f4e808;" d="M16.75,311.85c1.59,1.9,2.37,2.66,2.96,3.56,14.15,21.4,34.52,28.02,58.81,23.99,29.27-4.86,52.77-20.9,74.1-40.41,35.64-32.59,60.53-72.35,77.03-117.57.44-1.21.92-2.41,2.27-3.61.08,1.66.22,3.33.22,4.99.01,51.52,0,103.03,0,154.55,0,17.49-8.4,25.81-26.05,25.81-43.99,0-87.99,0-131.98,0-11.12,0-22.25.07-33.37-.02-15.16-.12-23.98-9.12-24.01-24.34-.02-8.55,0-17.11,0-26.96Z"/><path style="stroke-width:0px;;fill:#f4e808;" d="M17.84,262.97c-.22-22.83,5.07-44.14,12.18-65.14,14.66-43.34,38.94-80.51,71.97-111.92,17.36-16.51,36.77-30,60.24-36.6,33.37-9.38,60.58,7.27,67.85,41.25,5.55,25.92,2.32,51.33-5.28,76.12-17,55.51-46.61,102.96-92.5,139.29-16.58,13.13-34.86,23.14-56.39,25.61-22.61,2.59-42.13-8.78-51.22-29.69-5.47-12.58-7.13-25.82-6.85-38.93Z"/><path style="stroke-width:0px;;fill:#f4e808;" d="M232.16,67.18c-1.54-1.9-2.18-2.58-2.68-3.34-14.21-21.58-34.65-28.39-59.18-24.22-30.32,5.16-54.41,22.08-76.25,42.53-34.47,32.28-58.74,71.29-74.76,115.58-.49,1.36-1.04,2.71-2.31,4.03-.08-1.53-.23-3.06-.23-4.58-.01-52.01-.01-104.03,0-156.04,0-16.61,8.58-25.29,25.05-25.3,55.11-.01,110.23-.01,165.34,0,16.45,0,25.01,8.7,25.02,25.32,0,8.21,0,16.41,0,26.01Z"/></g><g id="Base_Blue"><rect style="stroke-width:0px;;fill:#fff;" x="0" y="0" width="248" height="380" rx="24.66" ry="24.66" transform="translate(248 380) rotate(-180)"/><path style="stroke-width:0px;;fill:#084aa3;" d="M16.75,311.85c1.59,1.9,2.37,2.66,2.96,3.56,14.15,21.4,34.52,28.02,58.81,23.99,29.27-4.86,52.77-20.9,74.1-40.41,35.64-32.59,60.53-72.35,77.03-117.57.44-1.21.92-2.41,2.27-3.61.08,1.66.22,3.33.22,4.99.01,51.52,0,103.03,0,154.55,0,17.49-8.4,25.81-26.05,25.81-43.99,0-87.99,0-131.98,0-11.12,0-22.25.07-33.37-.02-15.16-.12-23.98-9.12-24.01-24.34-.02-8.55,0-17.11,0-26.96Z"/><path style="stroke-width:0px;;fill:#084aa3;" d="M17.84,262.97c-.22-22.83,5.07-44.14,12.18-65.14,14.66-43.34,38.94-80.51,71.97-111.92,17.36-16.51,36.77-30,60.24-36.6,33.37-9.38,60.58,7.27,67.85,41.25,5.55,25.92,2.32,51.33-5.28,76.12-17,55.51-46.61,102.96-92.5,139.29-16.58,13.13-34.86,23.14-56.39,25.61-22.61,2.59-42.13-8.78-51.22-29.69-5.47-12.58-7.13-25.82-6.85-38.93Z"/><path style="stroke-width:0px;;fill:#084aa3;" d="M232.16,67.18c-1.54-1.9-2.18-2.58-2.68-3.34-14.21-21.58-34.65-28.39-59.18-24.22-30.32,5.16-54.41,22.08-76.25,42.53-34.47,32.28-58.74,71.29-74.76,115.58-.49,1.36-1.04,2.71-2.31,4.03-.08-1.53-.23-3.06-.23-4.58-.01-52.01-.01-104.03,0-156.04,0-16.61,8.58-25.29,25.05-25.3,55.11-.01,110.23-.01,165.34,0,16.45,0,25.01,8.7,25.02,25.32,0,8.21,0,16.41,0,26.01Z"/></g><g id="Base_Red"><rect style="stroke-width:0px;;fill:#fff;" x="0" y="0" width="248" height="380" rx="24.66" ry="24.66" transform="translate(248 380) rotate(-180)"/><path style="stroke-width:0px;;fill:#c40c00;" d="M16.75,311.85c1.59,1.9,2.37,2.66,2.96,3.56,14.15,21.4,34.52,28.02,58.81,23.99,29.27-4.86,52.77-20.9,74.1-40.41,35.64-32.59,60.53-72.35,77.03-117.57.44-1.21.92-2.41,2.27-3.61.08,1.66.22,3.33.22,4.99.01,51.52,0,103.03,0,154.55,0,17.49-8.4,25.81-26.05,25.81-43.99,0-87.99,0-131.98,0-11.12,0-22.25.07-33.37-.02-15.16-.12-23.98-9.12-24.01-24.34-.02-8.55,0-17.11,0-26.96Z"/><path style="stroke-width:0px;;fill:#c40c00;" d="M17.84,262.97c-.22-22.83,5.07-44.14,12.18-65.14,14.66-43.34,38.94-80.51,71.97-111.92,17.36-16.51,36.77-30,60.24-36.6,33.37-9.38,60.58,7.27,67.85,41.25,5.55,25.92,2.32,51.33-5.28,76.12-17,55.51-46.61,102.96-92.5,139.29-16.58,13.13-34.86,23.14-56.39,25.61-22.61,2.59-42.13-8.78-51.22-29.69-5.47-12.58-7.13-25.82-6.85-38.93Z"/><path style="stroke-width:0px;;fill:#c40c00;" d="M232.16,67.18c-1.54-1.9-2.18-2.58-2.68-3.34-14.21-21.58-34.65-28.39-59.18-24.22-30.32,5.16-54.41,22.08-76.25,42.53-34.47,32.28-58.74,71.29-74.76,115.58-.49,1.36-1.04,2.71-2.31,4.03-.08-1.53-.23-3.06-.23-4.58-.01-52.01-.01-104.03,0-156.04,0-16.61,8.58-25.29,25.05-25.3,55.11-.01,110.23-.01,165.34,0,16.45,0,25.01,8.7,25.02,25.32,0,8.21,0,16.41,0,26.01Z"/></g><path style="stroke-width:0px;" d="M120.85,130.54c11.77,0,20.89,2.9,27.35,8.71,6.46,5.81,9.69,12.82,9.69,21.05,0,3.7-.85,7.67-2.56,11.91-1.71,4.24-5.41,7.93-11.11,11.05,5.81,3.12,10.17,7.26,13.1,12.42,2.93,5.16,4.4,10.91,4.4,17.26,0,9.53-3.68,17.64-11.03,24.33-7.35,6.69-17.62,10.04-30.81,10.04s-23.17-3.36-29.95-10.08c-6.78-6.67-10.17-14.76-10.17-24.29,0-6.35,1.51-12.11,4.52-17.26,3.01-5.16,7.42-9.03,13.23-11.64-5.7-3.64-9.4-7.59-11.11-11.83-1.71-4.24-2.56-8.21-2.56-11.91,0-8.23,3.23-15.24,9.69-21.05,6.46-5.81,15.57-8.71,27.35-8.71M120.85,122.54c-13.76,0-24.76,3.62-32.7,10.76-8.19,7.36-12.34,16.44-12.34,27,0,4.71,1.06,9.72,3.14,14.9,1.14,2.83,2.87,5.53,5.16,8.08-2.66,2.42-4.92,5.21-6.76,8.37-3.72,6.37-5.61,13.54-5.61,21.3,0,11.71,4.23,21.81,12.57,30,8.28,8.2,20.25,12.37,35.56,12.37s27.35-4.08,36.19-12.12c9.05-8.24,13.64-18.42,13.64-30.25,0-7.73-1.83-14.86-5.44-21.22-1.8-3.17-4.04-6.04-6.69-8.6,2.29-2.43,4.02-5.07,5.17-7.93,2.09-5.18,3.14-10.19,3.14-14.9,0-10.55-4.15-19.64-12.34-27-7.94-7.14-18.94-10.76-32.7-10.76h0Z"/><path style="stroke-width:0px;;fill:#fff;" d="M126.42,246.3c-14.22,0-25.24-3.78-32.77-11.24-7.53-7.4-11.36-16.54-11.36-27.13,0-7.04,1.7-13.53,5.06-19.28,2.36-4.04,5.49-7.41,9.34-10.08-3.56-3.07-6.07-6.38-7.48-9.89-1.89-4.7-2.85-9.21-2.85-13.41,0-9.37,3.7-17.46,11.01-24.03,7.18-6.46,17.29-9.74,30.02-9.74s22.84,3.28,30.02,9.73c7.31,6.57,11.01,14.65,11.01,24.03,0,4.19-.96,8.71-2.85,13.41-1.42,3.53-3.93,6.71-7.49,9.52,3.85,2.93,6.95,6.44,9.25,10.48,3.26,5.74,4.92,12.22,4.92,19.24,0,10.66-4.15,19.84-12.34,27.29-8.08,7.35-19.35,11.08-33.5,11.08ZM127.4,192.79c-4.16,0-7.31,1.1-9.62,3.35-2.28,2.23-3.39,5.6-3.39,10.3s1.1,7.85,3.37,10.17c2.25,2.29,5.4,3.41,9.64,3.41s7.39-1.11,9.64-3.41c2.27-2.32,3.38-5.64,3.38-10.17s-1.11-8.07-3.39-10.3c-2.31-2.25-5.46-3.35-9.62-3.35ZM127.4,147.49c-3.63,0-6.3.88-8.18,2.67-1.83,1.75-2.72,4.25-2.72,7.62,0,3.02.91,5.38,2.79,7.22,1.87,1.87,4.51,2.76,8.11,2.76s6.29-.89,8.1-2.72c1.82-1.84,2.71-4.22,2.71-7.26,0-3.39-.87-5.89-2.67-7.65-1.82-1.78-4.48-2.64-8.15-2.64Z"/><path style="stroke-width:0px;" d="M127.4,125.52c11.77,0,20.89,2.9,27.35,8.71,6.46,5.81,9.68,12.82,9.68,21.05,0,3.7-.85,7.67-2.56,11.91-1.71,4.24-5.41,7.93-11.11,11.05,5.81,3.12,10.17,7.26,13.1,12.42,2.93,5.16,4.4,10.91,4.4,17.26,0,9.53-3.68,17.64-11.03,24.33-7.35,6.69-17.62,10.04-30.81,10.04s-23.17-3.36-29.95-10.08c-6.78-6.67-10.17-14.76-10.17-24.29,0-6.35,1.51-12.11,4.52-17.26,3.01-5.16,7.42-9.03,13.23-11.64-5.7-3.64-9.4-7.59-11.11-11.83-1.71-4.24-2.56-8.21-2.56-11.91,0-8.23,3.23-15.24,9.69-21.05,6.46-5.81,15.57-8.71,27.35-8.71M127.4,171.76c4.72,0,8.37-1.3,10.95-3.91,2.58-2.6,3.87-5.96,3.87-10.08,0-4.48-1.29-7.98-3.87-10.51-2.58-2.53-6.23-3.79-10.95-3.79s-8.32,1.26-10.95,3.79c-2.63,2.53-3.95,6.03-3.95,10.51,0,4.11,1.33,7.47,3.99,10.08,2.6,2.6,6.24,3.91,10.91,3.91M127.4,224.02c5.32,0,9.48-1.54,12.49-4.61,3.01-3.07,4.52-7.39,4.52-12.97s-1.53-10.17-4.6-13.16c-3.07-2.99-7.2-4.49-12.41-4.49s-9.35,1.5-12.41,4.49c-3.07,3-4.6,7.38-4.6,13.16s1.51,9.89,4.52,12.97c3.01,3.07,7.17,4.61,12.49,4.61M127.4,117.52c-13.76,0-24.76,3.62-32.7,10.76-8.19,7.36-12.34,16.44-12.34,27,0,4.71,1.06,9.72,3.14,14.9,1.14,2.83,2.87,5.53,5.16,8.08-2.66,2.42-4.92,5.21-6.76,8.37-3.72,6.37-5.61,13.54-5.61,21.3,0,11.71,4.23,21.81,12.57,30,8.28,8.2,20.25,12.37,35.56,12.37s27.35-4.08,36.19-12.12c9.05-8.24,13.64-18.42,13.64-30.25,0-7.73-1.83-14.86-5.44-21.22-1.8-3.17-4.04-6.04-6.69-8.6,2.29-2.43,4.02-5.07,5.17-7.93,2.09-5.18,3.14-10.19,3.14-14.9,0-10.55-4.15-19.64-12.34-27-7.94-7.14-18.94-10.76-32.7-10.76h0ZM127.4,163.76c-3.69,0-4.86-1.18-5.25-1.56l-.03-.03-.03-.03c-.78-.77-1.58-1.89-1.58-4.36,0-3.31,1.08-4.34,1.49-4.73.4-.39,1.63-1.56,5.41-1.56,2.53,0,4.33.51,5.35,1.5.36.35,1.46,1.44,1.46,4.79,0,2.55-.83,3.72-1.55,4.45-1.01,1.02-2.78,1.53-5.26,1.53h0ZM127.4,216.02c-4.62,0-6.24-1.66-6.78-2.21-.55-.56-2.23-2.28-2.23-7.37,0-3.52.74-6.02,2.19-7.44.56-.55,2.27-2.21,6.82-2.21s6.26,1.67,6.82,2.22c1.45,1.42,2.19,3.92,2.19,7.44,0,5.09-1.68,6.8-2.23,7.37-.54.55-2.17,2.21-6.78,2.21h0Z"/><path style="stroke-width:0px;" d="M50.73,32.51c5.6,0,9.93,1.38,13,4.14,3.07,2.76,4.6,6.1,4.6,10.01,0,1.76-.41,3.65-1.22,5.66-.81,2.02-2.57,3.77-5.28,5.25,2.76,1.49,4.84,3.45,6.23,5.9,1.39,2.45,2.09,5.19,2.09,8.21,0,4.53-1.75,8.39-5.24,11.57-3.5,3.18-8.38,4.77-14.64,4.77s-11.01-1.6-14.24-4.79c-3.22-3.17-4.84-7.02-4.84-11.55,0-3.02.72-5.76,2.15-8.21,1.43-2.45,3.53-4.29,6.29-5.53-2.71-1.73-4.47-3.61-5.28-5.63-.81-2.02-1.22-3.9-1.22-5.66,0-3.91,1.53-7.25,4.6-10.01,3.07-2.76,7.4-4.14,13-4.14M50.73,28.01c-6.72,0-12.1,1.78-16.01,5.29-4.04,3.64-6.1,8.13-6.1,13.35,0,2.33.52,4.8,1.54,7.34.5,1.23,1.21,2.41,2.14,3.53-1.1,1.08-2.06,2.31-2.85,3.68-1.83,3.14-2.76,6.66-2.76,10.48,0,5.76,2.08,10.73,6.18,14.76,4.07,4.03,9.92,6.08,17.39,6.08s13.34-2,17.67-5.94c4.46-4.05,6.71-9.07,6.71-14.89,0-3.79-.9-7.3-2.68-10.43-.78-1.37-1.72-2.63-2.83-3.77.92-1.08,1.64-2.24,2.14-3.48,1.02-2.54,1.54-5.02,1.54-7.34,0-5.22-2.05-9.72-6.09-13.35-3.91-3.51-9.29-5.29-16.01-5.29h0Z"/><path style="stroke-width:0px;;fill:#fff;" d="M53.38,87.89c-6.85,0-12.18-1.83-15.82-5.44-3.65-3.59-5.5-8.01-5.5-13.15,0-3.41.83-6.55,2.45-9.34,1.07-1.84,2.47-3.39,4.18-4.64-1.56-1.41-2.68-2.93-3.32-4.54-.92-2.28-1.38-4.46-1.38-6.5,0-4.56,1.8-8.49,5.35-11.68,3.48-3.13,8.36-4.72,14.5-4.72s11.02,1.59,14.5,4.72c3.55,3.19,5.35,7.12,5.35,11.68,0,2.04-.46,4.23-1.38,6.5-.65,1.62-1.76,3.09-3.32,4.39,1.71,1.37,3.09,2.98,4.14,4.82,1.58,2.78,2.38,5.92,2.38,9.32,0,5.17-2.01,9.62-5.98,13.23-3.91,3.56-9.34,5.36-16.16,5.36ZM53.84,62.45c-1.88,0-3.3.49-4.33,1.49-1.02.99-1.51,2.51-1.51,4.65s.49,3.56,1.5,4.59c1,1.02,2.42,1.52,4.33,1.52s3.33-.5,4.33-1.52c1.01-1.03,1.5-2.53,1.5-4.59s-.49-3.66-1.51-4.65c-1.03-1-2.45-1.49-4.33-1.49ZM53.84,40.91c-1.63,0-2.82.38-3.65,1.17-.8.76-1.18,1.87-1.18,3.37,0,1.36.39,2.37,1.22,3.18.82.82,2,1.21,3.61,1.21s2.81-.39,3.6-1.19c.81-.82,1.19-1.84,1.19-3.21,0-1.51-.38-2.62-1.16-3.39-.79-.78-1.98-1.16-3.63-1.16Z"/><path style="stroke-width:0px;" d="M53.84,30.12c5.6,0,9.93,1.38,13,4.14,3.07,2.76,4.6,6.1,4.6,10.01,0,1.76-.41,3.65-1.22,5.66-.81,2.02-2.57,3.77-5.28,5.25,2.76,1.49,4.84,3.45,6.23,5.9,1.39,2.45,2.09,5.19,2.09,8.21,0,4.53-1.75,8.39-5.24,11.57-3.5,3.18-8.38,4.77-14.64,4.77s-11.01-1.6-14.24-4.79c-3.22-3.17-4.84-7.02-4.84-11.55,0-3.02.72-5.76,2.15-8.21s3.53-4.29,6.29-5.53c-2.71-1.73-4.47-3.61-5.28-5.63-.81-2.02-1.22-3.9-1.22-5.66,0-3.91,1.53-7.25,4.6-10.01,3.07-2.76,7.4-4.14,13-4.14M53.84,52.1c2.24,0,3.98-.62,5.2-1.86,1.22-1.24,1.84-2.83,1.84-4.79,0-2.13-.61-3.79-1.84-4.99-1.23-1.2-2.96-1.8-5.2-1.8s-3.95.6-5.2,1.8c-1.25,1.2-1.88,2.87-1.88,4.99,0,1.96.63,3.55,1.9,4.79,1.24,1.24,2.97,1.86,5.18,1.86M53.84,76.95c2.53,0,4.51-.73,5.94-2.19,1.43-1.46,2.15-3.51,2.15-6.16s-.73-4.83-2.19-6.26c-1.46-1.42-3.42-2.14-5.9-2.14s-4.44.71-5.9,2.14c-1.46,1.42-2.19,3.51-2.19,6.26s.72,4.7,2.15,6.16c1.43,1.46,3.41,2.19,5.94,2.19M53.84,25.62c-6.72,0-12.1,1.78-16.01,5.29-4.04,3.64-6.1,8.13-6.1,13.35,0,2.33.52,4.8,1.54,7.34.5,1.23,1.21,2.41,2.14,3.53-1.1,1.08-2.06,2.31-2.85,3.68-1.83,3.14-2.76,6.66-2.76,10.48,0,5.76,2.08,10.73,6.18,14.76,4.07,4.03,9.92,6.08,17.39,6.08s13.34-2,17.67-5.94c4.46-4.05,6.71-9.07,6.71-14.89,0-3.79-.9-7.3-2.68-10.43-.78-1.37-1.72-2.63-2.83-3.77.92-1.08,1.64-2.24,2.14-3.48,1.02-2.54,1.54-5.02,1.54-7.34,0-5.22-2.05-9.72-6.09-13.35-3.91-3.51-9.29-5.29-16.01-5.29h0ZM53.84,47.6c-.97,0-1.65-.18-2-.54-.32-.31-.58-.69-.58-1.61,0-1.27.37-1.63.49-1.75.38-.36,1.08-.55,2.09-.55.7,0,1.62.09,2.05.52.12.12.49.48.49,1.78,0,.95-.27,1.36-.54,1.62-.43.43-1.33.52-2.01.52h0ZM53.84,72.45c-1.9,0-2.52-.63-2.72-.84-.57-.58-.86-1.6-.86-3.01,0-1.02.14-2.37.83-3.04.38-.37,1.07-.85,2.76-.85s2.38.49,2.76.86c.69.67.83,2.02.83,3.04,0,1.42-.29,2.43-.86,3.01-.2.21-.82.84-2.73.84h0Z"/><path style="stroke-width:0px;" d="M197.73,291.98c6.27,0,11.01,1.6,14.24,4.79,3.22,3.17,4.84,7.02,4.84,11.55,0,3.02-.72,5.76-2.15,8.21s-3.53,4.29-6.29,5.53c2.71,1.73,4.47,3.61,5.28,5.63.81,2.02,1.22,3.9,1.22,5.66,0,3.91-1.53,7.25-4.6,10.01-3.07,2.76-7.4,4.14-13,4.14s-9.93-1.38-13-4.14c-3.07-2.76-4.6-6.1-4.6-10.01,0-1.76.41-3.65,1.22-5.66.81-2.02,2.57-3.77,5.28-5.25-2.76-1.49-4.84-3.45-6.23-5.9-1.39-2.45-2.09-5.19-2.09-8.21,0-4.53,1.75-8.39,5.24-11.57,3.5-3.18,8.38-4.77,14.64-4.77M197.73,287.48c-7.39,0-13.34,2-17.67,5.94-4.45,4.05-6.71,9.07-6.71,14.89,0,3.79.9,7.3,2.68,10.43.78,1.37,1.72,2.63,2.83,3.77-.92,1.08-1.64,2.24-2.14,3.48-1.02,2.54-1.54,5.02-1.54,7.34,0,5.22,2.05,9.72,6.09,13.35,3.91,3.51,9.29,5.29,16.01,5.29s12.1-1.78,16.01-5.29c4.04-3.64,6.1-8.13,6.1-13.35,0-2.33-.52-4.8-1.54-7.34-.5-1.23-1.21-2.41-2.14-3.53,1.1-1.08,2.06-2.31,2.85-3.68,1.83-3.14,2.76-6.66,2.76-10.48,0-5.76-2.08-10.73-6.18-14.76-4.07-4.03-9.92-6.08-17.39-6.08h0Z"/><path style="stroke-width:0px;;fill:#fff;" d="M194.16,352.13c-6.14,0-11.02-1.59-14.5-4.72-3.55-3.19-5.35-7.12-5.35-11.68,0-2.04.46-4.23,1.38-6.5.65-1.62,1.76-3.09,3.32-4.39-1.71-1.37-3.09-2.98-4.14-4.82-1.58-2.78-2.38-5.92-2.38-9.32,0-5.17,2.01-9.62,5.98-13.23,3.91-3.55,9.34-5.36,16.16-5.36s12.18,1.83,15.82,5.44c3.65,3.59,5.5,8.01,5.5,13.15,0,3.41-.83,6.55-2.45,9.34-1.07,1.83-2.47,3.39-4.18,4.64,1.56,1.41,2.67,2.93,3.32,4.54.92,2.27,1.38,4.46,1.38,6.5,0,4.56-1.8,8.49-5.35,11.68-3.48,3.13-8.36,4.72-14.5,4.72ZM194.16,330.15c-1.63,0-2.81.39-3.6,1.19-.81.82-1.19,1.84-1.19,3.21,0,1.51.38,2.62,1.16,3.39.79.78,1.98,1.16,3.63,1.16s2.82-.38,3.64-1.17c.8-.77,1.19-1.87,1.19-3.37,0-1.36-.39-2.37-1.22-3.18-.82-.82-2-1.21-3.61-1.21ZM194.16,305.3c-1.92,0-3.33.5-4.33,1.52-1.01,1.03-1.5,2.53-1.5,4.59s.49,3.66,1.51,4.65c1.03,1,2.45,1.49,4.33,1.49s3.3-.49,4.33-1.49c1.01-.99,1.51-2.51,1.51-4.65s-.49-3.56-1.5-4.59c-1-1.02-2.42-1.52-4.33-1.52Z"/><path style="stroke-width:0px;" d="M194.62,294.36c6.27,0,11.01,1.6,14.24,4.79,3.22,3.17,4.84,7.02,4.84,11.55,0,3.02-.72,5.76-2.15,8.21s-3.53,4.29-6.29,5.53c2.71,1.73,4.47,3.61,5.28,5.63.81,2.02,1.22,3.9,1.22,5.66,0,3.91-1.53,7.25-4.6,10.01-3.07,2.76-7.4,4.14-13,4.14s-9.93-1.38-13-4.14c-3.07-2.76-4.6-6.1-4.6-10.01,0-1.76.41-3.65,1.22-5.66.81-2.02,2.57-3.77,5.28-5.25-2.76-1.49-4.84-3.45-6.23-5.9-1.39-2.45-2.09-5.19-2.09-8.21,0-4.53,1.75-8.39,5.24-11.57,3.5-3.18,8.38-4.77,14.64-4.77M194.16,319.8c2.48,0,4.44-.71,5.9-2.14,1.46-1.42,2.19-3.51,2.19-6.26s-.72-4.7-2.15-6.16c-1.43-1.46-3.41-2.19-5.94-2.19s-4.51.73-5.94,2.19c-1.43,1.46-2.15,3.51-2.15,6.16s.73,4.83,2.19,6.26c1.46,1.42,3.42,2.14,5.9,2.14M194.16,341.34c2.22,0,3.95-.6,5.2-1.8,1.25-1.2,1.88-2.87,1.88-4.99,0-1.96-.63-3.55-1.9-4.79-1.24-1.24-2.97-1.86-5.18-1.86s-3.98.62-5.2,1.86c-1.22,1.24-1.84,2.83-1.84,4.79,0,2.13.61,3.79,1.84,4.99,1.23,1.2,2.96,1.8,5.2,1.8M194.62,289.86c-7.39,0-13.34,2-17.67,5.94-4.46,4.05-6.71,9.07-6.71,14.89,0,3.79.9,7.3,2.68,10.43.78,1.37,1.72,2.63,2.83,3.77-.92,1.08-1.64,2.24-2.14,3.48-1.02,2.54-1.54,5.02-1.54,7.34,0,5.22,2.05,9.72,6.09,13.35,3.91,3.51,9.29,5.29,16.01,5.29s12.1-1.78,16.01-5.29c4.04-3.64,6.1-8.13,6.1-13.35,0-2.33-.52-4.8-1.54-7.34-.5-1.23-1.21-2.41-2.14-3.53,1.1-1.08,2.06-2.31,2.85-3.68,1.83-3.14,2.76-6.66,2.76-10.48,0-5.76-2.08-10.73-6.18-14.76-4.07-4.03-9.92-6.08-17.39-6.08h0ZM194.16,315.3c-1.69,0-2.38-.49-2.76-.85-.69-.67-.83-2.02-.83-3.04,0-1.42.29-2.43.86-3.01.2-.21.82-.84,2.73-.84s2.52.63,2.72.84c.57.58.86,1.6.86,3.01,0,1.02-.14,2.37-.83,3.04-.38.37-1.07.85-2.76.85h0ZM194.16,336.84c-.7,0-1.62-.09-2.05-.52-.12-.12-.49-.48-.49-1.78,0-.95.27-1.36.54-1.62.43-.43,1.33-.52,2.01-.52.97,0,1.65.18,2,.54.32.31.58.69.58,1.61,0,1.27-.37,1.63-.49,1.75-.38.36-1.08.55-2.09.55h0Z"/></g></svg>