<?xml version="1.0" encoding="UTF-8"?><svg id="Layer_2" xmlns="http://www.w3.org/2000/svg" viewBox="0 0 248 380"><defs><style>.cls-1{fill:#338a12;}.cls-1,.cls-2,.cls-3,.cls-4,.cls-5{stroke-width:0px;}.cls-2{fill:#0b130a;}.cls-3{fill:#fff;}.cls-4{fill:#eee;}.cls-5{fill:#f4e808;}</style></defs><g id="_9"><g id="Base_Yellow"><rect style="stroke-width:0px;;fill:#fff;" x="0" y="0" width="248" height="380" rx="24.66" ry="24.66" transform="translate(248 380) rotate(-180)"/><path style="stroke-width:0px;;fill:#f4e808;" d="M16.75,311.85c1.59,1.9,2.37,2.66,2.96,3.56,14.15,21.4,34.52,28.02,58.81,23.99,29.27-4.86,52.77-20.9,74.1-40.41,35.64-32.59,60.53-72.35,77.03-117.57.44-1.21.92-2.41,2.27-3.61.08,1.66.22,3.33.22,4.99.01,51.52,0,103.03,0,154.55,0,17.49-8.4,25.81-26.05,25.81-43.99,0-87.99,0-131.98,0-11.12,0-22.25.07-33.37-.02-15.16-.12-23.98-9.12-24.01-24.34-.02-8.55,0-17.11,0-26.96Z"/><path style="stroke-width:0px;;fill:#f4e808;" d="M17.84,262.97c-.22-22.83,5.07-44.14,12.18-65.14,14.66-43.34,38.94-80.51,71.97-111.92,17.36-16.51,36.77-30,60.24-36.6,33.37-9.38,60.58,7.27,67.85,41.25,5.55,25.92,2.32,51.33-5.28,76.12-17,55.51-46.61,102.96-92.5,139.29-16.58,13.13-34.86,23.14-56.39,25.61-22.61,2.59-42.13-8.78-51.22-29.69-5.47-12.58-7.13-25.82-6.85-38.93Z"/><path style="stroke-width:0px;;fill:#f4e808;" d="M232.16,67.18c-1.54-1.9-2.18-2.58-2.68-3.34-14.21-21.58-34.65-28.39-59.18-24.22-30.32,5.16-54.41,22.08-76.25,42.53-34.47,32.28-58.74,71.29-74.76,115.58-.49,1.36-1.04,2.71-2.31,4.03-.08-1.53-.23-3.06-.23-4.58-.01-52.01-.01-104.03,0-156.04,0-16.61,8.58-25.29,25.05-25.3,55.11-.01,110.23-.01,165.34,0,16.45,0,25.01,8.7,25.02,25.32,0,8.21,0,16.41,0,26.01Z"/></g><g id="Base_Green"><rect style="stroke-width:0px;;fill:#fff;" x="0" y="0" width="248" height="380" rx="24.66" ry="24.66" transform="translate(248 380) rotate(-180)"/><path style="fill:#338a12;;stroke-width:0px;" d="M16.75,311.85c1.59,1.9,2.37,2.66,2.96,3.56,14.15,21.4,34.52,28.02,58.81,23.99,29.27-4.86,52.77-20.9,74.1-40.41,35.64-32.59,60.53-72.35,77.03-117.57.44-1.21.92-2.41,2.27-3.61.08,1.66.22,3.33.22,4.99.01,51.52,0,103.03,0,154.55,0,17.49-8.4,25.81-26.05,25.81-43.99,0-87.99,0-131.98,0-11.12,0-22.25.07-33.37-.02-15.16-.12-23.98-9.12-24.01-24.34-.02-8.55,0-17.11,0-26.96Z"/><path style="fill:#338a12;;stroke-width:0px;" d="M17.84,262.97c-.22-22.83,5.07-44.14,12.18-65.14,14.66-43.34,38.94-80.51,71.97-111.92,17.36-16.51,36.77-30,60.24-36.6,33.37-9.38,60.58,7.27,67.85,41.25,5.55,25.92,2.32,51.33-5.28,76.12-17,55.51-46.61,102.96-92.5,139.29-16.58,13.13-34.86,23.14-56.39,25.61-22.61,2.59-42.13-8.78-51.22-29.69-5.47-12.58-7.13-25.82-6.85-38.93Z"/><path style="fill:#338a12;;stroke-width:0px;" d="M232.16,67.18c-1.54-1.9-2.18-2.58-2.68-3.34-14.21-21.58-34.65-28.39-59.18-24.22-30.32,5.16-54.41,22.08-76.25,42.53-34.47,32.28-58.74,71.29-74.76,115.58-.49,1.36-1.04,2.71-2.31,4.03-.08-1.53-.23-3.06-.23-4.58-.01-52.01-.01-104.03,0-156.04,0-16.61,8.58-25.29,25.05-25.3,55.11-.01,110.23-.01,165.34,0,16.45,0,25.01,8.7,25.02,25.32,0,8.21,0,16.41,0,26.01Z"/></g><path style="stroke-width:0px;;fill:#0b130a;" d="M145.37,226.95c6.98,3.12,13.77-.54,19.63,2.75,1.56.88,3.09,1.8,4.78,2.78v18.45c-1.98,3.99-5.77,6.63-9.24,9.43-30.15,2.63-71.94,1.52-80.89-2.24-2.57-6.06-.31-12.57-1.29-17.8,1.68-5.26,5.88-7.17,8.16-11-.02-4.82-4.84-7.24-6.47-11.51-1.55-4.07-1.9-7.96-1.79-11.99,1.89-5.7,7.54-7.64,12.32-11.48-11-9.95-14.81-21.53-15.66-35.69-1.36-22.73,24.32-43.61,42.58-44.55,24.68-1.27,45.78,7.99,51.67,44.79,2.4,15.01.8,30.24-4.88,44.61-3.74,9.48-9.29,17.78-18.92,23.45ZM162,151.25c-1.21-3.48-2.16-7.08-3.68-10.42-7.89-17.28-26.94-25.66-46.5-20.59-17.98,4.66-28.01,20.3-25.77,40.21,2.41,21.49,24.98,34.98,45.21,27.12,2.63-1.02,4.65-4.03,8.13-3.41-1.39,19.36-3.96,22.98-18.12,26.49-7.28-.49-9.23-7.05-12.9-11.62-6.73.75-12.94,1.43-19.64,2.18,1.83,13.92,9.12,21.65,21.46,25.02,22.22,6.07,43.44-5.4,50.18-27.39,4.55-14.84,4.44-29.99,2.07-45.2.3-.26.78-.48.86-.8.25-.99-.25-1.54-1.29-1.58ZM164.19,235.07h-72.89c-1.95,2.67-1.47,5.01-1.41,7.24.06,2.64-.86,5.57,1.68,7.5h72.73c1.14-5.09,1.33-9.52-.11-14.75ZM125.68,201.86c-3.67-2.75-6.58-1.95-10.51-.29,4.31,4.57,7.35,5.84,10.51.29Z"/><path style="stroke-width:0px;;fill:#eee;" d="M162.43,153.62c2.37,15.21,2.47,30.36-2.07,45.2-6.74,21.98-27.95,33.45-50.18,27.39-12.34-3.37-19.63-11.1-21.46-25.02,6.7-.74,12.9-1.43,19.64-2.18,3.67,4.57,5.62,11.13,12.9,11.62,14.17-3.51,16.73-7.13,18.12-26.49-3.48-.61-5.5,2.39-8.13,3.41-20.23,7.86-42.79-5.64-45.21-27.12-2.23-19.9,7.79-35.55,25.77-40.21,19.56-5.07,38.62,3.31,46.5,20.59,1.52,3.34,2.47,6.94,3.68,10.42-.4.88-.26,1.67.43,2.38ZM107.98,154.12c.4,3.05.34,6.85,1.46,10.27,2.62,8.03,11.37,12.14,18.7,9.26,7.09-2.78,11.11-10.18,10.4-19.14-.74-9.38-6.59-16.99-14.06-18.28-6.61-1.14-12.98,2.53-15.14,9.11-.85,2.57-.87,5.42-1.37,8.79Z"/><path style="stroke-width:0px;;fill:#eee;" d="M164.19,235.07c1.44,5.23,1.24,9.65.11,14.75h-72.73c-2.54-1.93-1.62-4.86-1.68-7.5-.05-2.23-.54-4.57,1.41-7.24h72.89Z"/><path style="stroke-width:0px;;fill:#0b130a;" d="M107.98,154.12c.5-3.37.52-6.21,1.37-8.79,2.16-6.58,8.53-10.24,15.14-9.11,7.47,1.29,13.32,8.9,14.06,18.28.7,8.96-3.32,16.36-10.4,19.14-7.34,2.88-16.09-1.22-18.7-9.26-1.11-3.42-1.06-7.22-1.46-10.27ZM125.41,152.89c-2.6-4.15-5.28-6.2-9.79-4.78-2.55,4.54-1.15,9.48-.98,14.29,2.43,3.41,4.38,7.14,9.83,6.65,2.83-5.54,1.14-11.26.94-16.16Z"/><path style="stroke-width:0px;;fill:#0b130a;" d="M62.63,76.97c3.44,1.53,6.78-.27,9.66,1.35.77.43,1.52.89,2.35,1.37v9.08c-.98,1.96-2.84,3.26-4.55,4.64-14.83,1.29-35.39.75-39.79-1.1-1.26-2.98-.15-6.18-.63-8.76.83-2.59,2.89-3.53,4.01-5.41-.01-2.37-2.38-3.56-3.18-5.66-.76-2-.94-3.91-.88-5.9.93-2.81,3.71-3.76,6.06-5.65-5.41-4.9-7.29-10.59-7.71-17.56-.67-11.18,11.96-21.46,20.95-21.92,12.14-.62,22.52,3.93,25.42,22.03,1.18,7.38.39,14.87-2.4,21.95-1.84,4.66-4.57,8.75-9.31,11.53ZM70.81,39.73c-.6-1.71-1.06-3.48-1.81-5.13-3.88-8.5-13.25-12.62-22.88-10.13-8.84,2.29-13.78,9.99-12.68,19.78,1.19,10.57,12.29,17.21,22.24,13.34,1.29-.5,2.29-1.98,4-1.68-.68,9.52-1.95,11.3-8.92,13.03-3.58-.24-4.54-3.47-6.35-5.72-3.31.37-6.36.71-9.66,1.07.9,6.85,4.48,10.65,10.56,12.31,10.93,2.98,21.37-2.66,24.68-13.47,2.24-7.3,2.19-14.76,1.02-22.24.15-.13.38-.24.42-.39.12-.49-.12-.76-.63-.78ZM71.89,80.97h-35.86c-.96,1.31-.72,2.46-.7,3.56.03,1.3-.42,2.74.83,3.69h35.78c.56-2.51.66-4.68-.05-7.25ZM52.94,64.63c-1.81-1.35-3.24-.96-5.17-.14,2.12,2.25,3.62,2.87,5.17.14Z"/><path style="stroke-width:0px;;fill:#eee;" d="M71.02,40.9c1.17,7.48,1.22,14.94-1.02,22.24-3.31,10.82-13.75,16.46-24.68,13.47-6.07-1.66-9.66-5.46-10.56-12.31,3.3-.37,6.35-.7,9.66-1.07,1.81,2.25,2.76,5.48,6.35,5.72,6.97-1.73,8.23-3.51,8.92-13.03-1.71-.3-2.71,1.18-4,1.68-9.95,3.87-21.05-2.77-22.24-13.34-1.1-9.79,3.83-17.49,12.68-19.78,9.62-2.49,19,1.63,22.88,10.13.75,1.64,1.21,3.41,1.81,5.13-.2.43-.13.82.21,1.17ZM44.23,41.14c.2,1.5.17,3.37.72,5.05,1.29,3.95,5.59,5.97,9.2,4.55,3.49-1.37,5.46-5.01,5.12-9.42-.36-4.62-3.24-8.36-6.92-8.99-3.25-.56-6.39,1.24-7.45,4.48-.42,1.27-.43,2.67-.67,4.32Z"/><path style="stroke-width:0px;;fill:#eee;" d="M71.89,80.97c.71,2.57.61,4.75.05,7.25h-35.78c-1.25-.95-.8-2.39-.83-3.69-.03-1.1-.26-2.25.7-3.56h35.86Z"/><path style="stroke-width:0px;;fill:#0b130a;" d="M44.23,41.14c.24-1.66.26-3.06.67-4.32,1.06-3.24,4.2-5.04,7.45-4.48,3.68.63,6.56,4.38,6.92,8.99.35,4.41-1.63,8.05-5.12,9.42-3.61,1.42-7.91-.6-9.2-4.55-.55-1.68-.52-3.55-.72-5.05ZM52.81,40.54c-1.28-2.04-2.6-3.05-4.82-2.35-1.25,2.23-.57,4.66-.48,7.03,1.19,1.68,2.16,3.51,4.84,3.27,1.39-2.73.56-5.54.46-7.95Z"/><path style="stroke-width:0px;;fill:#0b130a;" d="M185.37,303.03c-3.44-1.53-6.78.27-9.66-1.35-.77-.43-1.52-.89-2.35-1.37v-9.08c.98-1.96,2.84-3.26,4.55-4.64,14.83-1.29,35.39-.75,39.79,1.1,1.26,2.98.15,6.18.63,8.76-.83,2.59-2.89,3.53-4.01,5.41.01,2.37,2.38,3.56,3.18,5.66.76,2,.94,3.91.88,5.9-.93,2.81-3.71,3.76-6.06,5.65,5.41,4.9,7.29,10.59,7.71,17.56.67,11.18-11.96,21.46-20.95,21.92-12.14.62-22.52-3.93-25.42-22.03-1.18-7.38-.39-14.87,2.4-21.95,1.84-4.66,4.57-8.75,9.31-11.53ZM177.19,340.27c.6,1.71,1.06,3.48,1.81,5.13,3.88,8.5,13.25,12.62,22.88,10.13,8.84-2.29,13.78-9.99,12.68-19.78-1.19-10.57-12.29-17.21-22.24-13.34-1.29.5-2.29,1.98-4,1.68.68-9.52,1.95-11.3,8.92-13.03,3.58.24,4.54,3.47,6.35,5.72,3.31-.37,6.36-.71,9.66-1.07-.9-6.85-4.48-10.65-10.56-12.31-10.93-2.98-21.37,2.66-24.68,13.47-2.24,7.3-2.19,14.76-1.02,22.24-.15.13-.38.24-.42.39-.12.49.12.76.63.78ZM176.11,299.03c12,0,24.05,0,35.86,0,.96-1.31.72-2.46.7-3.56-.03-1.3.42-2.74-.83-3.69-11.95,0-23.84,0-35.78,0-.56,2.51-.66,4.68.05,7.25ZM195.06,315.37c1.81,1.35,3.24.96,5.17.14-2.12-2.25-3.62-2.87-5.17-.14Z"/><path style="stroke-width:0px;;fill:#eee;" d="M176.98,339.1c-1.17-7.48-1.22-14.94,1.02-22.24,3.31-10.82,13.75-16.46,24.68-13.47,6.07,1.66,9.66,5.46,10.56,12.31-3.3.37-6.35.7-9.66,1.07-1.81-2.25-2.76-5.48-6.35-5.72-6.97,1.73-8.23,3.51-8.92,13.03,1.71.3,2.71-1.18,4-1.68,9.95-3.87,21.05,2.77,22.24,13.34,1.1,9.79-3.83,17.49-12.68,19.78-9.62,2.49-19-1.63-22.88-10.13-.75-1.64-1.21-3.41-1.81-5.13.2-.43.13-.82-.21-1.17ZM203.77,338.86c-.2-1.5-.17-3.37-.72-5.05-1.29-3.95-5.59-5.97-9.2-4.55-3.49,1.37-5.46,5.01-5.12,9.42.36,4.62,3.24,8.36,6.92,8.99,3.25.56,6.39-1.24,7.45-4.48.42-1.27.43-2.67.67-4.32Z"/><path style="stroke-width:0px;;fill:#eee;" d="M176.11,299.03c-.71-2.57-.61-4.75-.05-7.25,11.94,0,23.83,0,35.78,0,1.25.95.8,2.39.83,3.69.03,1.1.26,2.25-.7,3.56-11.81,0-23.85,0-35.86,0Z"/><path style="stroke-width:0px;;fill:#0b130a;" d="M203.77,338.86c-.24,1.66-.26,3.06-.67,4.32-1.06,3.24-4.2,5.04-7.45,4.48-3.68-.63-6.56-4.38-6.92-8.99-.35-4.41,1.63-8.05,5.12-9.42,3.61-1.42,7.91.6,9.2,4.55.55,1.68.52,3.55.72,5.05ZM195.19,339.46c1.28,2.04,2.6,3.05,4.82,2.35,1.25-2.23.57-4.66.48-7.03-1.19-1.68-2.16-3.51-4.84-3.27-1.39,2.73-.56,5.54-.46,7.95Z"/></g></svg>