<?xml version="1.0" encoding="UTF-8"?><svg id="Layer_2" xmlns="http://www.w3.org/2000/svg" viewBox="0 0 248 380"><defs><style>.cls-1,.cls-2,.cls-3,.cls-4,.cls-5,.cls-6,.cls-7{stroke-width:0px;}.cls-2{fill:#0749a0;}.cls-3{fill:#c10c01;}.cls-4{fill:#328711;}.cls-5{fill:#e3cd04;}.cls-6{fill:#fff;}.cls-7{fill:#060706;}</style></defs><g id="Draw_4"><g id="Base"><rect style="stroke-width:0px;;fill:#fff;" width="248" height="380" rx="24.66" ry="24.66"/><path style="stroke-width:0px;" d="M16.75,311.85c1.59,1.9,2.37,2.66,2.96,3.56,14.15,21.4,34.52,28.02,58.81,23.99,29.27-4.86,52.77-20.9,74.1-40.41,35.64-32.59,60.53-72.35,77.03-117.57.44-1.21.92-2.41,2.27-3.61.08,1.66.22,3.33.22,4.99.01,51.52,0,103.03,0,154.55,0,17.49-8.4,25.81-26.05,25.81-43.99,0-87.99,0-131.98,0-11.12,0-22.25.07-33.37-.02-15.16-.12-23.98-9.12-24.01-24.34-.02-8.55,0-17.11,0-26.96Z"/><path style="stroke-width:0px;" d="M232.16,67.18c-1.54-1.9-2.18-2.58-2.68-3.34-14.21-21.58-34.65-28.39-59.18-24.22-30.32,5.16-54.41,22.08-76.25,42.53-34.47,32.28-58.74,71.29-74.76,115.58-.49,1.36-1.04,2.71-2.31,4.03-.08-1.53-.23-3.06-.23-4.58-.01-52.01-.01-104.03,0-156.04,0-16.61,8.58-25.29,25.05-25.3,55.11-.01,110.23-.01,165.34,0,16.45,0,25.01,8.7,25.02,25.32,0,8.21,0,16.41,0,26.01Z"/></g><path style="stroke-width:0px;;fill:#fff;" d="M59.57,72.12c-2.1,2.11-4.44,4.46-6.78,6.81h-13.94c-.84-.84-1.66-1.66-2.48-2.48,0-2,0-3.99,0-6.25h-6.81c-2.65-1.54-3.51-3.34-3.25-5.97.27-2.8.06-5.65.06-8.17,5.31-5.31,10.46-10.46,16.12-16.12,3.98,0,8.78-.03,13.57.01,2.74.03,3.24.62,3.3,3.55.02.66,0,1.33,0,2v2.21h4.91c4.82-5.95,9.99-12.32,15.21-18.77,4.42,0,8.72-.04,13.01.02,2.09.03,2.84.83,2.86,2.98.04,5.82.01,11.64.01,17.38,1.27.63,2.97.94,3.61,1.93.78,1.2,1.82,2.61,1.42,4.4-.21.95-.1,1.99-.03,2.98.26,3.54-.4,6.61-3.25,9.18-1.58,1.42-1.77,3.98-3.56,5.49-1.65,1.38-3.08,3.03-4.7,4.64-4.23,0-8.54.03-12.86,0-3.16-.03-3.5-.41-3.64-3.71-.03-.64,0-1.29,0-2.11h-12.79ZM52.28,75.79c2.05-2.12,4.36-4.5,6.43-6.64h16.74v5.67h12.53c1.74-1.74,3.51-3.51,5.27-5.27-.32-3.2,2.82-4.13,3.88-5.9v-10.66c-4.73-.23-4.75-.23-4.77-4.36-.02-5.46,0-10.93,0-16.54h-11.83c-4.99,6.15-10.17,12.53-15.2,18.72h-9.05v-7.85h-12.95c-4.72,4.72-9.28,9.28-13.97,13.97,0,1.41-.02,3.08,0,4.74.03,1.76.09,3.53.15,5.44h9.87v8.67h12.9Z"/><path style="stroke-width:0px;" d="M52.28,75.79h-12.9v-8.67h-9.87c-.05-1.91-.12-3.67-.15-5.44-.02-1.66,0-3.33,0-4.74,4.69-4.69,9.25-9.25,13.97-13.97h12.95v7.85h9.05c5.03-6.19,10.21-12.57,15.2-18.72h11.83c0,5.62-.02,11.08,0,16.54.02,4.12.04,4.12,4.77,4.36v10.66c-1.06,1.77-4.2,2.7-3.88,5.9-1.76,1.76-3.53,3.53-5.27,5.27h-12.53v-5.67h-16.74c-2.07,2.14-4.37,4.52-6.43,6.64ZM67.63,61.11h14.74v6.64h7.04v-6.88h3.81v-4.79c-1.37-.11-2.62-.21-4-.33v-19.7h-6.48c-2.03,2.71-4.02,5.38-6.03,8.03-2.11,2.79-4.04,5.74-6.4,8.3-2.23,2.42-3.53,4.91-2.69,8.73ZM53.36,54.97c0-1.19,0-1.86,0-2.53-.03-5.42,1.48-7.3-7.11-6.2v8.83h-8.64v5.05h8.96v7.62h6.86v-7.9h8.77v-4.87h-8.85Z"/><path style="stroke-width:0px;;fill:#fff;" d="M67.63,61.11c-.83-3.82.46-6.31,2.69-8.73,2.36-2.56,4.29-5.51,6.4-8.3,2.01-2.66,4-5.33,6.03-8.03h6.48v19.7c1.38.11,2.63.22,4,.33v4.79h-3.81v6.88h-7.04v-6.64h-14.74ZM74.2,55.78c2.83.26,5.49.28,8.01.02v-10.55c-2.92,3.83-5.35,7.04-8.01,10.52Z"/><path style="stroke-width:0px;;fill:#fff;" d="M53.36,54.97h8.85v4.87h-8.77v7.9h-6.86v-7.62h-8.96v-5.05h8.64v-8.83c8.59-1.1,7.08.78,7.11,6.2,0,.67,0,1.33,0,2.53Z"/><path style="stroke-width:0px;" d="M74.2,55.78c2.66-3.49,5.09-6.69,8.01-10.52v10.55c-2.51.26-5.18.24-8.01-.02Z"/><path style="stroke-width:0px;;fill:#fff;" d="M188.43,307.88c2.1-2.11,4.44-4.46,6.78-6.81,4.64,0,9.3,0,13.94,0,.84.84,1.66,1.66,2.48,2.48,0,2,0,3.99,0,6.25h6.81c2.65,1.54,3.51,3.34,3.25,5.97-.27,2.8-.06,5.65-.06,8.17-5.31,5.31-10.46,10.46-16.12,16.12-3.98,0-8.78.03-13.57-.01-2.74-.03-3.24-.62-3.3-3.55-.02-.66,0-1.33,0-2v-2.21h-4.91c-4.82,5.95-9.99,12.32-15.21,18.77-4.42,0-8.72.04-13.01-.02-2.09-.03-2.84-.83-2.86-2.98-.04-5.82-.01-11.64-.01-17.38-1.27-.63-2.97-.94-3.61-1.93-.78-1.2-1.82-2.61-1.42-4.4.21-.95.1-1.99.03-2.98-.26-3.54.4-6.61,3.25-9.18,1.58-1.42,1.77-3.98,3.56-5.49,1.65-1.38,3.08-3.03,4.7-4.64,4.23,0,8.54-.03,12.86,0,3.16.03,3.5.41,3.64,3.71.03.64,0,1.29,0,2.11,4.26,0,8.37,0,12.79,0ZM195.72,304.21c-2.05,2.12-4.36,4.5-6.43,6.64-5.71,0-11.14,0-16.74,0v-5.67c-4.28,0-8.39,0-12.53,0-1.74,1.74-3.51,3.51-5.27,5.27.32,3.2-2.82,4.13-3.88,5.9,0,3.82,0,7.25,0,10.66,4.73.23,4.75.23,4.77,4.36.02,5.46,0,10.93,0,16.54h11.83c4.99-6.15,10.17-12.53,15.2-18.72,3.15,0,5.93,0,9.05,0v7.85c4.66,0,8.98,0,12.95,0,4.72-4.72,9.28-9.28,13.97-13.97,0-1.41.02-3.08,0-4.74-.03-1.76-.09-3.53-.15-5.44h-9.87v-8.67c-4.28,0-8.39,0-12.9,0Z"/><path style="stroke-width:0px;" d="M195.72,304.21c4.51,0,8.62,0,12.9,0v8.67h9.87c.05,1.91.12,3.67.15,5.44.02,1.66,0,3.33,0,4.74-4.69,4.69-9.25,9.25-13.97,13.97-3.97,0-8.28,0-12.95,0v-7.85c-3.12,0-5.91,0-9.05,0-5.03,6.19-10.21,12.57-15.2,18.72h-11.83c0-5.62.02-11.08,0-16.54-.02-4.12-.04-4.12-4.77-4.36,0-3.4,0-6.84,0-10.66,1.06-1.77,4.2-2.7,3.88-5.9,1.76-1.76,3.53-3.53,5.27-5.27,4.14,0,8.25,0,12.53,0v5.67c5.6,0,11.03,0,16.74,0,2.07-2.14,4.37-4.52,6.43-6.64ZM180.37,318.89c-5.02,0-9.8,0-14.74,0v-6.64h-7.04v6.88h-3.81v4.79c1.37.11,2.62.21,4,.33,0,6.72,0,13.16,0,19.7h6.48c2.03-2.71,4.02-5.38,6.03-8.03,2.11-2.79,4.04-5.74,6.4-8.3,2.23-2.42,3.53-4.91,2.69-8.73ZM194.64,325.03c0,1.19,0,1.86,0,2.53.03,5.42-1.48,7.3,7.11,6.2v-8.83h8.64v-5.05h-8.96v-7.62h-6.86v7.9h-8.77v4.87c2.93,0,5.72,0,8.85,0Z"/><path style="stroke-width:0px;;fill:#fff;" d="M180.37,318.89c.83,3.82-.46,6.31-2.69,8.73-2.36,2.56-4.29,5.51-6.4,8.3-2.01,2.66-4,5.33-6.03,8.03h-6.48c0-6.54,0-12.98,0-19.7-1.38-.11-2.63-.22-4-.33v-4.79h3.81v-6.88h7.04v6.64c4.94,0,9.72,0,14.74,0ZM173.8,324.22c-2.83-.26-5.49-.28-8.01-.02,0,3.46,0,6.56,0,10.55,2.92-3.83,5.35-7.04,8.01-10.52Z"/><path style="stroke-width:0px;;fill:#fff;" d="M194.64,325.03c-3.13,0-5.92,0-8.85,0v-4.87h8.77v-7.9h6.86v7.62h8.96v5.05h-8.64v8.83c-8.59,1.1-7.08-.78-7.11-6.2,0-.67,0-1.33,0-2.53Z"/><path style="stroke-width:0px;" d="M173.8,324.22c-2.66,3.49-5.09,6.69-8.01,10.52,0-3.98,0-7.08,0-10.55,2.51-.26,5.18-.24,8.01.02Z"/><g id="_Draw_4"><path style="stroke-width:0px;;fill:#060706;" d="M136.25,128.41c4.17,1.63,6.45,4.27,6.19,9.17-.35,6.64-.12,13.32-.04,19.97,0,.84.58,1.66.89,2.5.44-.88,1.26-1.75,1.26-2.63.09-11.32.06-22.64.06-33.96,0-2,.3-4.05-.05-5.98-1.44-7.79,2.39-13.11,8.15-17.34,1.59-1.17,3.99-1.72,6.02-1.74,13.48-.14,26.97-.11,40.45-.02,6.11.04,8.1,2.09,8.1,8.12.03,23.81.03,47.62,0,71.43,0,6.97-7.25,14.26-14.27,14.36-6.33.08-12.66.26-18.97-.06-3.33-.17-3.8,1.05-3.77,3.95.13,14.32-.06,28.64.14,42.96.06,4.02-1.6,6.7-4.05,9.7-4.48,5.47-9.85,6.85-16.63,6.57-11.47-.48-22.97-.11-34.46-.16-6.64-.03-8.56-1.99-8.62-8.68-.05-5.83.04-11.66-.07-17.48-.02-1.16-.64-2.32-.98-3.47-.4,1.22-1.15,2.43-1.16,3.65-.08,13.49-.63,27.01.15,40.45.51,8.73-5.81,12.05-10.54,16.79-.93.93-3.18.72-4.83.73-13.49.05-26.97.09-40.46,0-5.92-.04-8.03-2.2-8.05-8.26-.06-23.81-.01-47.62-.03-71.43,0-3.15,1.42-5.37,3.35-7.91,4.78-6.28,10.73-8.28,18.25-7.41,3.29.38,6.65.08,9.98.06,4.34-.02,4.38-.03,4.38-4.27.02-13.49.15-26.98-.07-40.46-.08-4.7,1.11-8.39,4.86-11.34,1.8-1.42,3.24-3.31,4.75-5.07,2.61-3.02,6.05-2.87,9.53-2.68l.15.33.2-.32c13.21,0,26.41-.02,39.62-.02l.27.26.27-.27ZM116.97,204.22c0,11.82-.05,23.63.02,35.45.03,4.83.56,5.39,5.02,5.41,13.31.06,26.63.05,39.94,0,3.79-.01,4.64-.79,5.26-4.47.22-1.3.12-2.66.12-3.99,0-15.14-.09-30.29.05-45.43.05-5.79.79-11.58.92-17.38.21-9.39-1.55-10.35-9.07-10.24-12.14.18-24.29.03-36.44.05-5.27.01-5.76.44-5.78,5.64-.06,11.65-.02,23.3-.03,34.95ZM204.29,141.97c0-11.47.01-22.94,0-34.41,0-5.84-.31-6.19-6.27-6.2-12.8-.04-25.6-.03-38.39,0-5.35.01-5.99.66-6,6.05-.03,15.29-.01,30.58-.01,45.88q0,7.76,7.97,7.68c6.69-.07,8.62,1.78,8.74,8.5.06,3.49.15,6.99-.04,10.47-.14,2.6.74,3.41,3.36,3.36,8.31-.15,16.62,0,24.93-.06,4.97-.04,5.71-.84,5.72-5.86.03-11.8,0-23.6,0-35.4ZM50.55,235.92c0,10.66,0,21.32,0,31.97,0,1.49,0,3.01.22,4.48.68,4.44.84,4.6,5.38,4.61,12.99.03,25.98.02,38.96,0,6.02,0,6.24-.24,6.25-6.12,0-14.99,0-29.97,0-44.96q0-8.49-8.69-8.82c-6.09-.23-7.97-2.06-8.16-8.18-.1-3.33-.02-6.66-.02-9.99,0-1.57-.06-3.11-2.22-3.14-9.12-.09-18.24-.15-27.37-.25-3.04-.03-3.98,1.9-4.25,4.43-.14,1.32-.1,2.66-.1,3.99,0,10.66,0,21.32,0,31.97ZM88.23,171.52c.11,0,.21,0,.32,0,0,11.98,0,23.95,0,35.93,0,5.15.45,5.61,5.75,5.65,4.66.04,9.31.01,13.97,0,5.21-.02,5.23-.03,5.24-5.18.01-13.31-.05-26.61.04-39.92.04-5.76,2.19-7.79,7.86-7.84,4.66-.04,9.32-.13,13.97.03,2.94.1,4.13-.78,4.02-3.95-.23-6.65-.03-13.3-.1-19.96-.04-4.61-.49-5.05-5.25-5.07-11.64-.05-23.29-.02-34.93-.01-2.49,0-4.99-.06-7.48.07-2.35.12-3.45,1.42-3.44,3.87.05,12.13.02,24.25.02,36.38Z"/><polygon style="stroke-width:0px;;fill:#0749a0;" points="96.08 128.44 95.88 128.77 95.73 128.44 95.91 128.25 96.08 128.44"/><polygon style="stroke-width:0px;;fill:#0749a0;" points="136.25 128.41 135.97 128.68 135.7 128.42 135.97 128.19 136.25 128.41"/><path style="stroke-width:0px;;fill:#c10c01;" d="M116.98,204.22c0-11.65-.04-23.3.02-34.95.03-5.2.52-5.63,5.78-5.64,12.15-.03,24.3.13,36.44-.05,7.52-.11,9.28.85,9.07,10.24-.13,5.8-.86,11.58-.92,17.38-.14,15.14-.04,30.29-.05,45.43,0,1.33.1,2.69-.12,3.99-.62,3.69-1.46,4.46-5.26,4.47-13.31.05-26.63.06-39.94,0-4.46-.02-4.99-.59-5.02-5.41-.07-11.82-.02-23.63-.02-35.45Z"/><path style="stroke-width:0px;;fill:#e3cd04;" d="M204.29,141.97c0,11.8.02,23.6,0,35.4-.01,5.02-.75,5.82-5.72,5.86-8.31.06-16.62-.09-24.93.06-2.63.05-3.5-.76-3.36-3.36.19-3.48.1-6.98.04-10.47-.12-6.72-2.05-8.57-8.74-8.5q-7.97.08-7.97-7.68c0-15.29-.02-30.58.01-45.88,0-5.39.65-6.03,6-6.05,12.8-.04,25.6-.04,38.39,0,5.95.02,6.26.36,6.27,6.2.02,11.47,0,22.94,0,34.41Z"/><path style="stroke-width:0px;;fill:#328711;" d="M50.55,235.92c0-10.66,0-21.32,0-31.97,0-1.33-.04-2.67.1-3.99.27-2.53,1.21-4.47,4.25-4.43,9.12.1,18.24.17,27.37.25,2.17.02,2.22,1.56,2.22,3.14,0,3.33-.09,6.66.02,9.99.19,6.12,2.07,7.94,8.16,8.18q8.7.33,8.69,8.82c0,14.99,0,29.97,0,44.96,0,5.88-.23,6.12-6.25,6.12-12.99.02-25.98.03-38.96,0-4.54-.01-4.7-.17-5.38-4.61-.22-1.47-.21-2.98-.22-4.48-.02-10.66,0-21.32,0-31.97Z"/><path style="stroke-width:0px;;fill:#0749a0;" d="M88.23,171.52c0-12.13.03-24.25-.02-36.38-.01-2.46,1.09-3.75,3.44-3.87,2.49-.13,4.99-.07,7.48-.07,11.64,0,23.29-.03,34.93.01,4.76.02,5.21.46,5.25,5.07.06,6.65-.13,13.31.1,19.96.11,3.17-1.08,4.05-4.02,3.95-4.65-.16-9.31-.08-13.97-.03-5.67.05-7.82,2.09-7.86,7.84-.09,13.31-.03,26.61-.04,39.92,0,5.15-.02,5.16-5.24,5.18-4.66.02-9.31.05-13.97,0-5.3-.04-5.75-.5-5.75-5.65,0-11.98,0-23.95,0-35.93-.11,0-.21,0-.32,0Z"/></g></g></svg>