<?xml version="1.0" encoding="UTF-8"?><svg id="Layer_2" xmlns="http://www.w3.org/2000/svg" viewBox="0 0 248 380"><defs><style>.cls-1{fill:#084aa3;}.cls-1,.cls-2,.cls-3,.cls-4,.cls-5{stroke-width:0px;}.cls-2{fill:#0d0809;}.cls-3{fill:#c40c00;}.cls-4{fill:#fff;}.cls-5{fill:#e5cf05;}</style></defs><g id="Skip"><g id="Base_Yellow"><rect style="stroke-width:0px;;fill:#fff;" width="248" height="380" rx="24.66" ry="24.66"/><path style="stroke-width:0px;;fill:#e5cf05;" d="M16.75,311.85c1.59,1.9,2.37,2.66,2.96,3.56,14.15,21.4,34.52,28.02,58.81,23.99,29.27-4.86,52.77-20.9,74.1-40.41,35.64-32.59,60.53-72.35,77.03-117.57.44-1.21.92-2.41,2.27-3.61.08,1.66.22,3.33.22,4.99.01,51.52,0,103.03,0,154.55,0,17.49-8.4,25.81-26.05,25.81-43.99,0-87.99,0-131.98,0-11.12,0-22.25.07-33.37-.02-15.16-.12-23.98-9.12-24.01-24.34-.02-8.55,0-17.11,0-26.96Z"/><path style="stroke-width:0px;;fill:#e5cf05;" d="M17.84,262.97c-.22-22.83,5.07-44.14,12.18-65.14,14.66-43.34,38.94-80.51,71.97-111.92,17.36-16.51,36.77-30,60.24-36.6,33.37-9.38,60.58,7.27,67.85,41.25,5.55,25.92,2.32,51.33-5.28,76.12-17,55.51-46.61,102.96-92.5,139.29-16.58,13.13-34.86,23.14-56.39,25.61-22.61,2.59-42.13-8.78-51.22-29.69-5.47-12.58-7.13-25.82-6.85-38.93Z"/><path style="stroke-width:0px;;fill:#e5cf05;" d="M232.16,67.18c-1.54-1.9-2.18-2.58-2.68-3.34-14.21-21.58-34.65-28.39-59.18-24.22-30.32,5.16-54.41,22.08-76.25,42.53-34.47,32.28-58.74,71.29-74.76,115.58-.49,1.36-1.04,2.71-2.31,4.03-.08-1.53-.23-3.06-.23-4.58-.01-52.01-.01-104.03,0-156.04,0-16.61,8.58-25.29,25.05-25.3,55.11-.01,110.23-.01,165.34,0,16.45,0,25.01,8.7,25.02,25.32,0,8.21,0,16.41,0,26.01Z"/></g><g id="Base_Blue"><rect style="stroke-width:0px;;fill:#fff;" width="248" height="380" rx="24.66" ry="24.66"/><path style="fill:#084aa3;;stroke-width:0px;" d="M16.75,311.85c1.59,1.9,2.37,2.66,2.96,3.56,14.15,21.4,34.52,28.02,58.81,23.99,29.27-4.86,52.77-20.9,74.1-40.41,35.64-32.59,60.53-72.35,77.03-117.57.44-1.21.92-2.41,2.27-3.61.08,1.66.22,3.33.22,4.99.01,51.52,0,103.03,0,154.55,0,17.49-8.4,25.81-26.05,25.81-43.99,0-87.99,0-131.98,0-11.12,0-22.25.07-33.37-.02-15.16-.12-23.98-9.12-24.01-24.34-.02-8.55,0-17.11,0-26.96Z"/><path style="fill:#084aa3;;stroke-width:0px;" d="M17.84,262.97c-.22-22.83,5.07-44.14,12.18-65.14,14.66-43.34,38.94-80.51,71.97-111.92,17.36-16.51,36.77-30,60.24-36.6,33.37-9.38,60.58,7.27,67.85,41.25,5.55,25.92,2.32,51.33-5.28,76.12-17,55.51-46.61,102.96-92.5,139.29-16.58,13.13-34.86,23.14-56.39,25.61-22.61,2.59-42.13-8.78-51.22-29.69-5.47-12.58-7.13-25.82-6.85-38.93Z"/><path style="fill:#084aa3;;stroke-width:0px;" d="M232.16,67.18c-1.54-1.9-2.18-2.58-2.68-3.34-14.21-21.58-34.65-28.39-59.18-24.22-30.32,5.16-54.41,22.08-76.25,42.53-34.47,32.28-58.74,71.29-74.76,115.58-.49,1.36-1.04,2.71-2.31,4.03-.08-1.53-.23-3.06-.23-4.58-.01-52.01-.01-104.03,0-156.04,0-16.61,8.58-25.29,25.05-25.3,55.11-.01,110.23-.01,165.34,0,16.45,0,25.01,8.7,25.02,25.32,0,8.21,0,16.41,0,26.01Z"/></g><g id="Base_Red"><rect style="stroke-width:0px;;fill:#fff;" width="248" height="380" rx="24.66" ry="24.66"/><path style="stroke-width:0px;;fill:#c40c00;" d="M16.75,311.85c1.59,1.9,2.37,2.66,2.96,3.56,14.15,21.4,34.52,28.02,58.81,23.99,29.27-4.86,52.77-20.9,74.1-40.41,35.64-32.59,60.53-72.35,77.03-117.57.44-1.21.92-2.41,2.27-3.61.08,1.66.22,3.33.22,4.99.01,51.52,0,103.03,0,154.55,0,17.49-8.4,25.81-26.05,25.81-43.99,0-87.99,0-131.98,0-11.12,0-22.25.07-33.37-.02-15.16-.12-23.98-9.12-24.01-24.34-.02-8.55,0-17.11,0-26.96Z"/><path style="stroke-width:0px;;fill:#c40c00;" d="M17.84,262.97c-.22-22.83,5.07-44.14,12.18-65.14,14.66-43.34,38.94-80.51,71.97-111.92,17.36-16.51,36.77-30,60.24-36.6,33.37-9.38,60.58,7.27,67.85,41.25,5.55,25.92,2.32,51.33-5.28,76.12-17,55.51-46.61,102.96-92.5,139.29-16.58,13.13-34.86,23.14-56.39,25.61-22.61,2.59-42.13-8.78-51.22-29.69-5.47-12.58-7.13-25.82-6.85-38.93Z"/><path style="stroke-width:0px;;fill:#c40c00;" d="M232.16,67.18c-1.54-1.9-2.18-2.58-2.68-3.34-14.21-21.58-34.65-28.39-59.18-24.22-30.32,5.16-54.41,22.08-76.25,42.53-34.47,32.28-58.74,71.29-74.76,115.58-.49,1.36-1.04,2.71-2.31,4.03-.08-1.53-.23-3.06-.23-4.58-.01-52.01-.01-104.03,0-156.04,0-16.61,8.58-25.29,25.05-25.3,55.11-.01,110.23-.01,165.34,0,16.45,0,25.01,8.7,25.02,25.32,0,8.21,0,16.41,0,26.01Z"/></g><g id="_Skip"><path style="stroke-width:0px;;fill:#fff;" d="M121.45,237.06c-32.47.07-53.86-28.11-45.1-59.43,7.91-28.29,37.83-48.62,66.2-44.98,30.24,3.89,47.44,30.94,38.37,60.3-7.82,25.32-32.56,44.47-59.47,44.11ZM104.46,215.46c15.17,10.02,37.21,6,50.56-8.87,11.88-13.23,14.93-32.43,6.52-42.47-18.93,17.03-37.86,34.05-57.09,51.34ZM94.94,205.24c19.43-17.34,38.56-34.43,57.82-51.63-14.94-10.18-36.04-7.08-50.14,6.89-12.63,12.52-16.23,31.94-7.68,44.73Z"/><path style="stroke-width:0px;;fill:#0d0809;" d="M116.75,247.07c-24.47.04-45.02-13.42-51.75-34.25-6.07-18.76-2.09-36.23,9.47-51.42,14.38-18.88,33.71-30.74,57.63-33.08,35.52-3.47,61.48,26.65,53.64,61.44-7.18,31.86-37.75,57.25-68.99,57.3ZM121.45,237.06c26.92.36,51.65-18.79,59.47-44.11,9.07-29.36-8.14-56.41-38.37-60.3-28.37-3.65-58.29,16.68-66.2,44.98-8.76,31.33,12.63,59.5,45.1,59.43Z"/><path style="stroke-width:0px;;fill:#0d0809;" d="M104.46,215.46c19.23-17.29,38.15-34.31,57.09-51.34,8.41,10.04,5.35,29.24-6.52,42.47-13.35,14.87-35.4,18.89-50.56,8.87ZM113.57,214.37c8.75,4.71,23.54,1.46,28.12-3.34,8.33-8.72,13.22-18.67,11.21-32.11-13.57,12.23-26.38,23.77-39.33,35.45Z"/><path style="stroke-width:0px;;fill:#0d0809;" d="M94.94,205.24c-8.55-12.79-4.96-32.21,7.68-44.73,14.1-13.98,35.2-17.07,50.14-6.89-19.26,17.19-38.4,34.28-57.82,51.63ZM95.59,197.06c14.53-13,28.03-25.07,42.54-38.06-14.72-1.23-27.17-.21-36.66,10.31-6.84,7.58-8.37,16.59-5.88,27.74Z"/></g><g id="_Skip-2"><path style="stroke-width:0px;;fill:#fff;" d="M55.58,87.16c-16.93.04-28.07-14.65-23.51-30.98,4.12-14.75,19.72-25.34,34.51-23.44,15.76,2.03,24.73,16.13,20,31.43-4.08,13.2-16.97,23.18-31,22.99ZM46.73,75.9c7.91,5.22,19.4,3.13,26.35-4.62,6.19-6.9,7.78-16.91,3.4-22.14-9.87,8.87-19.73,17.75-29.76,26.76ZM41.76,70.57c10.12-9.04,20.1-17.95,30.14-26.91-7.79-5.3-18.79-3.69-26.14,3.59-6.58,6.53-8.46,16.65-4,23.32Z"/><path style="stroke-width:0px;;fill:#0d0809;" d="M53.13,92.38c-12.75.02-23.47-7-26.98-17.85-3.16-9.78-1.09-18.89,4.94-26.8,7.5-9.84,17.57-16.02,30.04-17.24,18.51-1.81,32.04,13.89,27.96,32.02-3.74,16.61-19.67,29.84-35.96,29.87ZM55.58,87.16c14.03.19,26.92-9.79,31-22.99,4.73-15.3-4.24-29.4-20-31.43-14.79-1.9-30.38,8.7-34.51,23.44-4.56,16.33,6.58,31.02,23.51,30.98Z"/><path style="stroke-width:0px;;fill:#0d0809;" d="M46.73,75.9c10.02-9.01,19.89-17.88,29.76-26.76,4.38,5.23,2.79,15.24-3.4,22.14-6.96,7.75-18.45,9.84-26.35,4.62ZM51.47,75.33c4.56,2.46,12.27.76,14.66-1.74,4.34-4.54,6.89-9.73,5.84-16.74-7.07,6.38-13.75,12.39-20.5,18.48Z"/><path style="stroke-width:0px;;fill:#0d0809;" d="M41.76,70.57c-4.46-6.67-2.58-16.79,4-23.32,7.35-7.29,18.35-8.9,26.14-3.59-10.04,8.96-20.01,17.87-30.14,26.91ZM42.1,66.31c7.57-6.77,14.61-13.07,22.17-19.84-7.67-.64-14.16-.11-19.11,5.38-3.57,3.95-4.36,8.65-3.06,14.46Z"/></g><g id="_Skip-3"><path style="stroke-width:0px;;fill:#fff;" d="M192.42,292.84c16.93-.04,28.07,14.65,23.51,30.98-4.12,14.75-19.72,25.34-34.51,23.44-15.76-2.03-24.73-16.13-20-31.43,4.08-13.2,16.97-23.18,31-22.99ZM201.27,304.1c-7.91-5.22-19.4-3.13-26.35,4.62-6.19,6.9-7.78,16.91-3.4,22.14,9.87-8.87,19.73-17.75,29.76-26.76ZM206.24,309.43c-10.12,9.04-20.1,17.95-30.14,26.91,7.79,5.3,18.79,3.69,26.14-3.59,6.58-6.53,8.46-16.65,4-23.32Z"/><path style="stroke-width:0px;;fill:#0d0809;" d="M194.87,287.62c12.75-.02,23.47,7,26.98,17.85,3.16,9.78,1.09,18.89-4.94,26.8-7.5,9.84-17.57,16.02-30.04,17.24-18.51,1.81-32.04-13.89-27.96-32.02,3.74-16.61,19.67-29.84,35.96-29.87ZM192.42,292.84c-14.03-.19-26.92,9.79-31,22.99-4.73,15.3,4.24,29.4,20,31.43,14.79,1.9,30.38-8.7,34.51-23.44,4.56-16.33-6.58-31.02-23.51-30.98Z"/><path style="stroke-width:0px;;fill:#0d0809;" d="M201.27,304.1c-10.02,9.01-19.89,17.88-29.76,26.76-4.38-5.23-2.79-15.24,3.4-22.14,6.96-7.75,18.45-9.84,26.35-4.62ZM196.53,304.67c-4.56-2.46-12.27-.76-14.66,1.74-4.34,4.54-6.89,9.73-5.84,16.74,7.07-6.38,13.75-12.39,20.5-18.48Z"/><path style="stroke-width:0px;;fill:#0d0809;" d="M206.24,309.43c4.46,6.67,2.58,16.79-4,23.32-7.35,7.29-18.35,8.9-26.14,3.59,10.04-8.96,20.01-17.87,30.14-26.91ZM205.9,313.69c-7.57,6.77-14.61,13.07-22.17,19.84,7.67.64,14.16.11,19.11-5.38,3.57-3.95,4.36-8.65,3.06-14.46Z"/></g></g></svg>